AcariSans-BoldItalic.ufo
<glyph name="quotedbl" format="2">
  <advance width="958"/>
  <unicode hex="0022"/>
  <outline>
    <contour>
      <point x="492" y="866" type="line"/>
      <point x="287" y="866" type="line"/>
      <point x="414" y="1413" type="line"/>
      <point x="618" y="1413" type="line"/>
    </contour>
    <contour>
      <point x="840" y="866" type="line"/>
      <point x="635" y="866" type="line"/>
      <point x="762" y="1413" type="line"/>
      <point x="967" y="1413" type="line"/>
    </contour>
  </outline>
</glyph>
<glyph name="numbersign" format="2">
  <advance width="1382"/>
  <unicode hex="0023"/>
  <outline>
    <contour>
      <point x="735" y="0" type="line"/>
      <point x="543" y="0" type="line"/>
      <point x="735" y="436" type="line"/>
      <point x="487" y="436" type="line"/>
      <point x="297" y="0" type="line"/>
      <point x="104" y="0" type="line"/>
      <point x="291" y="414" type="line"/>
      <point x="57" y="414" type="line"/>
      <point x="98" y="586" type="line"/>
      <point x="367" y="586" type="line"/>
      <point x="481" y="848" type="line"/>
      <point x="240" y="848" type="line"/>
      <point x="283" y="1028" type="line"/>
      <point x="559" y="1028" type="line"/>
      <point x="748" y="1434" type="line"/>
      <point x="942" y="1434" type="line"/>
      <point x="745" y="997" type="line"/>
      <point x="991" y="997" type="line"/>
      <point x="1186" y="1434" type="line"/>
      <point x="1380" y="1434" type="line"/>
      <point x="1190" y="1020" type="line"/>
      <point x="1423" y="1020" type="line"/>
      <point x="1382" y="848" type="line"/>
      <point x="1114" y="848" type="line"/>
      <point x="999" y="586" type="line"/>
      <point x="1241" y="586" type="line"/>
      <point x="1198" y="406" type="line"/>
      <point x="922" y="406" type="line"/>
    </contour>
    <contour>
      <point x="807" y="586" type="line"/>
      <point x="922" y="848" type="line"/>
      <point x="674" y="848" type="line"/>
      <point x="559" y="586" type="line"/>
    </contour>
  </outline>
</glyph>
<glyph name="ampersand" format="2">
  <advance width="1378"/>
  <unicode hex="0026"/>
  <outline>
    <contour>
      <point x="1024" y="-76" type="line"/>
      <point x="889" y="134" type="line"/>
      <point x="788" y="61"/>
      <point x="556" y="-23"/>
      <point x="432" y="-23" type="qcurve" smooth="yes"/>
      <point x="318" y="-23"/>
      <point x="138" y="44"/>
      <point x="33" y="174"/>
      <point x="33" y="269" type="qcurve" smooth="yes"/>
      <point x="33" y="352"/>
      <point x="99" y="497"/>
      <point x="208" y="617"/>
      <point x="274" y="662" type="qcurve" smooth="yes"/>
      <point x="357" y="719"/>
      <point x="469" y="778" type="qcurve"/>
      <point x="428" y="833"/>
      <point x="371" y="959"/>
      <point x="371" y="1037" type="qcurve" smooth="yes"/>
      <point x="371" y="1105"/>
      <point x="422" y="1232"/>
      <point x="474" y="1284" type="qcurve" smooth="yes"/>
      <point x="549" y="1357"/>
      <point x="739" y="1430"/>
      <point x="829" y="1430" type="qcurve" smooth="yes"/>
      <point x="927" y="1430"/>
      <point x="1068" y="1355"/>
      <point x="1145" y="1228"/>
      <point x="1145" y="1150" type="qcurve" smooth="yes"/>
      <point x="1145" y="1110"/>
      <point x="1137" y="1077" type="qcurve" smooth="yes"/>
      <point x="1111" y="964"/>
      <point x="940" y="793"/>
      <point x="804" y="714" type="qcurve"/>
      <point x="945" y="502" type="line"/>
      <point x="1006" y="601"/>
      <point x="1030" y="707" type="qcurve"/>
      <point x="1257" y="662" type="line"/>
      <point x="1206" y="472"/>
      <point x="1074" y="309" type="qcurve"/>
      <point x="1227" y="78" type="line"/>
    </contour>
    <contour>
      <point x="664" y="877" type="qcurve"/>
      <point x="779" y="938"/>
      <point x="907" y="1051"/>
      <point x="922" y="1118" type="qcurve" smooth="yes"/>
      <point x="925" y="1133"/>
      <point x="925" y="1147" type="qcurve" smooth="yes"/>
      <point x="925" y="1186"/>
      <point x="872" y="1239"/>
      <point x="815" y="1239" type="qcurve" smooth="yes"/>
      <point x="749" y="1239"/>
      <point x="626" y="1153"/>
      <point x="604" y="1071" type="qcurve" smooth="yes"/>
      <point x="602" y="1063"/>
      <point x="602" y="1047" type="qcurve" smooth="yes"/>
      <point x="602" y="979"/>
    </contour>
    <contour>
      <point x="449" y="184" type="qcurve" smooth="yes"/>
      <point x="539" y="184"/>
      <point x="705" y="250"/>
      <point x="776" y="307" type="qcurve"/>
      <point x="589" y="597" type="line"/>
      <point x="448" y="522"/>
      <point x="288" y="388"/>
      <point x="268" y="303" type="qcurve" smooth="yes"/>
      <point x="265" y="291"/>
      <point x="265" y="280" type="qcurve" smooth="yes"/>
      <point x="265" y="230"/>
      <point x="366" y="184"/>
    </contour>
  </outline>
</glyph>
<glyph name="parenleft" format="2">
  <advance width="573"/>
  <unicode hex="0028"/>
  <outline>
    <contour>
      <point x="410" y="-133" type="qcurve"/>
      <point x="209" y="-117" type="line"/>
      <point x="157" y="-44"/>
      <point x="108" y="191"/>
      <point x="108" y="329" type="qcurve" smooth="yes"/>
      <point x="108" y="565"/>
      <point x="231" y="1030"/>
      <point x="328" y="1211" type="qcurve" smooth="yes"/>
      <point x="438" y="1418"/>
      <point x="578" y="1542" type="qcurve"/>
      <point x="803" y="1526" type="line"/>
      <point x="453" y="1195"/>
      <point x="334" y="680" type="qcurve" smooth="yes"/>
      <point x="289" y="484"/>
      <point x="289" y="327" type="qcurve" smooth="yes"/>
      <point x="289" y="85"/>
    </contour>
  </outline>
</glyph>
<glyph name="parenright" format="2">
  <advance width="573"/>
  <unicode hex="0029"/>
  <outline>
    <contour>
      <point x="86" y="-133" type="qcurve"/>
      <point x="-131" y="-117" type="line"/>
      <point x="53" y="66"/>
      <point x="272" y="458"/>
      <point x="332" y="725" type="qcurve"/>
      <point x="376" y="913"/>
      <point x="376" y="1076" type="qcurve" smooth="yes"/>
      <point x="376" y="1340"/>
      <point x="258" y="1542" type="qcurve"/>
      <point x="465" y="1526" type="line"/>
      <point x="568" y="1370"/>
      <point x="568" y="1101" type="qcurve" smooth="yes"/>
      <point x="568" y="866"/>
      <point x="416" y="325"/>
      <point x="264" y="80" type="qcurve"/>
      <point x="178" y="-56"/>
    </contour>
  </outline>
</glyph>
<glyph name="asterisk" format="2">
  <advance width="901"/>
  <unicode hex="002A"/>
  <outline>
    <contour>
      <point x="643" y="834" type="line"/>
      <point x="580" y="1042" type="line"/>
      <point x="422" y="834" type="line"/>
      <point x="283" y="936" type="line"/>
      <point x="475" y="1096" type="line"/>
      <point x="256" y="1126" type="line"/>
      <point x="354" y="1294" type="line"/>
      <point x="547" y="1212" type="line"/>
      <point x="565" y="1413" type="line"/>
      <point x="760" y="1413" type="line"/>
      <point x="684" y="1212" type="line"/>
      <point x="909" y="1294" type="line"/>
      <point x="932" y="1126" type="line"/>
      <point x="696" y="1096" type="line"/>
      <point x="819" y="936" type="line"/>
    </contour>
  </outline>
</glyph>
<glyph name="plus" format="2">
  <advance width="1253"/>
  <unicode hex="002B"/>
  <outline>
    <contour>
      <point x="719" y="106" type="line"/>
      <point x="535" y="106" type="line"/>
      <point x="535" y="532" type="line"/>
      <point x="78" y="532" type="line"/>
      <point x="78" y="717" type="line"/>
      <point x="535" y="717" type="line"/>
      <point x="535" y="1143" type="line"/>
      <point x="719" y="1143" type="line"/>
      <point x="719" y="717" type="line"/>
      <point x="1176" y="717" type="line"/>
      <point x="1176" y="532" type="line"/>
      <point x="719" y="532" type="line"/>
    </contour>
  </outline>
</glyph>
<glyph name="hyphen" format="2">
  <advance width="866"/>
  <unicode hex="002D"/>
  <outline>
    <contour>
      <point x="733" y="532" type="line"/>
      <point x="150" y="532" type="line"/>
      <point x="190" y="717" type="line"/>
      <point x="774" y="717" type="line"/>
    </contour>
  </outline>
</glyph>
<glyph name="slash" format="2">
  <advance width="934"/>
  <unicode hex="002F"/>
  <outline>
    <contour>
      <point x="-23" y="-430" type="line"/>
      <point x="-254" y="-430" type="line"/>
      <point x="975" y="1516" type="line"/>
      <point x="1208" y="1516" type="line"/>
    </contour>
  </outline>
</glyph>
<glyph name="one" format="2">
  <advance width="1200"/>
  <unicode hex="0031"/>
  <outline>
    <contour>
      <point x="700" y="0" type="line"/>
      <point x="450" y="0" type="line"/>
      <point x="688" y="1030" type="line"/>
      <point x="375" y="1030" type="line"/>
      <point x="418" y="1223" type="line"/>
      <point x="584" y="1223" type="line" smooth="yes"/>
      <point x="653" y="1223"/>
      <point x="762" y="1308"/>
      <point x="780" y="1384" type="qcurve"/>
      <point x="786" y="1413" type="line"/>
      <point x="1026" y="1413" type="line"/>
    </contour>
  </outline>
</glyph>
<glyph name="two" format="2">
  <advance width="1200"/>
  <unicode hex="0032"/>
  <outline>
    <contour>
      <point x="1016" y="0" type="line"/>
      <point x="-55" y="0" type="line"/>
      <point x="-12" y="207" type="line"/>
      <point x="372" y="422"/>
      <point x="598" y="612" type="qcurve"/>
      <point x="730" y="708"/>
      <point x="901" y="911"/>
      <point x="928" y="1022" type="qcurve"/>
      <point x="934" y="1051"/>
      <point x="934" y="1075" type="qcurve" smooth="yes"/>
      <point x="934" y="1133"/>
      <point x="863" y="1204"/>
      <point x="784" y="1204" type="qcurve" smooth="yes"/>
      <point x="693" y="1204"/>
      <point x="560" y="1112"/>
      <point x="474" y="969"/>
      <point x="452" y="889" type="qcurve"/>
      <point x="213" y="926" type="line"/>
      <point x="236" y="1023"/>
      <point x="339" y="1203"/>
      <point x="494" y="1347"/>
      <point x="693" y="1432"/>
      <point x="809" y="1432" type="qcurve" smooth="yes"/>
      <point x="927" y="1432"/>
      <point x="1096" y="1344"/>
      <point x="1186" y="1192"/>
      <point x="1186" y="1095" type="qcurve" smooth="yes"/>
      <point x="1186" y="905"/>
      <point x="1022" y="709" type="qcurve" smooth="yes"/>
      <point x="903" y="567"/>
      <point x="727" y="418" type="qcurve"/>
      <point x="556" y="298"/>
      <point x="420" y="223" type="qcurve"/>
      <point x="1069" y="229" type="line"/>
    </contour>
  </outline>
</glyph>
<glyph name="four" format="2">
  <advance width="1200"/>
  <unicode hex="0034"/>
  <outline>
    <contour>
      <point x="821" y="0" type="line"/>
      <point x="571" y="0" type="line"/>
      <point x="647" y="332" type="line"/>
      <point x="-6" y="332" type="line"/>
      <point x="26" y="479" type="line"/>
      <point x="932" y="1413" type="line"/>
      <point x="1147" y="1413" type="line"/>
      <point x="950" y="563" type="line"/>
      <point x="1175" y="563" type="line"/>
      <point x="1122" y="332" type="line"/>
      <point x="897" y="332" type="line"/>
    </contour>
    <contour>
      <point x="700" y="563" type="line"/>
      <point x="809" y="1024" type="line"/>
      <point x="375" y="563" type="line"/>
    </contour>
  </outline>
</glyph>
<glyph name="five" format="2">
  <advance width="1200"/>
  <unicode hex="0035"/>
  <outline>
    <contour>
      <point x="483" y="-20" type="qcurve" smooth="yes"/>
      <point x="357" y="-20"/>
      <point x="164" y="99"/>
      <point x="63" y="298"/>
      <point x="63" y="413" type="qcurve" smooth="yes"/>
      <point x="63" y="420" type="line"/>
      <point x="305" y="465" type="line"/>
      <point x="305" y="458" type="line" smooth="yes"/>
      <point x="305" y="209"/>
      <point x="510" y="209" type="qcurve" smooth="yes"/>
      <point x="587" y="209"/>
      <point x="732" y="294"/>
      <point x="834" y="431"/>
      <point x="852" y="506" type="qcurve"/>
      <point x="859" y="542"/>
      <point x="859" y="564" type="qcurve" smooth="yes"/>
      <point x="859" y="644"/>
      <point x="757" y="743"/>
      <point x="659" y="743" type="qcurve" smooth="yes"/>
      <point x="586" y="743"/>
      <point x="431" y="664"/>
      <point x="379" y="602" type="qcurve"/>
      <point x="160" y="670" type="line"/>
      <point x="467" y="1413" type="line"/>
      <point x="1255" y="1413" type="line"/>
      <point x="1202" y="1180" type="line"/>
      <point x="616" y="1180" type="line"/>
      <point x="500" y="922" type="line"/>
      <point x="559" y="951"/>
      <point x="666" y="971"/>
      <point x="723" y="971" type="qcurve" smooth="yes"/>
      <point x="836" y="971"/>
      <point x="1014" y="868"/>
      <point x="1112" y="688"/>
      <point x="1112" y="577" type="qcurve" smooth="yes"/>
      <point x="1112" y="385"/>
      <point x="975" y="223" type="qcurve" smooth="yes"/>
      <point x="881" y="112"/>
      <point x="620" y="-20"/>
    </contour>
  </outline>
</glyph>
<glyph name="six" format="2">
  <advance width="1200"/>
  <unicode hex="0036"/>
  <outline>
    <contour>
      <point x="493" y="-20" type="qcurve" smooth="yes"/>
      <point x="364" y="-20"/>
      <point x="174" y="87"/>
      <point x="71" y="267"/>
      <point x="71" y="377" type="qcurve" smooth="yes"/>
      <point x="71" y="566"/>
      <point x="209" y="727" type="qcurve" smooth="yes"/>
      <point x="794" y="1413" type="line"/>
      <point x="1089" y="1413" type="line"/>
      <point x="668" y="948" type="line"/>
      <point x="741" y="948"/>
      <point x="854" y="928"/>
      <point x="913" y="899" type="qcurve" smooth="yes"/>
      <point x="1007" y="852"/>
      <point x="1119" y="680"/>
      <point x="1119" y="562" type="qcurve" smooth="yes"/>
      <point x="1119" y="411"/>
      <point x="929" y="131"/>
      <point x="765" y="46" type="qcurve"/>
      <point x="635" y="-20"/>
    </contour>
    <contour>
      <point x="524" y="217" type="qcurve" smooth="yes"/>
      <point x="617" y="217"/>
      <point x="775" y="319"/>
      <point x="872" y="470"/>
      <point x="872" y="546" type="qcurve" smooth="yes"/>
      <point x="872" y="628"/>
      <point x="754" y="729"/>
      <point x="668" y="729" type="qcurve" smooth="yes"/>
      <point x="587" y="729"/>
      <point x="442" y="650"/>
      <point x="340" y="525"/>
      <point x="323" y="451" type="qcurve" smooth="yes"/>
      <point x="317" y="426"/>
      <point x="317" y="402" type="qcurve" smooth="yes"/>
      <point x="317" y="322"/>
      <point x="432" y="217"/>
    </contour>
  </outline>
</glyph>
<glyph name="less" format="2">
  <advance width="1237"/>
  <unicode hex="003C"/>
  <outline>
    <contour>
      <point x="1030" y="152" type="line"/>
      <point x="45" y="674" type="line"/>
      <point x="1030" y="1196" type="line"/>
      <point x="1133" y="1018" type="line"/>
      <point x="440" y="674" type="line"/>
      <point x="1133" y="330" type="line"/>
    </contour>
  </outline>
</glyph>
<glyph name="question" format="2">
  <advance width="997"/>
  <unicode hex="003F"/>
  <outline>
    <contour>
      <point x="575" y="424" type="line"/>
      <point x="369" y="424" type="line"/>
      <point x="406" y="580" type="line" smooth="yes"/>
      <point x="443" y="732"/>
      <point x="543" y="797" type="qcurve" smooth="yes"/>
      <point x="592" y="828"/>
      <point x="656" y="861" type="qcurve" smooth="yes"/>
      <point x="711" y="889"/>
      <point x="747" y="912" type="qcurve"/>
      <point x="819" y="954"/>
      <point x="850" y="1061" type="qcurve"/>
      <point x="856" y="1087"/>
      <point x="856" y="1109" type="qcurve" smooth="yes"/>
      <point x="856" y="1174"/>
      <point x="755" y="1231"/>
      <point x="672" y="1231" type="qcurve" smooth="yes"/>
      <point x="543" y="1231"/>
      <point x="396" y="1096"/>
      <point x="371" y="981" type="qcurve"/>
      <point x="162" y="1001" type="line"/>
      <point x="213" y="1214"/>
      <point x="493" y="1434"/>
      <point x="684" y="1434" type="qcurve" smooth="yes"/>
      <point x="788" y="1434"/>
      <point x="961" y="1363"/>
      <point x="1065" y="1222"/>
      <point x="1065" y="1115" type="qcurve" smooth="yes"/>
      <point x="1065" y="1049"/>
      <point x="1021" y="901"/>
      <point x="981" y="845" type="qcurve"/>
      <point x="935" y="784"/>
      <point x="825" y="708"/>
      <point x="745" y="671" type="qcurve" smooth="yes"/>
      <point x="679" y="640"/>
      <point x="614" y="590"/>
      <point x="606" y="557" type="qcurve" smooth="yes"/>
    </contour>
    <contour>
      <point x="512" y="0" type="line"/>
      <point x="246" y="0" type="line"/>
      <point x="305" y="264" type="line"/>
      <point x="571" y="264" type="line"/>
    </contour>
  </outline>
</glyph>
<glyph name="A" format="2">
  <advance width="1343"/>
  <unicode hex="0041"/>
  <outline>
    <contour>
      <point x="1214" y="0" type="line"/>
      <point x="944" y="0" type="line"/>
      <point x="905" y="307" type="line"/>
      <point x="356" y="307" type="line"/>
      <point x="176" y="0" type="line"/>
      <point x="-104" y="0" type="line"/>
      <point x="786" y="1413" type="line"/>
      <point x="977" y="1413" type="line"/>
    </contour>
    <contour>
      <point x="870" y="524" type="line"/>
      <point x="803" y="1040" type="line"/>
      <point x="494" y="524" type="line"/>
    </contour>
  </outline>
</glyph>
<glyph name="F" format="2">
  <advance width="1235"/>
  <unicode hex="0046"/>
  <outline>
    <contour>
      <point x="322" y="0" type="line"/>
      <point x="68" y="0" type="line"/>
      <point x="393" y="1413" type="line"/>
      <point x="1395" y="1413" type="line"/>
      <point x="1341" y="1180" type="line"/>
      <point x="594" y="1180" type="line"/>
      <point x="510" y="823" type="line"/>
      <point x="1169" y="823" type="line"/>
      <point x="1116" y="590" type="line"/>
      <point x="457" y="590" type="line"/>
    </contour>
  </outline>
</glyph>
<glyph name="G" format="2">
  <advance width="1534"/>
  <unicode hex="0047"/>
  <outline>
    <contour>
      <point x="659" y="-20" type="qcurve" smooth="yes"/>
      <point x="470" y="-20"/>
      <point x="227" y="118"/>
      <point x="109" y="359"/>
      <point x="109" y="512" type="qcurve" smooth="yes"/>
      <point x="109" y="654"/>
      <point x="202" y="954"/>
      <point x="290" y="1084" type="qcurve" smooth="yes"/>
      <point x="400" y="1244"/>
      <point x="746" y="1436"/>
      <point x="967" y="1436" type="qcurve" smooth="yes"/>
      <point x="1183" y="1436"/>
      <point x="1457" y="1217"/>
      <point x="1499" y="1020" type="qcurve"/>
      <point x="1260" y="946" type="line"/>
      <point x="1245" y="1085"/>
      <point x="1077" y="1214"/>
      <point x="940" y="1214" type="qcurve" smooth="yes"/>
      <point x="789" y="1214"/>
      <point x="561" y="1071"/>
      <point x="412" y="837"/>
      <point x="379" y="694" type="qcurve" smooth="yes"/>
      <point x="358" y="600"/>
      <point x="358" y="529" type="qcurve" smooth="yes"/>
      <point x="358" y="381"/>
      <point x="519" y="207"/>
      <point x="686" y="207" type="qcurve" smooth="yes"/>
      <point x="850" y="207"/>
      <point x="1118" y="410"/>
      <point x="1178" y="569" type="qcurve"/>
      <point x="854" y="559" type="line"/>
      <point x="901" y="764" type="line"/>
      <point x="1468" y="764" type="line"/>
      <point x="1292" y="0" type="line"/>
      <point x="1092" y="0" type="line"/>
      <point x="1116" y="188" type="line"/>
      <point x="1034" y="86"/>
      <point x="794" y="-20"/>
    </contour>
  </outline>
</glyph>
<glyph name="H" format="2">
  <advance width="1491"/>
  <unicode hex="0048"/>
  <outline>
    <contour>
      <point x="1194" y="0" type="line"/>
      <point x="940" y="0" type="line"/>
      <point x="1075" y="590" type="line"/>
      <point x="457" y="590" type="line"/>
      <point x="322" y="0" type="line"/>
      <point x="68" y="0" type="line"/>
      <point x="393" y="1413" type="line"/>
      <point x="647" y="1413" type="line"/>
      <point x="510" y="823" type="line"/>
      <point x="1128" y="823" type="line"/>
      <point x="1266" y="1413" type="line"/>
      <point x="1520" y="1413" type="line"/>
    </contour>
  </outline>
</glyph>
<glyph name="I" format="2">
  <advance width="618"/>
  <unicode hex="0049"/>
  <outline>
    <contour>
      <point x="322" y="0" type="line"/>
      <point x="68" y="0" type="line"/>
      <point x="393" y="1413" type="line"/>
      <point x="647" y="1413" type="line"/>
    </contour>
  </outline>
</glyph>
<glyph name="L" format="2">
  <advance width="1063"/>
  <unicode hex="004C"/>
  <outline>
    <contour>
      <point x="926" y="0" type="line"/>
      <point x="68" y="0" type="line"/>
      <point x="393" y="1413" type="line"/>
      <point x="647" y="1413" type="line"/>
      <point x="377" y="240" type="line"/>
      <point x="981" y="240" type="line"/>
    </contour>
  </outline>
</glyph>
<glyph name="M" format="2">
  <advance width="1798"/>
  <unicode hex="004D"/>
  <outline>
    <contour>
      <point x="1501" y="0" type="line"/>
      <point x="1257" y="0" type="line"/>
      <point x="1503" y="1057" type="line"/>
      <point x="936" y="123" type="line"/>
      <point x="690" y="123" type="line"/>
      <point x="557" y="1057" type="line"/>
      <point x="311" y="0" type="line"/>
      <point x="68" y="0" type="line"/>
      <point x="393" y="1413" type="line"/>
      <point x="733" y="1413" type="line"/>
      <point x="874" y="408" type="line"/>
      <point x="1483" y="1413" type="line"/>
      <point x="1827" y="1413" type="line"/>
    </contour>
  </outline>
</glyph>
<glyph name="Q" format="2">
  <advance width="1573"/>
  <unicode hex="0051"/>
  <outline>
    <contour>
      <point x="1206" y="-119" type="line"/>
      <point x="1051" y="78" type="line"/>
      <point x="880" y="-20"/>
      <point x="657" y="-20" type="qcurve" smooth="yes"/>
      <point x="469" y="-20"/>
      <point x="226" y="118"/>
      <point x="108" y="357"/>
      <point x="108" y="510" type="qcurve" smooth="yes"/>
      <point x="108" y="644"/>
      <point x="198" y="947"/>
      <point x="290" y="1083" type="qcurve" smooth="yes"/>
      <point x="400" y="1243"/>
      <point x="746" y="1434"/>
      <point x="967" y="1434" type="qcurve" smooth="yes"/>
      <point x="1156" y="1434"/>
      <point x="1398" y="1295"/>
      <point x="1515" y="1053"/>
      <point x="1515" y="900" type="qcurve" smooth="yes"/>
      <point x="1515" y="731"/>
      <point x="1379" y="363"/>
      <point x="1243" y="219" type="qcurve"/>
      <point x="1403" y="35" type="line"/>
    </contour>
    <contour>
      <point x="686" y="219" type="qcurve" smooth="yes"/>
      <point x="794" y="219"/>
      <point x="905" y="264" type="qcurve"/>
      <point x="756" y="436" type="line"/>
      <point x="950" y="586" type="line"/>
      <point x="1102" y="422" type="line"/>
      <point x="1206" y="555"/>
      <point x="1245" y="729" type="qcurve"/>
      <point x="1264" y="808"/>
      <point x="1264" y="883" type="qcurve" smooth="yes"/>
      <point x="1264" y="1026"/>
      <point x="1105" y="1194"/>
      <point x="938" y="1194" type="qcurve" smooth="yes"/>
      <point x="786" y="1194"/>
      <point x="559" y="1059"/>
      <point x="412" y="829"/>
      <point x="379" y="684" type="qcurve"/>
      <point x="359" y="601"/>
      <point x="359" y="529" type="qcurve" smooth="yes"/>
      <point x="359" y="386"/>
      <point x="518" y="219"/>
    </contour>
  </outline>
</glyph>
<glyph name="U" format="2">
  <advance width="1380"/>
  <unicode hex="0055"/>
  <outline>
    <contour>
      <point x="584" y="-20" type="qcurve" smooth="yes"/>
      <point x="429" y="-20"/>
      <point x="233" y="76"/>
      <point x="140" y="251"/>
      <point x="140" y="370" type="qcurve" smooth="yes"/>
      <point x="140" y="459"/>
      <point x="164" y="561" type="qcurve" smooth="yes"/>
      <point x="360" y="1413" type="line"/>
      <point x="614" y="1413" type="line"/>
      <point x="420" y="569" type="line"/>
      <point x="397" y="472"/>
      <point x="397" y="405" type="qcurve" smooth="yes"/>
      <point x="397" y="309"/>
      <point x="503" y="225"/>
      <point x="614" y="225" type="qcurve" smooth="yes"/>
      <point x="781" y="225"/>
      <point x="958" y="408"/>
      <point x="997" y="590" type="qcurve"/>
      <point x="1188" y="1413" type="line"/>
      <point x="1442" y="1413" type="line"/>
      <point x="1243" y="551" type="line" smooth="yes"/>
      <point x="1111" y="-20"/>
    </contour>
  </outline>
</glyph>
<glyph name="V" format="2">
  <advance width="1343"/>
  <unicode hex="0056"/>
  <outline>
    <contour>
      <point x="655" y="0" type="line"/>
      <point x="465" y="0" type="line"/>
      <point x="225" y="1413" type="line"/>
      <point x="502" y="1413" type="line"/>
      <point x="649" y="412" type="line"/>
      <point x="1262" y="1413" type="line"/>
      <point x="1544" y="1413" type="line"/>
    </contour>
  </outline>
</glyph>
<glyph name="W" format="2">
  <advance width="2003"/>
  <unicode hex="0057"/>
  <outline>
    <contour>
      <point x="1391" y="0" type="line"/>
      <point x="1146" y="0" type="line"/>
      <point x="1072" y="1012" type="line"/>
      <point x="531" y="0" type="line"/>
      <point x="286" y="0" type="line"/>
      <point x="188" y="1413" type="line"/>
      <point x="452" y="1413" type="line"/>
      <point x="513" y="373" type="line"/>
      <point x="1066" y="1413" type="line"/>
      <point x="1263" y="1413" type="line"/>
      <point x="1336" y="373" type="line"/>
      <point x="1877" y="1413" type="line"/>
      <point x="2141" y="1413" type="line"/>
    </contour>
  </outline>
</glyph>
<glyph name="Y" format="2">
  <advance width="1395"/>
  <unicode hex="0059"/>
  <outline>
    <contour>
      <point x="711" y="0" type="line"/>
      <point x="457" y="0" type="line"/>
      <point x="586" y="551" type="line"/>
      <point x="209" y="1413" type="line"/>
      <point x="504" y="1413" type="line"/>
      <point x="758" y="778" type="line"/>
      <point x="1309" y="1413" type="line"/>
      <point x="1612" y="1413" type="line"/>
      <point x="840" y="551" type="line"/>
    </contour>
  </outline>
</glyph>
<glyph name="Z" format="2">
  <advance width="1272"/>
  <unicode hex="005A"/>
  <outline>
    <contour>
      <point x="1083" y="0" type="line"/>
      <point x="-55" y="0" type="line"/>
      <point x="-18" y="176" type="line"/>
      <point x="1001" y="1180" type="line"/>
      <point x="262" y="1180" type="line"/>
      <point x="315" y="1413" type="line"/>
      <point x="1409" y="1413" type="line"/>
      <point x="1368" y="1229" type="line"/>
      <point x="354" y="229" type="line"/>
      <point x="1137" y="229" type="line"/>
    </contour>
  </outline>
</glyph>
<glyph name="backslash" format="2">
  <advance width="934"/>
  <unicode hex="005C"/>
  <outline>
    <contour>
      <point x="754" y="-430" type="line"/>
      <point x="530" y="-430" type="line"/>
      <point x="201" y="1516" type="line"/>
      <point x="422" y="1516" type="line"/>
    </contour>
  </outline>
</glyph>
<glyph name="p" format="2">
  <advance width="1171"/>
  <unicode hex="0070"/>
  <outline>
    <contour>
      <point x="178" y="-438" type="line"/>
      <point x="-70" y="-438" type="line"/>
      <point x="262" y="999" type="line"/>
      <point x="504" y="999" type="line"/>
      <point x="485" y="907" type="line"/>
      <point x="603" y="1020"/>
      <point x="782" y="1020" type="qcurve" smooth="yes"/>
      <point x="896" y="1020"/>
      <point x="1048" y="921"/>
      <point x="1123" y="750"/>
      <point x="1123" y="641" type="qcurve" smooth="yes"/>
      <point x="1123" y="473"/>
      <point x="964" y="144"/>
      <point x="814" y="48" type="qcurve"/>
      <point x="704" y="-20"/>
      <point x="573" y="-20" type="qcurve" smooth="yes"/>
      <point x="491" y="-20"/>
      <point x="348" y="44"/>
      <point x="309" y="109" type="qcurve"/>
    </contour>
    <contour>
      <point x="535" y="205" type="qcurve" smooth="yes"/>
      <point x="624" y="205"/>
      <point x="757" y="288"/>
      <point x="844" y="431"/>
      <point x="864" y="522" type="qcurve" smooth="yes"/>
      <point x="877" y="579"/>
      <point x="877" y="621" type="qcurve" smooth="yes"/>
      <point x="877" y="700"/>
      <point x="793" y="801"/>
      <point x="698" y="801" type="qcurve" smooth="yes"/>
      <point x="613" y="801"/>
      <point x="480" y="716"/>
      <point x="390" y="570"/>
      <point x="369" y="477" type="qcurve" smooth="yes"/>
      <point x="357" y="426"/>
      <point x="357" y="381" type="qcurve" smooth="yes"/>
      <point x="357" y="303"/>
      <point x="441" y="205"/>
    </contour>
  </outline>
</glyph>
<glyph name="s" format="2">
  <advance width="907"/>
  <unicode hex="0073"/>
  <outline>
    <contour>
      <point x="373" y="-20" type="qcurve" smooth="yes"/>
      <point x="258" y="-20"/>
      <point x="87" y="63"/>
      <point x="-11" y="194"/>
      <point x="-18" y="270" type="qcurve"/>
      <point x="186" y="336" type="line"/>
      <point x="196" y="273"/>
      <point x="288" y="182"/>
      <point x="375" y="182" type="qcurve" smooth="yes"/>
      <point x="434" y="182"/>
      <point x="517" y="224"/>
      <point x="561" y="289"/>
      <point x="561" y="322" type="qcurve" smooth="yes"/>
      <point x="561" y="381"/>
      <point x="488" y="410" type="qcurve" smooth="yes"/>
      <point x="456" y="423"/>
      <point x="400" y="440" type="qcurve" smooth="yes"/>
      <point x="317" y="464"/>
      <point x="266" y="490" type="qcurve" smooth="yes"/>
      <point x="145" y="551"/>
      <point x="145" y="690" type="qcurve" smooth="yes"/>
      <point x="145" y="791"/>
      <point x="254" y="936"/>
      <point x="436" y="1014"/>
      <point x="545" y="1014" type="qcurve" smooth="yes"/>
      <point x="673" y="1014"/>
      <point x="877" y="903"/>
      <point x="915" y="793" type="qcurve"/>
      <point x="713" y="711" type="line"/>
      <point x="698" y="763"/>
      <point x="610" y="827"/>
      <point x="537" y="827" type="qcurve" smooth="yes"/>
      <point x="467" y="827"/>
      <point x="385" y="768"/>
      <point x="385" y="725" type="qcurve" smooth="yes"/>
      <point x="385" y="693"/>
      <point x="425" y="652"/>
      <point x="486" y="626"/>
      <point x="542" y="607" type="qcurve" smooth="yes"/>
      <point x="626" y="580"/>
      <point x="731" y="522"/>
      <point x="766" y="475" type="qcurve" smooth="yes"/>
      <point x="803" y="423"/>
      <point x="803" y="340" type="qcurve" smooth="yes"/>
      <point x="803" y="233"/>
      <point x="684" y="70"/>
      <point x="488" y="-20"/>
    </contour>
  </outline>
</glyph>
<glyph name="v" format="2">
  <advance width="999"/>
  <unicode hex="0076"/>
  <outline>
    <contour>
      <point x="487" y="0" type="line"/>
      <point x="287" y="0" type="line"/>
      <point x="109" y="999" type="line"/>
      <point x="371" y="999" type="line"/>
      <point x="453" y="315" type="line"/>
      <point x="856" y="999" type="line"/>
      <point x="1124" y="999" type="line"/>
    </contour>
  </outline>
</glyph>
<glyph name="w" format="2">
  <advance width="1466"/>
  <unicode hex="0077"/>
  <outline>
    <contour>
      <point x="422" y="-4" type="line"/>
      <point x="203" y="-4" type="line"/>
      <point x="127" y="999" type="line"/>
      <point x="385" y="999" type="line"/>
      <point x="408" y="373" type="line"/>
      <point x="741" y="999" type="line"/>
      <point x="952" y="999" type="line"/>
      <point x="993" y="375" type="line"/>
      <point x="1313" y="999" type="line"/>
      <point x="1575" y="999" type="line"/>
      <point x="1036" y="0" type="line"/>
      <point x="815" y="0" type="line"/>
      <point x="772" y="655" type="line"/>
    </contour>
  </outline>
</glyph>
<glyph name="x" format="2">
  <advance width="1030"/>
  <unicode hex="0078"/>
  <outline>
    <contour>
      <point x="901" y="0" type="line"/>
      <point x="608" y="0" type="line"/>
      <point x="481" y="336" type="line"/>
      <point x="195" y="0" type="line"/>
      <point x="-109" y="0" type="line"/>
      <point x="352" y="504" type="line"/>
      <point x="129" y="999" type="line"/>
      <point x="420" y="999" type="line"/>
      <point x="549" y="670" type="line"/>
      <point x="834" y="999" type="line"/>
      <point x="1139" y="999" type="line"/>
      <point x="676" y="504" type="line"/>
    </contour>
  </outline>
</glyph>
<glyph name="braceleft" format="2">
  <advance width="618"/>
  <unicode hex="007B"/>
  <outline>
    <contour>
      <point x="334" y="-156" type="qcurve" smooth="yes"/>
      <point x="262" y="-156" type="line" smooth="yes"/>
      <point x="142" y="-156"/>
      <point x="104" y="-33" type="qcurve"/>
      <point x="87" y="-12"/>
      <point x="87" y="37" type="qcurve" smooth="yes"/>
      <point x="87" y="82"/>
      <point x="100" y="137" type="qcurve" smooth="yes"/>
      <point x="186" y="507"/>
      <point x="186" y="515" type="qcurve" smooth="yes"/>
      <point x="186" y="544"/>
      <point x="139" y="575"/>
      <point x="90" y="594" type="qcurve"/>
      <point x="82" y="598" type="line"/>
      <point x="106" y="758" type="line"/>
      <point x="258" y="800"/>
      <point x="279" y="905" type="qcurve"/>
      <point x="377" y="1331" type="line"/>
      <point x="405" y="1461"/>
      <point x="549" y="1579"/>
      <point x="672" y="1579" type="qcurve" smooth="yes"/>
      <point x="723" y="1579" type="line" smooth="yes"/>
      <point x="753" y="1579"/>
      <point x="807" y="1575" type="qcurve"/>
      <point x="782" y="1413" type="line"/>
      <point x="760" y="1418"/>
      <point x="703" y="1425"/>
      <point x="690" y="1425" type="qcurve" smooth="yes"/>
      <point x="605" y="1425"/>
      <point x="594" y="1380" type="qcurve"/>
      <point x="477" y="870" type="line"/>
      <point x="447" y="732"/>
      <point x="287" y="657" type="qcurve"/>
      <point x="332" y="635"/>
      <point x="390" y="559"/>
      <point x="390" y="511" type="qcurve" smooth="yes"/>
      <point x="390" y="496"/>
      <point x="387" y="481" type="qcurve" smooth="yes"/>
      <point x="303" y="121" type="line" smooth="yes"/>
      <point x="296" y="93"/>
      <point x="296" y="66" type="qcurve" smooth="yes"/>
      <point x="296" y="2"/>
      <point x="361" y="2" type="qcurve" smooth="yes"/>
      <point x="394" y="2"/>
      <point x="446" y="14" type="qcurve"/>
      <point x="422" y="-152" type="line"/>
      <point x="410" y="-152"/>
      <point x="380" y="-154" type="qcurve" smooth="yes"/>
      <point x="349" y="-156"/>
    </contour>
  </outline>
</glyph>
<glyph name="sterling" format="2">
  <advance width="1200"/>
  <unicode hex="00A3"/>
  <outline>
    <contour>
      <point x="1063" y="0" type="line"/>
      <point x="23" y="0" type="line"/>
      <point x="68" y="197" type="line"/>
      <point x="236" y="273"/>
      <point x="391" y="473"/>
      <point x="391" y="610" type="qcurve"/>
      <point x="166" y="610" type="line"/>
      <point x="213" y="805" type="line"/>
      <point x="391" y="805" type="line"/>
      <point x="382" y="858"/>
      <point x="382" y="909" type="qcurve" smooth="yes"/>
      <point x="382" y="1048"/>
      <point x="506" y="1296"/>
      <point x="627" y="1374" type="qcurve"/>
      <point x="743" y="1446"/>
      <point x="891" y="1446" type="qcurve" smooth="yes"/>
      <point x="995" y="1446"/>
      <point x="1151" y="1356"/>
      <point x="1244" y="1210"/>
      <point x="1255" y="1124" type="qcurve"/>
      <point x="1057" y="1075" type="line"/>
      <point x="1043" y="1158"/>
      <point x="939" y="1241"/>
      <point x="870" y="1241" type="qcurve" smooth="yes"/>
      <point x="778" y="1241"/>
      <point x="648" y="1142"/>
      <point x="580" y="985"/>
      <point x="580" y="898" type="qcurve" smooth="yes"/>
      <point x="580" y="849"/>
      <point x="590" y="805" type="qcurve"/>
      <point x="1073" y="805" type="line"/>
      <point x="1026" y="610" type="line"/>
      <point x="590" y="610" type="line"/>
      <point x="590" y="487"/>
      <point x="493" y="244"/>
      <point x="393" y="201" type="qcurve"/>
      <point x="1110" y="205" type="line"/>
    </contour>
  </outline>
</glyph>
<glyph name="currency" format="2">
  <advance width="1176"/>
  <unicode hex="00A4"/>
  <outline>
    <contour>
      <point x="877" y="129" type="line"/>
      <point x="793" y="231" type="line"/>
      <point x="666" y="156"/>
      <point x="530" y="156" type="qcurve" smooth="yes"/>
      <point x="382" y="156"/>
      <point x="272" y="244" type="qcurve"/>
      <point x="135" y="129" type="line"/>
      <point x="33" y="264" type="line"/>
      <point x="170" y="377" type="line"/>
      <point x="136" y="449"/>
      <point x="136" y="539" type="qcurve" smooth="yes"/>
      <point x="136" y="629"/>
      <point x="210" y="818"/>
      <point x="287" y="901" type="qcurve"/>
      <point x="205" y="995" type="line"/>
      <point x="360" y="1130" type="line"/>
      <point x="442" y="1028" type="line"/>
      <point x="573" y="1105"/>
      <point x="709" y="1105" type="qcurve" smooth="yes"/>
      <point x="859" y="1105"/>
      <point x="963" y="1018" type="qcurve"/>
      <point x="1098" y="1128" type="line"/>
      <point x="1202" y="999" type="line"/>
      <point x="1067" y="887" type="line"/>
      <point x="1102" y="809"/>
      <point x="1102" y="721" type="qcurve" smooth="yes"/>
      <point x="1102" y="631"/>
      <point x="1027" y="442"/>
      <point x="950" y="358" type="qcurve"/>
      <point x="1034" y="264" type="line"/>
    </contour>
    <contour>
      <point x="545" y="344" type="qcurve" smooth="yes"/>
      <point x="635" y="344"/>
      <point x="836" y="459"/>
      <point x="894" y="565" type="qcurve"/>
      <point x="930" y="635"/>
      <point x="930" y="706" type="qcurve" smooth="yes"/>
      <point x="930" y="800"/>
      <point x="804" y="919"/>
      <point x="710" y="919" type="qcurve" smooth="yes"/>
      <point x="618" y="919"/>
      <point x="414" y="802"/>
      <point x="360" y="699" type="qcurve" smooth="yes"/>
      <point x="324" y="628"/>
      <point x="324" y="557" type="qcurve" smooth="yes"/>
      <point x="324" y="490"/>
      <point x="385" y="395"/>
      <point x="486" y="344"/>
    </contour>
  </outline>
</glyph>
<glyph name="yen" format="2">
  <advance width="1319"/>
  <unicode hex="00A5"/>
  <outline>
    <contour>
      <point x="649" y="0" type="line"/>
      <point x="440" y="0" type="line"/>
      <point x="485" y="195" type="line"/>
      <point x="186" y="195" type="line"/>
      <point x="227" y="379" type="line"/>
      <point x="526" y="379" type="line"/>
      <point x="555" y="496" type="line"/>
      <point x="256" y="496" type="line"/>
      <point x="299" y="682" type="line"/>
      <point x="514" y="682" type="line"/>
      <point x="209" y="1413" type="line"/>
      <point x="455" y="1413" type="line"/>
      <point x="711" y="743" type="line"/>
      <point x="1282" y="1413" type="line"/>
      <point x="1536" y="1413" type="line"/>
      <point x="895" y="680" type="line"/>
      <point x="1104" y="680" type="line"/>
      <point x="1063" y="496" type="line"/>
      <point x="764" y="496" type="line"/>
      <point x="735" y="379" type="line"/>
      <point x="1034" y="379" type="line"/>
      <point x="993" y="195" type="line"/>
      <point x="694" y="195" type="line"/>
    </contour>
  </outline>
</glyph>
<glyph name="brokenbar" format="2">
  <advance width="643"/>
  <unicode hex="00A6"/>
  <outline>
    <contour>
      <point x="475" y="731" type="line"/>
      <point x="274" y="731" type="line"/>
      <point x="446" y="1475" type="line"/>
      <point x="647" y="1475" type="line"/>
    </contour>
    <contour>
      <point x="236" y="-307" type="line"/>
      <point x="35" y="-307" type="line"/>
      <point x="203" y="420" type="line"/>
      <point x="403" y="420" type="line"/>
    </contour>
  </outline>
</glyph>
<glyph name="ordfeminine" format="2">
  <advance width="807"/>
  <unicode hex="00AA"/>
  <outline>
    <contour>
      <point x="381" y="709" type="qcurve" smooth="yes"/>
      <point x="291" y="709"/>
      <point x="169" y="809"/>
      <point x="169" y="894" type="qcurve" smooth="yes"/>
      <point x="169" y="922"/>
      <point x="176" y="950" type="qcurve" smooth="yes"/>
      <point x="199" y="1053"/>
      <point x="368" y="1147"/>
      <point x="494" y="1147" type="qcurve"/>
      <point x="696" y="1157" type="line"/>
      <point x="702" y="1186"/>
      <point x="702" y="1208" type="qcurve" smooth="yes"/>
      <point x="702" y="1256"/>
      <point x="645" y="1298"/>
      <point x="586" y="1298" type="qcurve" smooth="yes"/>
      <point x="478" y="1298"/>
      <point x="375" y="1182" type="qcurve"/>
      <point x="268" y="1280" type="line"/>
      <point x="344" y="1361"/>
      <point x="496" y="1434"/>
      <point x="596" y="1434" type="qcurve" smooth="yes"/>
      <point x="721" y="1434"/>
      <point x="845" y="1309"/>
      <point x="845" y="1214" type="qcurve" smooth="yes"/>
      <point x="845" y="1178"/>
      <point x="836" y="1139" type="qcurve" smooth="yes"/>
      <point x="739" y="723" type="line"/>
      <point x="606" y="723" type="line"/>
      <point x="625" y="799" type="line"/>
      <point x="529" y="709"/>
    </contour>
    <contour>
      <point x="414" y="846" type="qcurve" smooth="yes"/>
      <point x="469" y="846"/>
      <point x="572" y="899"/>
      <point x="649" y="980"/>
      <point x="666" y="1024" type="qcurve"/>
      <point x="485" y="1014" type="line"/>
      <point x="427" y="1014"/>
      <point x="382" y="985" type="qcurve" smooth="yes"/>
      <point x="332" y="953"/>
      <point x="325" y="897" type="qcurve"/>
      <point x="325" y="875"/>
      <point x="380" y="846"/>
    </contour>
  </outline>
</glyph>
<glyph name="guillemotleft" format="2">
  <advance width="954"/>
  <unicode hex="00AB"/>
  <outline>
    <contour>
      <point x="367" y="156" type="line"/>
      <point x="18" y="510" type="line"/>
      <point x="526" y="866" type="line"/>
      <point x="481" y="655" type="line"/>
      <point x="266" y="510" type="line"/>
      <point x="412" y="367" type="line"/>
    </contour>
    <contour>
      <point x="729" y="156" type="line"/>
      <point x="381" y="510" type="line"/>
      <point x="889" y="866" type="line"/>
      <point x="844" y="655" type="line"/>
      <point x="629" y="510" type="line"/>
      <point x="774" y="367" type="line"/>
    </contour>
  </outline>
</glyph>
<glyph name="sfthyphen" format="2">
  <advance width="1010"/>
  <unicode hex="00AD"/>
  <outline>
    <contour>
      <point x="870" y="508" type="line"/>
      <point x="143" y="508" type="line"/>
      <point x="186" y="692" type="line"/>
      <point x="913" y="692" type="line"/>
    </contour>
  </outline>
</glyph>
<glyph name="twosuperior" format="2">
  <advance width="812"/>
  <unicode hex="00B2"/>
  <outline>
    <contour>
      <point x="680" y="486" type="line"/>
      <point x="-41" y="486" type="line"/>
      <point x="-12" y="641" type="line"/>
      <point x="0" y="647" type="line" smooth="yes"/>
      <point x="243" y="776"/>
      <point x="394" y="897" type="qcurve"/>
      <point x="581" y="1025"/>
      <point x="614" y="1155" type="qcurve" smooth="yes"/>
      <point x="618" y="1173"/>
      <point x="618" y="1189" type="qcurve" smooth="yes"/>
      <point x="618" y="1270"/>
      <point x="518" y="1270" type="qcurve" smooth="yes"/>
      <point x="457" y="1270"/>
      <point x="369" y="1212"/>
      <point x="312" y="1122"/>
      <point x="297" y="1072" type="qcurve"/>
      <point x="138" y="1095" type="line"/>
      <point x="159" y="1184"/>
      <point x="270" y="1341"/>
      <point x="441" y="1441"/>
      <point x="548" y="1441" type="qcurve" smooth="yes"/>
      <point x="669" y="1441"/>
      <point x="807" y="1317"/>
      <point x="807" y="1221" type="qcurve" smooth="yes"/>
      <point x="807" y="1146"/>
      <point x="725" y="1000"/>
      <point x="583" y="854"/>
      <point x="489" y="780" type="qcurve"/>
      <point x="370" y="702"/>
      <point x="276" y="653" type="qcurve"/>
      <point x="720" y="658" type="line"/>
    </contour>
  </outline>
</glyph>
<glyph name="threesuperior" format="2">
  <advance width="837"/>
  <unicode hex="00B3"/>
  <outline>
    <contour>
      <point x="333" y="462" type="qcurve" smooth="yes"/>
      <point x="249" y="462"/>
      <point x="108" y="516"/>
      <point x="22" y="626"/>
      <point x="22" y="709" type="qcurve" smooth="yes"/>
      <point x="22" y="749"/>
      <point x="33" y="789" type="qcurve"/>
      <point x="212" y="785" type="line"/>
      <point x="207" y="767"/>
      <point x="207" y="748" type="qcurve" smooth="yes"/>
      <point x="207" y="692"/>
      <point x="291" y="638"/>
      <point x="355" y="638" type="qcurve" smooth="yes"/>
      <point x="438" y="638"/>
      <point x="569" y="716"/>
      <point x="588" y="785" type="qcurve" smooth="yes"/>
      <point x="592" y="801"/>
      <point x="592" y="813" type="qcurve" smooth="yes"/>
      <point x="592" y="858"/>
      <point x="511" y="900"/>
      <point x="446" y="900" type="qcurve" smooth="yes"/>
      <point x="345" y="900" type="line"/>
      <point x="381" y="1070" type="line"/>
      <point x="474" y="1070" type="line" smooth="yes"/>
      <point x="532" y="1070"/>
      <point x="618" y="1128"/>
      <point x="633" y="1185" type="qcurve" smooth="yes"/>
      <point x="636" y="1195"/>
      <point x="636" y="1205" type="qcurve" smooth="yes"/>
      <point x="636" y="1239"/>
      <point x="573" y="1274"/>
      <point x="524" y="1274" type="qcurve" smooth="yes"/>
      <point x="461" y="1274"/>
      <point x="356" y="1206"/>
      <point x="338" y="1146" type="qcurve"/>
      <point x="182" y="1168" type="line"/>
      <point x="217" y="1306"/>
      <point x="428" y="1452"/>
      <point x="554" y="1452" type="qcurve" smooth="yes"/>
      <point x="627" y="1452"/>
      <point x="748" y="1402"/>
      <point x="820" y="1305"/>
      <point x="820" y="1235" type="qcurve" smooth="yes"/>
      <point x="820" y="1172"/>
      <point x="746" y="1039"/>
      <point x="672" y="990" type="qcurve"/>
      <point x="769" y="936"/>
      <point x="769" y="818" type="qcurve" smooth="yes"/>
      <point x="769" y="762"/>
      <point x="723" y="640"/>
      <point x="675" y="590" type="qcurve"/>
      <point x="607" y="523"/>
      <point x="427" y="462"/>
    </contour>
  </outline>
</glyph>
<glyph name="mu" format="2">
  <advance width="1294"/>
  <unicode hex="00B5"/>
  <outline>
    <contour>
      <point x="248" y="-266" type="line"/>
      <point x="43" y="-266" type="line"/>
      <point x="334" y="999" type="line"/>
      <point x="561" y="999" type="line"/>
      <point x="422" y="393" type="line"/>
      <point x="411" y="340"/>
      <point x="411" y="305" type="qcurve" smooth="yes"/>
      <point x="411" y="248"/>
      <point x="469" y="188"/>
      <point x="532" y="188" type="qcurve" smooth="yes"/>
      <point x="611" y="188"/>
      <point x="754" y="267"/>
      <point x="853" y="388"/>
      <point x="868" y="453" type="qcurve" smooth="yes"/>
      <point x="993" y="999" type="line"/>
      <point x="1221" y="999" type="line"/>
      <point x="991" y="0" type="line"/>
      <point x="764" y="0" type="line"/>
      <point x="788" y="90" type="line"/>
      <point x="730" y="40"/>
      <point x="576" y="-23"/>
      <point x="492" y="-23" type="qcurve" smooth="yes"/>
      <point x="408" y="-23"/>
      <point x="336" y="12" type="qcurve"/>
    </contour>
  </outline>
</glyph>
<glyph name="cedilla" format="2">
  <advance width="551"/>
  <unicode hex="00B8"/>
  <anchor x="37" y="-500" name="b.uni0326_2"/>
  <outline>
    <contour>
      <point x="25" y="-522" type="qcurve" smooth="yes"/>
      <point x="-44" y="-522"/>
      <point x="-139" y="-441"/>
      <point x="-152" y="-383" type="qcurve"/>
      <point x="-10" y="-346" type="line"/>
      <point x="-5" y="-383"/>
      <point x="37" y="-383" type="qcurve" smooth="yes"/>
      <point x="80" y="-383"/>
      <point x="111" y="-354" type="qcurve" smooth="yes"/>
      <point x="149" y="-320"/>
      <point x="156" y="-269" type="qcurve"/>
      <point x="156" y="-237"/>
      <point x="85" y="-195"/>
      <point x="18" y="-195" type="qcurve" smooth="yes"/>
      <point x="-59" y="-195" type="line"/>
      <point x="100" y="-2" type="line"/>
      <point x="250" y="-2" type="line"/>
      <point x="141" y="-102" type="line"/>
      <point x="219" y="-113"/>
      <point x="295" y="-201"/>
      <point x="295" y="-264" type="qcurve" smooth="yes"/>
      <point x="295" y="-369"/>
      <point x="136" y="-522"/>
    </contour>
  </outline>
</glyph>
<glyph name="onesuperior" format="2">
  <advance width="855"/>
  <unicode hex="00B9"/>
  <outline>
    <contour>
      <point x="490" y="486" type="line"/>
      <point x="301" y="486" type="line"/>
      <point x="482" y="1160" type="line"/>
      <point x="246" y="1160" type="line"/>
      <point x="306" y="1305" type="line"/>
      <point x="416" y="1305" type="line" smooth="yes"/>
      <point x="461" y="1305"/>
      <point x="534" y="1356"/>
      <point x="547" y="1403" type="qcurve" smooth="yes"/>
      <point x="554" y="1428" type="line"/>
      <point x="743" y="1428" type="line"/>
    </contour>
  </outline>
</glyph>
<glyph name="ordmasculine" format="2">
  <advance width="844"/>
  <unicode hex="00BA"/>
  <outline>
    <contour>
      <point x="483" y="711" type="qcurve" smooth="yes"/>
      <point x="389" y="711"/>
      <point x="258" y="788"/>
      <point x="190" y="919"/>
      <point x="190" y="1000" type="qcurve" smooth="yes"/>
      <point x="190" y="1120"/>
      <point x="312" y="1317"/>
      <point x="510" y="1434"/>
      <point x="625" y="1434" type="qcurve" smooth="yes"/>
      <point x="718" y="1434"/>
      <point x="848" y="1357"/>
      <point x="916" y="1226"/>
      <point x="916" y="1146" type="qcurve" smooth="yes"/>
      <point x="916" y="1024"/>
      <point x="794" y="827"/>
      <point x="596" y="711"/>
    </contour>
    <contour>
      <point x="492" y="856" type="qcurve" smooth="yes"/>
      <point x="563" y="856"/>
      <point x="666" y="919"/>
      <point x="732" y="1027"/>
      <point x="748" y="1096" type="qcurve" smooth="yes"/>
      <point x="757" y="1131"/>
      <point x="757" y="1163" type="qcurve" smooth="yes"/>
      <point x="757" y="1220"/>
      <point x="690" y="1290"/>
      <point x="616" y="1290" type="qcurve" smooth="yes"/>
      <point x="545" y="1290"/>
      <point x="441" y="1227"/>
      <point x="374" y="1120"/>
      <point x="358" y="1051" type="qcurve" smooth="yes"/>
      <point x="350" y="1014"/>
      <point x="350" y="985" type="qcurve" smooth="yes"/>
      <point x="350" y="856"/>
    </contour>
  </outline>
</glyph>
<glyph name="Ccedilla" format="2">
  <advance width="1432"/>
  <unicode hex="00C7"/>
  <outline>
    <contour>
      <point x="519" y="-522" type="qcurve" smooth="yes"/>
      <point x="450" y="-522"/>
      <point x="355" y="-441"/>
      <point x="342" y="-383" type="qcurve"/>
      <point x="484" y="-346" type="line"/>
      <point x="489" y="-383"/>
      <point x="531" y="-383" type="qcurve" smooth="yes"/>
      <point x="574" y="-383"/>
      <point x="605" y="-354" type="qcurve" smooth="yes"/>
      <point x="643" y="-320"/>
      <point x="650" y="-269" type="qcurve"/>
      <point x="650" y="-237"/>
      <point x="579" y="-195"/>
      <point x="512" y="-195" type="qcurve" smooth="yes"/>
      <point x="435" y="-195" type="line"/>
      <point x="582" y="-17" type="line"/>
      <point x="420" y="-1"/>
      <point x="210" y="141"/>
      <point x="109" y="369"/>
      <point x="109" y="512" type="qcurve" smooth="yes"/>
      <point x="109" y="653"/>
      <point x="201" y="952"/>
      <point x="291" y="1084" type="qcurve" smooth="yes"/>
      <point x="401" y="1244"/>
      <point x="747" y="1436"/>
      <point x="967" y="1436" type="qcurve" smooth="yes"/>
      <point x="1182" y="1436"/>
      <point x="1468" y="1219"/>
      <point x="1501" y="1020" type="qcurve"/>
      <point x="1249" y="946" type="line"/>
      <point x="1243" y="1040"/>
      <point x="1162" y="1159"/>
      <point x="1024" y="1214"/>
      <point x="936" y="1214" type="qcurve" smooth="yes"/>
      <point x="786" y="1214"/>
      <point x="560" y="1073"/>
      <point x="412" y="838"/>
      <point x="379" y="694" type="qcurve" smooth="yes"/>
      <point x="359" y="606"/>
      <point x="359" y="532" type="qcurve" smooth="yes"/>
      <point x="359" y="387"/>
      <point x="519" y="221"/>
      <point x="688" y="221" type="qcurve" smooth="yes"/>
      <point x="838" y="221"/>
      <point x="1062" y="359"/>
      <point x="1145" y="494" type="qcurve"/>
      <point x="1358" y="377" type="line"/>
      <point x="1234" y="190"/>
      <point x="909" y="-3"/>
      <point x="727" y="-17" type="qcurve"/>
      <point x="635" y="-102" type="line"/>
      <point x="713" y="-113"/>
      <point x="789" y="-201"/>
      <point x="789" y="-264" type="qcurve" smooth="yes"/>
      <point x="789" y="-369"/>
      <point x="630" y="-522"/>
    </contour>
  </outline>
</glyph>
<glyph name="Eth" format="2">
  <advance width="1430"/>
  <unicode hex="00D0"/>
  <outline>
    <contour>
      <point x="494" y="0" type="qcurve" smooth="yes"/>
      <point x="90" y="0" type="line"/>
      <point x="233" y="621" type="line"/>
      <point x="121" y="621" type="line"/>
      <point x="162" y="805" type="line"/>
      <point x="274" y="805" type="line"/>
      <point x="416" y="1413" type="line"/>
      <point x="809" y="1413" type="line" smooth="yes"/>
      <point x="1101" y="1413"/>
      <point x="1418" y="1150"/>
      <point x="1418" y="897" type="qcurve" smooth="yes"/>
      <point x="1418" y="753"/>
      <point x="1319" y="436"/>
      <point x="1219" y="309" type="qcurve"/>
      <point x="1100" y="161"/>
      <point x="734" y="0"/>
    </contour>
    <contour>
      <point x="506" y="219" type="line" smooth="yes"/>
      <point x="668" y="219"/>
      <point x="938" y="327"/>
      <point x="1126" y="553"/>
      <point x="1167" y="729" type="qcurve" smooth="yes"/>
      <point x="1187" y="818"/>
      <point x="1187" y="887" type="qcurve" smooth="yes"/>
      <point x="1187" y="1049"/>
      <point x="974" y="1196"/>
      <point x="768" y="1196" type="qcurve" smooth="yes"/>
      <point x="598" y="1196" type="line"/>
      <point x="508" y="805" type="line"/>
      <point x="889" y="805" type="line"/>
      <point x="848" y="621" type="line"/>
      <point x="467" y="621" type="line"/>
      <point x="373" y="219" type="line"/>
    </contour>
  </outline>
</glyph>
<glyph name="Oslash" format="2">
  <advance width="1528"/>
  <unicode hex="00D8"/>
  <outline>
    <contour>
      <point x="657" y="-20" type="qcurve" smooth="yes"/>
      <point x="479" y="-20"/>
      <point x="353" y="46" type="qcurve"/>
      <point x="314" y="0" type="line"/>
      <point x="125" y="0" type="line"/>
      <point x="238" y="134" type="line"/>
      <point x="171" y="207"/>
      <point x="108" y="400"/>
      <point x="108" y="510" type="qcurve" smooth="yes"/>
      <point x="108" y="659"/>
      <point x="206" y="960"/>
      <point x="290" y="1083" type="qcurve" smooth="yes"/>
      <point x="400" y="1243"/>
      <point x="746" y="1434"/>
      <point x="967" y="1434" type="qcurve" smooth="yes"/>
      <point x="1146" y="1434"/>
      <point x="1271" y="1367" type="qcurve"/>
      <point x="1309" y="1413" type="line"/>
      <point x="1495" y="1413" type="line"/>
      <point x="1384" y="1281" type="line"/>
      <point x="1515" y="1138"/>
      <point x="1515" y="901" type="qcurve" smooth="yes"/>
      <point x="1515" y="760"/>
      <point x="1423" y="461"/>
      <point x="1334" y="331" type="qcurve" smooth="yes"/>
      <point x="1224" y="171"/>
      <point x="878" y="-20"/>
    </contour>
    <contour>
      <point x="410" y="340" type="qcurve"/>
      <point x="1109" y="1174" type="line"/>
      <point x="1041" y="1208"/>
      <point x="940" y="1208" type="qcurve" smooth="yes"/>
      <point x="792" y="1208"/>
      <point x="681" y="1138" type="qcurve"/>
      <point x="566" y="1063"/>
      <point x="425" y="828"/>
      <point x="393" y="684" type="qcurve"/>
      <point x="372" y="596"/>
      <point x="372" y="515" type="qcurve" smooth="yes"/>
      <point x="372" y="409"/>
    </contour>
    <contour>
      <point x="682" y="205" type="qcurve" smooth="yes"/>
      <point x="831" y="205"/>
      <point x="943" y="276" type="qcurve"/>
      <point x="1160" y="416"/>
      <point x="1231" y="729" type="qcurve"/>
      <point x="1252" y="818"/>
      <point x="1252" y="899" type="qcurve" smooth="yes"/>
      <point x="1252" y="1004"/>
      <point x="1213" y="1075" type="qcurve"/>
      <point x="514" y="239" type="line"/>
      <point x="582" y="205"/>
    </contour>
  </outline>
</glyph>
<glyph name="ae" format="2">
  <advance width="1677"/>
  <unicode hex="00E6"/>
  <outline>
    <contour>
      <point x="293" y="-20" type="qcurve" smooth="yes"/>
      <point x="209" y="-20"/>
      <point x="73" y="42"/>
      <point x="-7" y="158"/>
      <point x="-7" y="239" type="qcurve" smooth="yes"/>
      <point x="-7" y="276"/>
      <point x="2" y="315" type="qcurve" smooth="yes"/>
      <point x="37" y="465"/>
      <point x="274" y="593"/>
      <point x="461" y="596" type="qcurve"/>
      <point x="739" y="596" type="line"/>
      <point x="750" y="648"/>
      <point x="750" y="682" type="qcurve" smooth="yes"/>
      <point x="750" y="749"/>
      <point x="671" y="809"/>
      <point x="582" y="809" type="qcurve" smooth="yes"/>
      <point x="501" y="809"/>
      <point x="358" y="727"/>
      <point x="307" y="672" type="qcurve"/>
      <point x="160" y="815" type="line"/>
      <point x="261" y="920"/>
      <point x="483" y="1016"/>
      <point x="612" y="1016" type="qcurve" smooth="yes"/>
      <point x="730" y="1016"/>
      <point x="881" y="924"/>
      <point x="913" y="852" type="qcurve"/>
      <point x="1075" y="1012"/>
      <point x="1272" y="1012" type="qcurve" smooth="yes"/>
      <point x="1463" y="1012"/>
      <point x="1635" y="812"/>
      <point x="1635" y="653" type="qcurve" smooth="yes"/>
      <point x="1635" y="594"/>
      <point x="1609" y="444"/>
      <point x="1589" y="420" type="qcurve"/>
      <point x="899" y="420" type="line"/>
      <point x="898" y="391" type="line"/>
      <point x="898" y="215"/>
      <point x="1085" y="215" type="qcurve" smooth="yes"/>
      <point x="1174" y="215"/>
      <point x="1304" y="263"/>
      <point x="1362" y="315" type="qcurve"/>
      <point x="1505" y="152" type="line"/>
      <point x="1321" y="-12"/>
      <point x="1061" y="-12" type="qcurve" smooth="yes"/>
      <point x="932" y="-12"/>
      <point x="775" y="77"/>
      <point x="743" y="152" type="qcurve"/>
      <point x="552" y="-20"/>
    </contour>
    <contour>
      <point x="1405" y="596" type="line"/>
      <point x="1407" y="636" type="line"/>
      <point x="1407" y="727"/>
      <point x="1319" y="807"/>
      <point x="1231" y="807" type="qcurve" smooth="yes"/>
      <point x="1160" y="807"/>
      <point x="1049" y="750"/>
      <point x="969" y="655"/>
      <point x="944" y="596" type="qcurve"/>
    </contour>
    <contour>
      <point x="352" y="180" type="qcurve" smooth="yes"/>
      <point x="428" y="180"/>
      <point x="571" y="255"/>
      <point x="675" y="365"/>
      <point x="698" y="420" type="qcurve"/>
      <point x="446" y="420" type="line"/>
      <point x="356" y="417"/>
      <point x="296" y="375" type="qcurve" smooth="yes"/>
      <point x="226" y="325"/>
      <point x="219" y="252" type="qcurve"/>
      <point x="219" y="214"/>
      <point x="292" y="180"/>
    </contour>
  </outline>
</glyph>
<glyph name="divide" format="2">
  <advance width="1266"/>
  <unicode hex="00F7"/>
  <outline>
    <contour>
      <point x="766" y="834" type="line"/>
      <point x="500" y="834" type="line"/>
      <point x="500" y="1098" type="line"/>
      <point x="766" y="1098" type="line"/>
    </contour>
    <contour>
      <point x="1182" y="537" type="line"/>
      <point x="84" y="537" type="line"/>
      <point x="84" y="721" type="line"/>
      <point x="1182" y="721" type="line"/>
    </contour>
    <contour>
      <point x="766" y="143" type="line"/>
      <point x="500" y="143" type="line"/>
      <point x="500" y="408" type="line"/>
      <point x="766" y="408" type="line"/>
    </contour>
  </outline>
</glyph>
<glyph name="Hbar" format="2">
  <advance width="1491"/>
  <unicode hex="0126"/>
  <outline>
    <contour>
      <point x="1194" y="0" type="line"/>
      <point x="940" y="0" type="line"/>
      <point x="1075" y="590" type="line"/>
      <point x="457" y="590" type="line"/>
      <point x="322" y="0" type="line"/>
      <point x="68" y="0" type="line"/>
      <point x="308" y="1043" type="line"/>
      <point x="205" y="1043" type="line"/>
      <point x="238" y="1186" type="line"/>
      <point x="341" y="1186" type="line"/>
      <point x="393" y="1413" type="line"/>
      <point x="647" y="1413" type="line"/>
      <point x="594" y="1186" type="line"/>
      <point x="1213" y="1186" type="line"/>
      <point x="1266" y="1413" type="line"/>
      <point x="1520" y="1413" type="line"/>
      <point x="1468" y="1186" type="line"/>
      <point x="1569" y="1186" type="line"/>
      <point x="1536" y="1043" type="line"/>
      <point x="1435" y="1043" type="line"/>
    </contour>
    <contour>
      <point x="1128" y="823" type="line"/>
      <point x="1179" y="1043" type="line"/>
      <point x="561" y="1043" type="line"/>
      <point x="510" y="823" type="line"/>
    </contour>
  </outline>
</glyph>
<glyph name="Iogonek" format="2">
  <advance width="618"/>
  <unicode hex="012E"/>
  <outline>
    <contour>
      <point x="100" y="-451" type="qcurve" smooth="yes"/>
      <point x="15" y="-451"/>
      <point x="-93" y="-359"/>
      <point x="-93" y="-278" type="qcurve" smooth="yes"/>
      <point x="-93" y="-256"/>
      <point x="-86" y="-223" type="qcurve" smooth="yes"/>
      <point x="-67" y="-140"/>
      <point x="61" y="-28"/>
      <point x="117" y="0" type="qcurve"/>
      <point x="68" y="0" type="line"/>
      <point x="393" y="1413" type="line"/>
      <point x="647" y="1413" type="line"/>
      <point x="322" y="0" type="line"/>
      <point x="226" y="0" type="line"/>
      <point x="326" y="-4" type="line"/>
      <point x="300" y="-11"/>
      <point x="189" y="-69"/>
      <point x="129" y="-121" type="qcurve" smooth="yes"/>
      <point x="72" y="-172"/>
      <point x="57" y="-236" type="qcurve"/>
      <point x="53" y="-263" type="line"/>
      <point x="53" y="-285"/>
      <point x="78" y="-301"/>
      <point x="102" y="-301" type="qcurve" smooth="yes"/>
      <point x="168" y="-301"/>
      <point x="229" y="-236" type="qcurve"/>
      <point x="336" y="-338" type="line"/>
      <point x="236" y="-451"/>
    </contour>
  </outline>
</glyph>
<glyph name="iogonek" format="2">
  <advance width="516"/>
  <unicode hex="012F"/>
  <outline>
    <contour>
      <point x="545" y="1188" type="line"/>
      <point x="289" y="1188" type="line"/>
      <point x="340" y="1413" type="line"/>
      <point x="596" y="1413" type="line"/>
    </contour>
    <contour>
      <point x="34" y="-451" type="qcurve" smooth="yes"/>
      <point x="-51" y="-451"/>
      <point x="-159" y="-359"/>
      <point x="-159" y="-278" type="qcurve" smooth="yes"/>
      <point x="-159" y="-256"/>
      <point x="-152" y="-223" type="qcurve" smooth="yes"/>
      <point x="-133" y="-140"/>
      <point x="-5" y="-28"/>
      <point x="51" y="0" type="qcurve"/>
      <point x="31" y="0" type="line"/>
      <point x="260" y="999" type="line"/>
      <point x="485" y="999" type="line"/>
      <point x="256" y="0" type="line"/>
      <point x="160" y="0" type="line"/>
      <point x="260" y="-4" type="line"/>
      <point x="234" y="-11"/>
      <point x="123" y="-69"/>
      <point x="63" y="-121" type="qcurve" smooth="yes"/>
      <point x="6" y="-172"/>
      <point x="-9" y="-236" type="qcurve"/>
      <point x="-13" y="-263" type="line"/>
      <point x="-13" y="-285"/>
      <point x="12" y="-301"/>
      <point x="36" y="-301" type="qcurve" smooth="yes"/>
      <point x="102" y="-301"/>
      <point x="163" y="-236" type="qcurve"/>
      <point x="270" y="-338" type="line"/>
      <point x="170" y="-451"/>
    </contour>
  </outline>
</glyph>
<glyph name="kgreenlandic" format="2">
  <advance width="1116"/>
  <unicode hex="0138"/>
  <outline>
    <contour>
      <point x="1006" y="0" type="line"/>
      <point x="723" y="0" type="line"/>
      <point x="539" y="463" type="line"/>
      <point x="344" y="293" type="line"/>
      <point x="274" y="0" type="line"/>
      <point x="31" y="0" type="line"/>
      <point x="260" y="999" type="line"/>
      <point x="504" y="999" type="line"/>
      <point x="406" y="584" type="line"/>
      <point x="879" y="999" type="line"/>
      <point x="1200" y="999" type="line"/>
      <point x="735" y="612" type="line"/>
    </contour>
  </outline>
</glyph>
<glyph name="Lslash" format="2">
  <advance width="1087"/>
  <unicode hex="0141"/>
  <outline>
    <contour>
      <point x="951" y="0" type="line"/>
      <point x="93" y="0" type="line"/>
      <point x="190" y="423" type="line"/>
      <point x="-10" y="291" type="line"/>
      <point x="59" y="551" type="line"/>
      <point x="248" y="676" type="line"/>
      <point x="418" y="1413" type="line"/>
      <point x="672" y="1413" type="line"/>
      <point x="548" y="872" type="line"/>
      <point x="813" y="1047" type="line"/>
      <point x="743" y="788" type="line"/>
      <point x="490" y="621" type="line"/>
      <point x="402" y="240" type="line"/>
      <point x="1006" y="240" type="line"/>
    </contour>
  </outline>
</glyph>
<glyph name="OE" format="2">
  <advance width="2255"/>
  <unicode hex="0152"/>
  <outline>
    <contour>
      <point x="657" y="-20" type="qcurve" smooth="yes"/>
      <point x="469" y="-20"/>
      <point x="226" y="118"/>
      <point x="108" y="357"/>
      <point x="108" y="510" type="qcurve" smooth="yes"/>
      <point x="108" y="644"/>
      <point x="198" y="947"/>
      <point x="290" y="1083" type="qcurve" smooth="yes"/>
      <point x="400" y="1243"/>
      <point x="746" y="1434"/>
      <point x="967" y="1434" type="qcurve" smooth="yes"/>
      <point x="1114" y="1434"/>
      <point x="1310" y="1338"/>
      <point x="1362" y="1257" type="qcurve"/>
      <point x="1403" y="1413" type="line"/>
      <point x="2343" y="1413" type="line"/>
      <point x="2290" y="1180" type="line"/>
      <point x="1604" y="1180" type="line"/>
      <point x="1520" y="823" type="line"/>
      <point x="2159" y="823" type="line"/>
      <point x="2105" y="590" type="line"/>
      <point x="1466" y="590" type="line"/>
      <point x="1386" y="240" type="line"/>
      <point x="2073" y="240" type="line"/>
      <point x="2017" y="0" type="line"/>
      <point x="1077" y="0" type="line"/>
      <point x="1114" y="139" type="line"/>
      <point x="928" y="-20"/>
    </contour>
    <contour>
      <point x="686" y="219" type="qcurve" smooth="yes"/>
      <point x="838" y="219"/>
      <point x="1065" y="355"/>
      <point x="1212" y="585"/>
      <point x="1245" y="729" type="qcurve" smooth="yes"/>
      <point x="1264" y="808"/>
      <point x="1264" y="883" type="qcurve" smooth="yes"/>
      <point x="1264" y="1026"/>
      <point x="1105" y="1194"/>
      <point x="938" y="1194" type="qcurve" smooth="yes"/>
      <point x="786" y="1194"/>
      <point x="559" y="1059"/>
      <point x="412" y="829"/>
      <point x="379" y="684" type="qcurve"/>
      <point x="359" y="601"/>
      <point x="359" y="529" type="qcurve" smooth="yes"/>
      <point x="359" y="386"/>
      <point x="518" y="219"/>
    </contour>
  </outline>
</glyph>
<glyph name="Scedilla" format="2">
  <advance width="1137"/>
  <unicode hex="015E"/>
  <outline>
    <contour>
      <point x="300" y="-522" type="qcurve" smooth="yes"/>
      <point x="231" y="-522"/>
      <point x="136" y="-441"/>
      <point x="123" y="-383" type="qcurve"/>
      <point x="265" y="-346" type="line"/>
      <point x="270" y="-383"/>
      <point x="312" y="-383" type="qcurve" smooth="yes"/>
      <point x="355" y="-383"/>
      <point x="386" y="-354" type="qcurve" smooth="yes"/>
      <point x="424" y="-320"/>
      <point x="431" y="-269" type="qcurve"/>
      <point x="431" y="-237"/>
      <point x="360" y="-195"/>
      <point x="293" y="-195" type="qcurve" smooth="yes"/>
      <point x="216" y="-195" type="line"/>
      <point x="375" y="-2" type="line"/>
      <point x="382" y="-2" type="line"/>
      <point x="283" y="19"/>
      <point x="122" y="123"/>
      <point x="25" y="292"/>
      <point x="25" y="410" type="qcurve"/>
      <point x="285" y="453" type="line"/>
      <point x="285" y="373"/>
      <point x="354" y="269"/>
      <point x="475" y="219"/>
      <point x="551" y="219" type="qcurve" smooth="yes"/>
      <point x="661" y="219"/>
      <point x="805" y="322"/>
      <point x="805" y="422" type="qcurve" smooth="yes"/>
      <point x="805" y="487"/>
      <point x="773" y="533" type="qcurve" smooth="yes"/>
      <point x="743" y="575"/>
      <point x="645" y="642"/>
      <point x="559" y="685" type="qcurve" smooth="yes"/>
      <point x="459" y="734"/>
      <point x="339" y="820"/>
      <point x="300" y="881" type="qcurve" smooth="yes"/>
      <point x="258" y="947"/>
      <point x="258" y="1044" type="qcurve" smooth="yes"/>
      <point x="258" y="1165"/>
      <point x="384" y="1340"/>
      <point x="595" y="1434"/>
      <point x="723" y="1434" type="qcurve" smooth="yes"/>
      <point x="870" y="1434"/>
      <point x="1116" y="1305"/>
      <point x="1163" y="1176" type="qcurve"/>
      <point x="944" y="1071" type="line"/>
      <point x="922" y="1142"/>
      <point x="796" y="1219"/>
      <point x="721" y="1219" type="qcurve" smooth="yes"/>
      <point x="669" y="1219"/>
      <point x="576" y="1181"/>
      <point x="518" y="1109"/>
      <point x="518" y="1057" type="qcurve" smooth="yes"/>
      <point x="518" y="1007"/>
      <point x="576" y="931"/>
      <point x="661" y="876"/>
      <point x="739" y="834" type="qcurve" smooth="yes"/>
      <point x="843" y="778"/>
      <point x="973" y="686"/>
      <point x="1065" y="537"/>
      <point x="1065" y="432" type="qcurve" smooth="yes"/>
      <point x="1065" y="294"/>
      <point x="915" y="93"/>
      <point x="668" y="-16"/>
      <point x="522" y="-16" type="qcurve" smooth="yes"/>
      <point x="510" y="-16" type="line"/>
      <point x="416" y="-102" type="line"/>
      <point x="494" y="-113"/>
      <point x="570" y="-201"/>
      <point x="570" y="-264" type="qcurve" smooth="yes"/>
      <point x="570" y="-369"/>
      <point x="411" y="-522"/>
    </contour>
  </outline>
</glyph>
<glyph name="scedilla" format="2">
  <advance width="907"/>
  <unicode hex="015F"/>
  <outline>
    <contour>
      <point x="232" y="-522" type="qcurve" smooth="yes"/>
      <point x="163" y="-522"/>
      <point x="68" y="-441"/>
      <point x="55" y="-383" type="qcurve"/>
      <point x="197" y="-346" type="line"/>
      <point x="202" y="-383"/>
      <point x="244" y="-383" type="qcurve" smooth="yes"/>
      <point x="287" y="-383"/>
      <point x="318" y="-354" type="qcurve" smooth="yes"/>
      <point x="356" y="-320"/>
      <point x="363" y="-269" type="qcurve"/>
      <point x="363" y="-237"/>
      <point x="292" y="-195"/>
      <point x="225" y="-195" type="qcurve" smooth="yes"/>
      <point x="148" y="-195" type="line"/>
      <point x="297" y="-15" type="line"/>
      <point x="153" y="8"/>
      <point x="-9" y="169"/>
      <point x="-18" y="270" type="qcurve"/>
      <point x="186" y="336" type="line"/>
      <point x="196" y="273"/>
      <point x="288" y="182"/>
      <point x="375" y="182" type="qcurve" smooth="yes"/>
      <point x="434" y="182"/>
      <point x="517" y="224"/>
      <point x="561" y="289"/>
      <point x="561" y="322" type="qcurve" smooth="yes"/>
      <point x="561" y="381"/>
      <point x="488" y="410" type="qcurve" smooth="yes"/>
      <point x="456" y="423"/>
      <point x="400" y="440" type="qcurve" smooth="yes"/>
      <point x="317" y="464"/>
      <point x="266" y="490" type="qcurve" smooth="yes"/>
      <point x="145" y="551"/>
      <point x="145" y="690" type="qcurve" smooth="yes"/>
      <point x="145" y="791"/>
      <point x="254" y="936"/>
      <point x="436" y="1014"/>
      <point x="545" y="1014" type="qcurve" smooth="yes"/>
      <point x="673" y="1014"/>
      <point x="877" y="903"/>
      <point x="915" y="793" type="qcurve"/>
      <point x="713" y="711" type="line"/>
      <point x="698" y="763"/>
      <point x="610" y="827"/>
      <point x="537" y="827" type="qcurve" smooth="yes"/>
      <point x="467" y="827"/>
      <point x="385" y="768"/>
      <point x="385" y="725" type="qcurve" smooth="yes"/>
      <point x="385" y="693"/>
      <point x="425" y="652"/>
      <point x="486" y="626"/>
      <point x="542" y="607" type="qcurve" smooth="yes"/>
      <point x="626" y="580"/>
      <point x="731" y="522"/>
      <point x="766" y="475" type="qcurve" smooth="yes"/>
      <point x="803" y="423"/>
      <point x="803" y="340" type="qcurve" smooth="yes"/>
      <point x="803" y="246"/>
      <point x="707" y="94"/>
      <point x="545" y="-3"/>
      <point x="442" y="-16" type="qcurve"/>
      <point x="348" y="-102" type="line"/>
      <point x="426" y="-113"/>
      <point x="502" y="-201"/>
      <point x="502" y="-264" type="qcurve" smooth="yes"/>
      <point x="502" y="-369"/>
      <point x="343" y="-522"/>
    </contour>
  </outline>
</glyph>
<glyph name="tcedilla" format="2">
  <advance width="760"/>
  <unicode hex="0163"/>
  <outline>
    <contour>
      <point x="230" y="-522" type="qcurve" smooth="yes"/>
      <point x="161" y="-522"/>
      <point x="66" y="-441"/>
      <point x="53" y="-383" type="qcurve"/>
      <point x="195" y="-346" type="line"/>
      <point x="200" y="-383"/>
      <point x="242" y="-383" type="qcurve" smooth="yes"/>
      <point x="285" y="-383"/>
      <point x="316" y="-354" type="qcurve" smooth="yes"/>
      <point x="354" y="-320"/>
      <point x="361" y="-269" type="qcurve"/>
      <point x="361" y="-237"/>
      <point x="290" y="-195"/>
      <point x="223" y="-195" type="qcurve" smooth="yes"/>
      <point x="146" y="-195" type="line"/>
      <point x="299" y="-9" type="line"/>
      <point x="213" y="13"/>
      <point x="129" y="126"/>
      <point x="129" y="204" type="qcurve" smooth="yes"/>
      <point x="129" y="246"/>
      <point x="139" y="287" type="qcurve" smooth="yes"/>
      <point x="256" y="795" type="line"/>
      <point x="94" y="795" type="line"/>
      <point x="141" y="999" type="line"/>
      <point x="307" y="999" type="line"/>
      <point x="362" y="1247" type="line"/>
      <point x="633" y="1421" type="line"/>
      <point x="537" y="999" type="line"/>
      <point x="797" y="999" type="line"/>
      <point x="750" y="795" type="line"/>
      <point x="489" y="795" type="line"/>
      <point x="377" y="309" type="line" smooth="yes"/>
      <point x="371" y="284"/>
      <point x="371" y="265" type="qcurve" smooth="yes"/>
      <point x="371" y="226"/>
      <point x="417" y="195"/>
      <point x="459" y="195" type="qcurve" smooth="yes"/>
      <point x="533" y="195"/>
      <point x="614" y="236" type="qcurve"/>
      <point x="573" y="6" type="line"/>
      <point x="519" y="-12"/>
      <point x="437" y="-18" type="qcurve"/>
      <point x="346" y="-102" type="line"/>
      <point x="424" y="-113"/>
      <point x="500" y="-201"/>
      <point x="500" y="-264" type="qcurve" smooth="yes"/>
      <point x="500" y="-369"/>
      <point x="341" y="-522"/>
    </contour>
  </outline>
</glyph>
<glyph name="tcaron" format="2">
  <advance width="760"/>
  <unicode hex="0165"/>
  <outline>
    <contour>
      <point x="825" y="1145" type="line"/>
      <point x="680" y="1145" type="line"/>
      <point x="920" y="1599" type="line"/>
      <point x="1178" y="1599" type="line"/>
    </contour>
    <contour>
      <point x="373" y="-20" type="qcurve" smooth="yes"/>
      <point x="287" y="-20"/>
      <point x="179" y="37"/>
      <point x="128" y="136"/>
      <point x="128" y="199" type="qcurve" smooth="yes"/>
      <point x="128" y="238"/>
      <point x="139" y="287" type="qcurve" smooth="yes"/>
      <point x="252" y="778" type="line"/>
      <point x="90" y="778" type="line"/>
      <point x="141" y="999" type="line"/>
      <point x="307" y="999" type="line"/>
      <point x="362" y="1247" type="line"/>
      <point x="633" y="1421" type="line"/>
      <point x="537" y="999" type="line"/>
      <point x="797" y="999" type="line"/>
      <point x="745" y="778" type="line"/>
      <point x="485" y="778" type="line"/>
      <point x="369" y="268" type="line"/>
      <point x="365" y="253"/>
      <point x="365" y="239" type="qcurve" smooth="yes"/>
      <point x="365" y="213"/>
      <point x="397" y="197"/>
      <point x="430" y="197" type="qcurve" smooth="yes"/>
      <point x="485" y="197"/>
      <point x="569" y="217"/>
      <point x="616" y="237"/>
      <point x="616" y="238" type="qcurve"/>
      <point x="571" y="20" type="line"/>
      <point x="571" y="19"/>
      <point x="523" y="-1"/>
      <point x="434" y="-20"/>
    </contour>
  </outline>
</glyph>
<glyph name="Tbar" format="2">
  <advance width="1180"/>
  <unicode hex="0166"/>
  <outline>
    <contour>
      <point x="602" y="0" type="line"/>
      <point x="348" y="0" type="line"/>
      <point x="492" y="625" type="line"/>
      <point x="301" y="625" type="line"/>
      <point x="338" y="789" type="line"/>
      <point x="530" y="789" type="line"/>
      <point x="621" y="1186" type="line"/>
      <point x="178" y="1186" type="line"/>
      <point x="231" y="1413" type="line"/>
      <point x="1370" y="1413" type="line"/>
      <point x="1317" y="1186" type="line"/>
      <point x="874" y="1186" type="line"/>
      <point x="783" y="789" type="line"/>
      <point x="973" y="789" type="line"/>
      <point x="936" y="625" type="line"/>
      <point x="745" y="625" type="line"/>
    </contour>
  </outline>
</glyph>
<glyph name="tbar" format="2">
  <advance width="760"/>
  <unicode hex="0167"/>
  <outline>
    <contour>
      <point x="395" y="-20" type="qcurve" smooth="yes"/>
      <point x="265" y="-20"/>
      <point x="129" y="103"/>
      <point x="129" y="205" type="qcurve" smooth="yes"/>
      <point x="129" y="246"/>
      <point x="139" y="287" type="qcurve" smooth="yes"/>
      <point x="169" y="418" type="line"/>
      <point x="24" y="418" type="line"/>
      <point x="61" y="582" type="line"/>
      <point x="207" y="582" type="line"/>
      <point x="256" y="795" type="line"/>
      <point x="94" y="795" type="line"/>
      <point x="141" y="999" type="line"/>
      <point x="307" y="999" type="line"/>
      <point x="362" y="1247" type="line"/>
      <point x="633" y="1421" type="line"/>
      <point x="537" y="999" type="line"/>
      <point x="797" y="999" type="line"/>
      <point x="750" y="795" type="line"/>
      <point x="489" y="795" type="line"/>
      <point x="440" y="582" type="line"/>
      <point x="696" y="582" type="line"/>
      <point x="659" y="418" type="line"/>
      <point x="402" y="418" type="line"/>
      <point x="377" y="309" type="line" smooth="yes"/>
      <point x="371" y="284"/>
      <point x="371" y="265" type="qcurve" smooth="yes"/>
      <point x="371" y="226"/>
      <point x="417" y="195"/>
      <point x="459" y="195" type="qcurve" smooth="yes"/>
      <point x="533" y="195"/>
      <point x="614" y="236" type="qcurve"/>
      <point x="573" y="6" type="line"/>
      <point x="542" y="-5"/>
      <point x="441" y="-20"/>
    </contour>
  </outline>
</glyph>
<glyph name="Uogonek" format="2">
  <advance width="1380"/>
  <unicode hex="0172"/>
  <outline>
    <contour>
      <point x="671" y="-400" type="qcurve" smooth="yes"/>
      <point x="586" y="-400"/>
      <point x="478" y="-308"/>
      <point x="478" y="-227" type="qcurve" smooth="yes"/>
      <point x="478" y="-112"/>
      <point x="583" y="-20" type="qcurve"/>
      <point x="428" y="-20"/>
      <point x="232" y="76"/>
      <point x="140" y="251"/>
      <point x="140" y="370" type="qcurve" smooth="yes"/>
      <point x="140" y="459"/>
      <point x="164" y="561" type="qcurve" smooth="yes"/>
      <point x="360" y="1413" type="line"/>
      <point x="614" y="1413" type="line"/>
      <point x="420" y="569" type="line"/>
      <point x="397" y="472"/>
      <point x="397" y="405" type="qcurve" smooth="yes"/>
      <point x="397" y="309"/>
      <point x="503" y="225"/>
      <point x="614" y="225" type="qcurve" smooth="yes"/>
      <point x="781" y="225"/>
      <point x="958" y="408"/>
      <point x="997" y="590" type="qcurve"/>
      <point x="1188" y="1413" type="line"/>
      <point x="1442" y="1413" type="line"/>
      <point x="1243" y="551" type="line" smooth="yes"/>
      <point x="1146" y="130"/>
      <point x="831" y="19" type="qcurve"/>
      <point x="654" y="-73"/>
      <point x="628" y="-185" type="qcurve"/>
      <point x="624" y="-212" type="line"/>
      <point x="624" y="-234"/>
      <point x="649" y="-250"/>
      <point x="673" y="-250" type="qcurve" smooth="yes"/>
      <point x="739" y="-250"/>
      <point x="800" y="-185" type="qcurve"/>
      <point x="907" y="-287" type="line"/>
      <point x="807" y="-400"/>
    </contour>
  </outline>
</glyph>
<glyph name="uogonek" format="2">
  <advance width="1167"/>
  <unicode hex="0173"/>
  <outline>
    <contour>
      <point x="685" y="-451" type="qcurve" smooth="yes"/>
      <point x="600" y="-451"/>
      <point x="492" y="-359"/>
      <point x="492" y="-278" type="qcurve" smooth="yes"/>
      <point x="492" y="-256"/>
      <point x="499" y="-223" type="qcurve" smooth="yes"/>
      <point x="518" y="-140"/>
      <point x="646" y="-28"/>
      <point x="702" y="0" type="qcurve"/>
      <point x="666" y="0" type="line"/>
      <point x="688" y="109" type="line"/>
      <point x="618" y="39"/>
      <point x="456" y="-23"/>
      <point x="377" y="-23" type="qcurve" smooth="yes"/>
      <point x="226" y="-23"/>
      <point x="81" y="153"/>
      <point x="81" y="290" type="qcurve" smooth="yes"/>
      <point x="81" y="356"/>
      <point x="96" y="422" type="qcurve" smooth="yes"/>
      <point x="229" y="999" type="line"/>
      <point x="477" y="999" type="line"/>
      <point x="342" y="414" type="line" smooth="yes"/>
      <point x="329" y="357"/>
      <point x="329" y="320" type="qcurve" smooth="yes"/>
      <point x="329" y="209"/>
      <point x="454" y="209" type="qcurve" smooth="yes"/>
      <point x="463" y="209" type="line" smooth="yes"/>
      <point x="569" y="209"/>
      <point x="739" y="348"/>
      <point x="778" y="518" type="qcurve" smooth="yes"/>
      <point x="889" y="999" type="line"/>
      <point x="1137" y="999" type="line"/>
      <point x="907" y="0" type="line"/>
      <point x="811" y="0" type="line"/>
      <point x="911" y="-4" type="line"/>
      <point x="885" y="-11"/>
      <point x="774" y="-69"/>
      <point x="657" y="-172"/>
      <point x="642" y="-236" type="qcurve"/>
      <point x="638" y="-263" type="line"/>
      <point x="638" y="-285"/>
      <point x="663" y="-301"/>
      <point x="687" y="-301" type="qcurve" smooth="yes"/>
      <point x="753" y="-301"/>
      <point x="814" y="-236" type="qcurve"/>
      <point x="921" y="-338" type="line"/>
      <point x="821" y="-451"/>
    </contour>
  </outline>
</glyph>
<glyph name="longs" format="2">
  <advance width="688"/>
  <unicode hex="017F"/>
  <outline>
    <contour>
      <point x="340" y="0" type="line"/>
      <point x="88" y="0" type="line"/>
      <point x="270" y="795" type="line"/>
      <point x="88" y="795" type="line"/>
      <point x="135" y="997" type="line"/>
      <point x="319" y="997" type="line"/>
      <point x="354" y="1143" type="line" smooth="yes"/>
      <point x="387" y="1282"/>
      <point x="572" y="1434"/>
      <point x="729" y="1434" type="qcurve" smooth="yes"/>
      <point x="813" y="1434"/>
      <point x="905" y="1389" type="qcurve"/>
      <point x="784" y="1202" type="line"/>
      <point x="749" y="1225"/>
      <point x="709" y="1225" type="qcurve" smooth="yes"/>
      <point x="670" y="1225"/>
      <point x="611" y="1170"/>
      <point x="598" y="1118" type="qcurve"/>
    </contour>
  </outline>
</glyph>
<glyph name="clickretroflex" format="2">
  <advance width="520"/>
  <unicode hex="01C3"/>
  <outline>
    <contour>
      <point x="336" y="428" type="line"/>
      <point x="152" y="428" type="line"/>
      <point x="354" y="1434" type="line"/>
      <point x="596" y="1434" type="line"/>
    </contour>
    <contour>
      <point x="279" y="0" type="line"/>
      <point x="12" y="0" type="line"/>
      <point x="72" y="264" type="line"/>
      <point x="338" y="264" type="line"/>
    </contour>
  </outline>
</glyph>
<glyph name="aemacron" format="2">
  <advance width="1694"/>
  <unicode hex="01E3"/>
  <outline>
    <contour>
      <point x="1278" y="1147" type="line"/>
      <point x="719" y="1147" type="line"/>
      <point x="752" y="1290" type="line"/>
      <point x="1311" y="1290" type="line"/>
    </contour>
    <contour>
      <point x="326" y="-20" type="qcurve" smooth="yes"/>
      <point x="174" y="-20"/>
      <point x="9" y="124"/>
      <point x="9" y="238" type="qcurve" smooth="yes"/>
      <point x="9" y="275"/>
      <point x="18" y="315" type="qcurve" smooth="yes"/>
      <point x="82" y="596"/>
      <point x="477" y="596" type="qcurve" smooth="yes"/>
      <point x="756" y="596" type="line"/>
      <point x="766" y="640"/>
      <point x="766" y="678" type="qcurve" smooth="yes"/>
      <point x="766" y="809"/>
      <point x="618" y="809" type="qcurve" smooth="yes"/>
      <point x="525" y="809"/>
      <point x="384" y="737"/>
      <point x="324" y="672" type="qcurve"/>
      <point x="176" y="815" type="line"/>
      <point x="365" y="1016"/>
      <point x="621" y="1016" type="qcurve" smooth="yes"/>
      <point x="852" y="1016"/>
      <point x="930" y="852" type="qcurve"/>
      <point x="1016" y="938"/>
      <point x="1194" y="1012"/>
      <point x="1303" y="1012" type="qcurve" smooth="yes"/>
      <point x="1497" y="1012"/>
      <point x="1645" y="820"/>
      <point x="1645" y="666" type="qcurve" smooth="yes"/>
      <point x="1645" y="594"/>
      <point x="1628" y="473" type="qcurve" smooth="yes"/>
      <point x="1625" y="452"/>
      <point x="1606" y="420" type="qcurve"/>
      <point x="915" y="420" type="line"/>
      <point x="914" y="392" type="line"/>
      <point x="914" y="302"/>
      <point x="1007" y="215"/>
      <point x="1110" y="215" type="qcurve" smooth="yes"/>
      <point x="1268" y="215"/>
      <point x="1378" y="315" type="qcurve"/>
      <point x="1522" y="152" type="line"/>
      <point x="1329" y="-12"/>
      <point x="1085" y="-12" type="qcurve" smooth="yes"/>
      <point x="832" y="-12"/>
      <point x="760" y="152" type="qcurve"/>
      <point x="675" y="74"/>
      <point x="449" y="-20"/>
    </contour>
    <contour>
      <point x="1421" y="596" type="line"/>
      <point x="1423" y="638" type="line"/>
      <point x="1423" y="725"/>
      <point x="1339" y="807"/>
      <point x="1253" y="807" type="qcurve" smooth="yes"/>
      <point x="1054" y="807"/>
      <point x="961" y="596" type="qcurve"/>
    </contour>
    <contour>
      <point x="356" y="180" type="qcurve" smooth="yes"/>
      <point x="443" y="180"/>
      <point x="589" y="255"/>
      <point x="692" y="364"/>
      <point x="715" y="420" type="qcurve"/>
      <point x="463" y="420" type="line" smooth="yes"/>
      <point x="396" y="420"/>
      <point x="293" y="369"/>
      <point x="236" y="292"/>
      <point x="236" y="254" type="qcurve" smooth="yes"/>
      <point x="236" y="215"/>
      <point x="304" y="180"/>
    </contour>
  </outline>
</glyph>
<glyph name="oogonek" format="2">
  <advance width="1128"/>
  <unicode hex="01EB"/>
  <outline>
    <contour>
      <point x="382" y="-451" type="qcurve" smooth="yes"/>
      <point x="297" y="-451"/>
      <point x="189" y="-359"/>
      <point x="189" y="-278" type="qcurve" smooth="yes"/>
      <point x="189" y="-256"/>
      <point x="196" y="-223" type="qcurve" smooth="yes"/>
      <point x="223" y="-104"/>
      <point x="373" y="-14" type="qcurve"/>
      <point x="209" y="14"/>
      <point x="39" y="232"/>
      <point x="39" y="384" type="qcurve" smooth="yes"/>
      <point x="39" y="472"/>
      <point x="103" y="672"/>
      <point x="176" y="766" type="qcurve" smooth="yes"/>
      <point x="261" y="876"/>
      <point x="514" y="1012"/>
      <point x="668" y="1012" type="qcurve" smooth="yes"/>
      <point x="804" y="1012"/>
      <point x="990" y="905"/>
      <point x="1085" y="721"/>
      <point x="1085" y="608" type="qcurve" smooth="yes"/>
      <point x="1085" y="465"/>
      <point x="957" y="211"/>
      <point x="738" y="31"/>
      <point x="598" y="-4" type="qcurve"/>
      <point x="608" y="-4" type="line"/>
      <point x="582" y="-11"/>
      <point x="471" y="-69"/>
      <point x="411" y="-121" type="qcurve" smooth="yes"/>
      <point x="354" y="-172"/>
      <point x="339" y="-236" type="qcurve"/>
      <point x="335" y="-263" type="line"/>
      <point x="335" y="-285"/>
      <point x="360" y="-301"/>
      <point x="384" y="-301" type="qcurve" smooth="yes"/>
      <point x="450" y="-301"/>
      <point x="511" y="-236" type="qcurve"/>
      <point x="618" y="-338" type="line"/>
      <point x="518" y="-451"/>
    </contour>
    <contour>
      <point x="479" y="190" type="qcurve" smooth="yes"/>
      <point x="572" y="190"/>
      <point x="712" y="278"/>
      <point x="804" y="425"/>
      <point x="825" y="518" type="qcurve" smooth="yes"/>
      <point x="837" y="568"/>
      <point x="837" y="614" type="qcurve" smooth="yes"/>
      <point x="837" y="697"/>
      <point x="747" y="801"/>
      <point x="645" y="801" type="qcurve" smooth="yes"/>
      <point x="552" y="801"/>
      <point x="412" y="713"/>
      <point x="320" y="565"/>
      <point x="299" y="473" type="qcurve" smooth="yes"/>
      <point x="287" y="424"/>
      <point x="287" y="377" type="qcurve" smooth="yes"/>
      <point x="287" y="294"/>
      <point x="377" y="190"/>
    </contour>
  </outline>
</glyph>
<glyph name="aturned" format="2">
  <advance width="1096"/>
  <unicode hex="0250"/>
  <outline>
    <contour>
      <point x="471" y="-20" type="qcurve" smooth="yes"/>
      <point x="354" y="-20"/>
      <point x="193" y="58"/>
      <point x="110" y="198"/>
      <point x="110" y="290" type="qcurve" smooth="yes"/>
      <point x="110" y="344"/>
      <point x="123" y="399" type="qcurve" smooth="yes"/>
      <point x="260" y="995" type="line"/>
      <point x="449" y="995" type="line"/>
      <point x="442" y="860" type="line"/>
      <point x="518" y="944"/>
      <point x="684" y="1016"/>
      <point x="791" y="1016" type="qcurve" smooth="yes"/>
      <point x="875" y="1016"/>
      <point x="1015" y="952"/>
      <point x="1099" y="832"/>
      <point x="1099" y="749" type="qcurve" smooth="yes"/>
      <point x="1099" y="713"/>
      <point x="1090" y="674" type="qcurve" smooth="yes"/>
      <point x="1054" y="522"/>
      <point x="810" y="399"/>
      <point x="623" y="399" type="qcurve"/>
      <point x="352" y="389" type="line"/>
      <point x="343" y="350"/>
      <point x="343" y="320" type="qcurve" smooth="yes"/>
      <point x="343" y="255"/>
      <point x="423" y="193"/>
      <point x="502" y="193" type="qcurve" smooth="yes"/>
      <point x="579" y="193"/>
      <point x="725" y="282"/>
      <point x="770" y="340" type="qcurve"/>
      <point x="928" y="186" type="line"/>
      <point x="824" y="77"/>
      <point x="600" y="-20"/>
    </contour>
    <contour>
      <point x="393" y="565" type="qcurve"/>
      <point x="635" y="575" type="line"/>
      <point x="719" y="575"/>
      <point x="777" y="618" type="qcurve" smooth="yes"/>
      <point x="843" y="668"/>
      <point x="852" y="734" type="qcurve"/>
      <point x="852" y="803"/>
      <point x="723" y="809" type="qcurve"/>
      <point x="647" y="809"/>
      <point x="508" y="737"/>
      <point x="410" y="626"/>
    </contour>
  </outline>
</glyph>
<glyph name="ereversed" format="2">
  <advance width="1057"/>
  <unicode hex="0258"/>
  <outline>
    <contour>
      <point x="399" y="-12" type="qcurve" smooth="yes"/>
      <point x="265" y="-12"/>
      <point x="78" y="77"/>
      <point x="14" y="168" type="qcurve"/>
      <point x="205" y="299" type="line"/>
      <point x="240" y="250"/>
      <point x="341" y="215"/>
      <point x="428" y="215" type="qcurve" smooth="yes"/>
      <point x="543" y="215"/>
      <point x="695" y="336"/>
      <point x="729" y="430" type="qcurve"/>
      <point x="45" y="430" type="line"/>
      <point x="45" y="467"/>
      <point x="55" y="518" type="qcurve"/>
      <point x="105" y="732"/>
      <point x="381" y="1012"/>
      <point x="627" y="1012" type="qcurve" smooth="yes"/>
      <point x="760" y="1012"/>
      <point x="932" y="909"/>
      <point x="1015" y="733"/>
      <point x="1015" y="623" type="qcurve" smooth="yes"/>
      <point x="1015" y="457"/>
      <point x="848" y="146"/>
      <point x="681" y="54" type="qcurve"/>
      <point x="556" y="-12"/>
    </contour>
    <contour>
      <point x="311" y="586" type="qcurve"/>
      <point x="772" y="606" type="line"/>
      <point x="773" y="628" type="line"/>
      <point x="773" y="807"/>
      <point x="606" y="807" type="qcurve" smooth="yes"/>
      <point x="497" y="807"/>
      <point x="347" y="691"/>
    </contour>
  </outline>
</glyph>
<glyph name="colontriangularmod" format="2">
  <advance width="561"/>
  <unicode hex="02D0"/>
  <outline>
    <contour>
      <point x="281" y="522" type="line"/>
      <point x="29" y="999" type="line"/>
      <point x="532" y="999" type="line"/>
    </contour>
    <contour>
      <point x="532" y="0" type="line"/>
      <point x="29" y="0" type="line"/>
      <point x="281" y="477" type="line"/>
    </contour>
  </outline>
</glyph>
<glyph name="gravecmb" format="2">
  <unicode hex="0300"/>
  <anchor x="-30" y="999" name="_t.ringcmb_1"/>
  <outline>
    <contour>
      <point x="105" y="1104" type="line"/>
      <point x="-69" y="1104" type="line"/>
      <point x="-305" y="1413" type="line"/>
      <point x="-49" y="1413" type="line"/>
    </contour>
  </outline>
</glyph>
<glyph name="acutecmb" format="2">
  <unicode hex="0301"/>
  <anchor x="-228" y="999" name="_t.ringcmb_1"/>
  <outline>
    <contour>
      <point x="-179" y="1124" type="line"/>
      <point x="-363" y="1124" type="line"/>
      <point x="-70" y="1413" type="line"/>
      <point x="194" y="1413" type="line"/>
    </contour>
  </outline>
</glyph>
<glyph name="macroncmb" format="2">
  <unicode hex="0304"/>
  <anchor x="-303" y="999" name="_t.ringcmb_1"/>
  <outline>
    <contour>
      <point x="10" y="1147" type="line"/>
      <point x="-549" y="1147" type="line"/>
      <point x="-516" y="1290" type="line"/>
      <point x="43" y="1290" type="line"/>
    </contour>
  </outline>
</glyph>
<glyph name="dieresiscmb" format="2">
  <unicode hex="0308"/>
  <anchor x="-305" y="999" name="_t.ringcmb_1"/>
  <outline>
    <contour>
      <point x="-336" y="1188" type="line"/>
      <point x="-541" y="1188" type="line"/>
      <point x="-490" y="1413" type="line"/>
      <point x="-285" y="1413" type="line"/>
    </contour>
    <contour>
      <point x="18" y="1188" type="line"/>
      <point x="-187" y="1188" type="line"/>
      <point x="-135" y="1413" type="line"/>
      <point x="69" y="1413" type="line"/>
    </contour>
  </outline>
</glyph>
<glyph name="hungarumlautcmb" format="2">
  <unicode hex="030B"/>
  <anchor x="-432" y="999" name="_t.ringcmb_1"/>
  <outline>
    <contour>
      <point x="-533" y="1083" type="line"/>
      <point x="-715" y="1083" type="line"/>
      <point x="-414" y="1413" type="line"/>
      <point x="-191" y="1413" type="line"/>
    </contour>
    <contour>
      <point x="-185" y="1083" type="line"/>
      <point x="-367" y="1083" type="line"/>
      <point x="-66" y="1413" type="line"/>
      <point x="198" y="1413" type="line"/>
    </contour>
  </outline>
</glyph>
<glyph name="caroncmb" format="2">
  <unicode hex="030C"/>
  <anchor x="-213" y="999" name="_t.ringcmb_1"/>
  <outline>
    <contour>
      <point x="-190" y="1079" type="line"/>
      <point x="-432" y="1411" type="line"/>
      <point x="-247" y="1411" type="line"/>
      <point x="-155" y="1276" type="line"/>
      <point x="9" y="1411" type="line"/>
      <point x="201" y="1411" type="line"/>
    </contour>
  </outline>
</glyph>
<glyph name="horncmb" format="2">
  <unicode hex="031B"/>
  <anchor x="-109" y="999" name="_m.horncmb_3"/>
  <outline>
    <contour>
      <point x="-158" y="999" type="line"/>
      <point x="-306" y="999" type="line"/>
      <point x="-74" y="1413" type="line"/>
      <point x="184" y="1413" type="line"/>
    </contour>
  </outline>
</glyph>
<glyph name="uni0326" format="2">
  <unicode hex="0326"/>
  <anchor x="-291" y="0" name="_b.uni0326"/>
  <anchor x="-291" y="0" name="_b.uni0326_2"/>
  <anchor x="-465" y="-459" name="b.uni0326_2"/>
  <outline>
    <contour>
      <point x="-496" y="-459" type="line"/>
      <point x="-641" y="-459" type="line"/>
      <point x="-424" y="-106" type="line"/>
      <point x="-166" y="-106" type="line"/>
    </contour>
  </outline>
</glyph>
<glyph name="ogonekcmb" format="2">
  <unicode hex="0328"/>
  <anchor x="-263" y="0" name="_b.ogonekcmb_2"/>
  <outline>
    <contour>
      <point x="-469" y="-451" type="qcurve" smooth="yes"/>
      <point x="-556" y="-451"/>
      <point x="-662" y="-357"/>
      <point x="-662" y="-278" type="qcurve" smooth="yes"/>
      <point x="-662" y="-255"/>
      <point x="-655" y="-223" type="qcurve"/>
      <point x="-626" y="-107"/>
      <point x="-495" y="-24" type="qcurve" smooth="yes"/>
      <point x="-450" y="5"/>
      <point x="-445" y="5" type="qcurve"/>
      <point x="-444" y="4" type="line"/>
      <point x="-243" y="-4" type="line"/>
      <point x="-268" y="-11"/>
      <point x="-384" y="-71"/>
      <point x="-497" y="-172"/>
      <point x="-512" y="-236" type="qcurve"/>
      <point x="-516" y="-258"/>
      <point x="-516" y="-263" type="qcurve" smooth="yes"/>
      <point x="-516" y="-285"/>
      <point x="-489" y="-301"/>
      <point x="-467" y="-301" type="qcurve" smooth="yes"/>
      <point x="-401" y="-301"/>
      <point x="-340" y="-236" type="qcurve"/>
      <point x="-233" y="-338" type="line"/>
      <point x="-334" y="-451"/>
    </contour>
  </outline>
</glyph>
<glyph name="afii10052" format="2">
  <advance width="1065"/>
  <unicode hex="0403"/>
  <outline>
    <contour>
      <point x="881" y="1536" type="line"/>
      <point x="698" y="1536" type="line"/>
      <point x="989" y="1825" type="line"/>
      <point x="1253" y="1825" type="line"/>
    </contour>
    <contour>
      <point x="322" y="0" type="line"/>
      <point x="68" y="0" type="line"/>
      <point x="393" y="1411" type="line"/>
      <point x="1255" y="1411" type="line"/>
      <point x="1200" y="1178" type="line"/>
      <point x="592" y="1178" type="line"/>
    </contour>
  </outline>
</glyph>
<glyph name="afii10053" format="2">
  <advance width="1434"/>
  <unicode hex="0404"/>
  <outline>
    <contour>
      <point x="659" y="-20" type="qcurve" smooth="yes"/>
      <point x="470" y="-20"/>
      <point x="227" y="118"/>
      <point x="109" y="359"/>
      <point x="109" y="512" type="qcurve" smooth="yes"/>
      <point x="109" y="653"/>
      <point x="201" y="952"/>
      <point x="291" y="1084" type="qcurve" smooth="yes"/>
      <point x="401" y="1244"/>
      <point x="747" y="1436"/>
      <point x="967" y="1436" type="qcurve" smooth="yes"/>
      <point x="1184" y="1436"/>
      <point x="1459" y="1217"/>
      <point x="1501" y="1020" type="qcurve"/>
      <point x="1249" y="946" type="line"/>
      <point x="1242" y="1079"/>
      <point x="1078" y="1194"/>
      <point x="936" y="1194" type="qcurve" smooth="yes"/>
      <point x="806" y="1194"/>
      <point x="601" y="1094"/>
      <point x="456" y="922"/>
      <point x="416" y="813" type="qcurve"/>
      <point x="983" y="823" type="line"/>
      <point x="930" y="590" type="line"/>
      <point x="360" y="580" type="line"/>
      <point x="359" y="538" type="line"/>
      <point x="359" y="221"/>
      <point x="688" y="221" type="qcurve" smooth="yes"/>
      <point x="838" y="221"/>
      <point x="1062" y="359"/>
      <point x="1145" y="494" type="qcurve"/>
      <point x="1358" y="377" type="line"/>
      <point x="1223" y="174"/>
      <point x="860" y="-20"/>
    </contour>
  </outline>
</glyph>
<glyph name="afii10056" format="2">
  <advance width="616"/>
  <unicode hex="0407"/>
  <outline>
    <contour>
      <point x="477" y="1567" type="line"/>
      <point x="272" y="1567" type="line"/>
      <point x="317" y="1761" type="line"/>
      <point x="522" y="1761" type="line"/>
    </contour>
    <contour>
      <point x="831" y="1567" type="line"/>
      <point x="627" y="1567" type="line"/>
      <point x="672" y="1761" type="line"/>
      <point x="877" y="1761" type="line"/>
    </contour>
    <contour>
      <point x="319" y="0" type="line"/>
      <point x="66" y="0" type="line"/>
      <point x="391" y="1411" type="line"/>
      <point x="645" y="1411" type="line"/>
    </contour>
  </outline>
</glyph>
<glyph name="afii10057" format="2">
  <advance width="1139"/>
  <unicode hex="0408"/>
  <outline>
    <contour>
      <point x="399" y="-20" type="qcurve" smooth="yes"/>
      <point x="269" y="-20"/>
      <point x="96" y="83"/>
      <point x="11" y="258"/>
      <point x="11" y="365" type="qcurve" smooth="yes"/>
      <point x="11" y="400"/>
      <point x="18" y="451" type="qcurve"/>
      <point x="268" y="459" type="line"/>
      <point x="262" y="423"/>
      <point x="262" y="390" type="qcurve" smooth="yes"/>
      <point x="262" y="310"/>
      <point x="340" y="215"/>
      <point x="428" y="215" type="qcurve" smooth="yes"/>
      <point x="561" y="215"/>
      <point x="700" y="365"/>
      <point x="733" y="516" type="qcurve"/>
      <point x="885" y="1178" type="line"/>
      <point x="352" y="1178" type="line"/>
      <point x="408" y="1411" type="line"/>
      <point x="1194" y="1411" type="line"/>
      <point x="983" y="500" type="line" smooth="yes"/>
      <point x="927" y="258"/>
      <point x="641" y="-20"/>
    </contour>
  </outline>
</glyph>
<glyph name="afii10058" format="2">
  <advance width="1931"/>
  <unicode hex="0409"/>
  <outline>
    <contour>
      <point x="106" y="-20" type="qcurve" smooth="yes"/>
      <point x="41" y="-20"/>
      <point x="-49" y="13"/>
      <point x="-98" y="47" type="qcurve"/>
      <point x="2" y="223" type="line"/>
      <point x="61" y="205"/>
      <point x="109" y="205" type="qcurve" smooth="yes"/>
      <point x="167" y="205"/>
      <point x="319" y="652"/>
      <point x="436" y="1157"/>
      <point x="494" y="1411" type="qcurve"/>
      <point x="1409" y="1411" type="line"/>
      <point x="1274" y="825" type="line"/>
      <point x="1458" y="825" type="line" smooth="yes"/>
      <point x="1577" y="825"/>
      <point x="1767" y="753"/>
      <point x="1877" y="608"/>
      <point x="1877" y="498" type="qcurve" smooth="yes"/>
      <point x="1877" y="453"/>
      <point x="1864" y="393" type="qcurve"/>
      <point x="1816" y="201"/>
      <point x="1494" y="0"/>
      <point x="1280" y="0" type="qcurve" smooth="yes"/>
      <point x="831" y="0" type="line"/>
      <point x="1102" y="1178" type="line"/>
      <point x="692" y="1178" type="line"/>
      <point x="625" y="885" type="line" smooth="yes"/>
      <point x="565" y="621"/>
      <point x="448" y="252"/>
      <point x="249" y="-20"/>
    </contour>
    <contour>
      <point x="1321" y="238" type="line" smooth="yes"/>
      <point x="1453" y="238"/>
      <point x="1601" y="345"/>
      <point x="1622" y="438" type="qcurve" smooth="yes"/>
      <point x="1627" y="461"/>
      <point x="1627" y="478" type="qcurve" smooth="yes"/>
      <point x="1627" y="536"/>
      <point x="1522" y="588"/>
      <point x="1415" y="588" type="qcurve" smooth="yes"/>
      <point x="1219" y="588" type="line"/>
      <point x="1137" y="238" type="line"/>
    </contour>
  </outline>
</glyph>
<glyph name="afii10061" format="2">
  <advance width="1350"/>
  <unicode hex="040C"/>
  <outline>
    <contour>
      <point x="969" y="1536" type="line"/>
      <point x="786" y="1536" type="line"/>
      <point x="1077" y="1825" type="line"/>
      <point x="1341" y="1825" type="line"/>
    </contour>
    <contour>
      <point x="1214" y="0" type="line"/>
      <point x="903" y="0" type="line"/>
      <point x="848" y="483" type="line" smooth="yes"/>
      <point x="840" y="555"/>
      <point x="776" y="664"/>
      <point x="707" y="664" type="qcurve" smooth="yes"/>
      <point x="473" y="664" type="line"/>
      <point x="322" y="0" type="line"/>
      <point x="68" y="0" type="line"/>
      <point x="393" y="1411" type="line"/>
      <point x="647" y="1411" type="line"/>
      <point x="528" y="901" type="line"/>
      <point x="676" y="901" type="line"/>
      <point x="1128" y="1411" type="line"/>
      <point x="1473" y="1411" type="line"/>
      <point x="907" y="834" type="line"/>
      <point x="979" y="834"/>
      <point x="1063" y="672"/>
      <point x="1081" y="578" type="qcurve"/>
    </contour>
  </outline>
</glyph>
<glyph name="afii10020" format="2">
  <advance width="1065"/>
  <unicode hex="0413"/>
  <outline>
    <contour>
      <point x="322" y="0" type="line"/>
      <point x="68" y="0" type="line"/>
      <point x="393" y="1411" type="line"/>
      <point x="1255" y="1411" type="line"/>
      <point x="1200" y="1178" type="line"/>
      <point x="592" y="1178" type="line"/>
    </contour>
  </outline>
</glyph>
<glyph name="afii10021" format="2">
  <advance width="1475"/>
  <unicode hex="0414"/>
  <outline>
    <contour>
      <point x="1268" y="-307" type="line"/>
      <point x="1014" y="-307" type="line"/>
      <point x="1085" y="0" type="line"/>
      <point x="158" y="0" type="line"/>
      <point x="86" y="-307" type="line"/>
      <point x="-168" y="-307" type="line"/>
      <point x="-43" y="233" type="line"/>
      <point x="104" y="233" type="line"/>
      <point x="848" y="1413" type="line"/>
      <point x="1038" y="1413" type="line"/>
      <point x="1239" y="233" type="line"/>
      <point x="1393" y="233" type="line"/>
    </contour>
    <contour>
      <point x="965" y="233" type="line"/>
      <point x="854" y="1001" type="line"/>
      <point x="383" y="233" type="line"/>
    </contour>
  </outline>
</glyph>
<glyph name="afii10024" format="2">
  <advance width="2089"/>
  <unicode hex="0416"/>
  <outline>
    <contour>
      <point x="1950" y="0" type="line"/>
      <point x="1638" y="0" type="line"/>
      <point x="1583" y="483" type="line" smooth="yes"/>
      <point x="1575" y="555"/>
      <point x="1511" y="664"/>
      <point x="1442" y="664" type="qcurve" smooth="yes"/>
      <point x="1208" y="664" type="line"/>
      <point x="1057" y="0" type="line"/>
      <point x="803" y="0" type="line"/>
      <point x="954" y="664" type="line"/>
      <point x="737" y="664" type="line" smooth="yes"/>
      <point x="668" y="664"/>
      <point x="540" y="536"/>
      <point x="500" y="463" type="qcurve"/>
      <point x="225" y="0" type="line"/>
      <point x="-94" y="0" type="line"/>
      <point x="305" y="598" type="line"/>
      <point x="461" y="834"/>
      <point x="590" y="834" type="qcurve"/>
      <point x="307" y="1411" type="line"/>
      <point x="643" y="1411" type="line"/>
      <point x="858" y="901" type="line"/>
      <point x="1010" y="901" type="line"/>
      <point x="1128" y="1411" type="line"/>
      <point x="1382" y="1411" type="line"/>
      <point x="1264" y="901" type="line"/>
      <point x="1411" y="901" type="line"/>
      <point x="1864" y="1411" type="line"/>
      <point x="2208" y="1411" type="line"/>
      <point x="1642" y="834" type="line"/>
      <point x="1714" y="834"/>
      <point x="1798" y="673"/>
      <point x="1817" y="578" type="qcurve"/>
    </contour>
  </outline>
</glyph>
<glyph name="afii10025" format="2">
  <advance width="1114"/>
  <unicode hex="0417"/>
  <outline>
    <contour>
      <point x="399" y="-20" type="qcurve" smooth="yes"/>
      <point x="256" y="-20"/>
      <point x="26" y="92"/>
      <point x="-23" y="203" type="qcurve"/>
      <point x="203" y="317" type="line"/>
      <point x="219" y="256"/>
      <point x="329" y="207"/>
      <point x="426" y="207" type="qcurve" smooth="yes"/>
      <point x="541" y="207"/>
      <point x="736" y="330"/>
      <point x="766" y="449" type="qcurve" smooth="yes"/>
      <point x="772" y="473"/>
      <point x="772" y="494" type="qcurve" smooth="yes"/>
      <point x="772" y="569"/>
      <point x="645" y="641"/>
      <point x="545" y="641" type="qcurve" smooth="yes"/>
      <point x="408" y="641" type="line"/>
      <point x="455" y="858" type="line"/>
      <point x="588" y="858" type="line" smooth="yes"/>
      <point x="676" y="858"/>
      <point x="821" y="962"/>
      <point x="844" y="1051" type="qcurve" smooth="yes"/>
      <point x="848" y="1067"/>
      <point x="848" y="1086" type="qcurve" smooth="yes"/>
      <point x="848" y="1143"/>
      <point x="757" y="1202"/>
      <point x="686" y="1202" type="qcurve" smooth="yes"/>
      <point x="608" y="1202"/>
      <point x="470" y="1130"/>
      <point x="440" y="1065" type="qcurve"/>
      <point x="193" y="1085" type="line"/>
      <point x="229" y="1200"/>
      <point x="389" y="1356"/>
      <point x="601" y="1434"/>
      <point x="711" y="1434" type="qcurve" smooth="yes"/>
      <point x="812" y="1434"/>
      <point x="984" y="1363"/>
      <point x="1090" y="1222"/>
      <point x="1090" y="1119" type="qcurve" smooth="yes"/>
      <point x="1090" y="978"/>
      <point x="1003" y="865" type="qcurve"/>
      <point x="946" y="795"/>
      <point x="856" y="756" type="qcurve"/>
      <point x="924" y="735"/>
      <point x="1018" y="606"/>
      <point x="1018" y="502" type="qcurve" smooth="yes"/>
      <point x="1018" y="412"/>
      <point x="950" y="231"/>
      <point x="882" y="161" type="qcurve"/>
      <point x="784" y="65"/>
      <point x="530" y="-20"/>
    </contour>
  </outline>
</glyph>
<glyph name="afii10026" format="2">
  <advance width="1454"/>
  <unicode hex="0418"/>
  <outline>
    <contour>
      <point x="1157" y="0" type="line"/>
      <point x="913" y="0" type="line"/>
      <point x="1141" y="991" type="line"/>
      <point x="322" y="0" type="line"/>
      <point x="68" y="0" type="line"/>
      <point x="393" y="1413" type="line"/>
      <point x="637" y="1413" type="line"/>
      <point x="410" y="424" type="line"/>
      <point x="1231" y="1413" type="line"/>
      <point x="1483" y="1413" type="line"/>
    </contour>
  </outline>
</glyph>
<glyph name="afii10027" format="2">
  <advance width="1491"/>
  <unicode hex="0419"/>
  <outline>
    <contour>
      <point x="1014" y="1554" type="qcurve" smooth="yes"/>
      <point x="871" y="1554"/>
      <point x="741" y="1659"/>
      <point x="741" y="1747" type="qcurve" smooth="yes"/>
      <point x="741" y="1781"/>
      <point x="752" y="1825" type="qcurve"/>
      <point x="918" y="1825" type="line"/>
      <point x="913" y="1800"/>
      <point x="913" y="1784" type="qcurve" smooth="yes"/>
      <point x="913" y="1737"/>
      <point x="971" y="1698"/>
      <point x="1022" y="1698" type="qcurve" smooth="yes"/>
      <point x="1088" y="1698"/>
      <point x="1193" y="1767"/>
      <point x="1210" y="1825" type="qcurve"/>
      <point x="1376" y="1825" type="line"/>
      <point x="1349" y="1690"/>
      <point x="1176" y="1554"/>
    </contour>
    <contour>
      <point x="1194" y="0" type="line"/>
      <point x="940" y="0" type="line"/>
      <point x="1184" y="1059"/>
      <point x="1186" y="1070" type="qcurve"/>
      <point x="365" y="0" type="line"/>
      <point x="68" y="0" type="line"/>
      <point x="393" y="1411" type="line"/>
      <point x="647" y="1411" type="line"/>
      <point x="410" y="383"/>
      <point x="399" y="338" type="qcurve"/>
      <point x="1223" y="1411" type="line"/>
      <point x="1520" y="1411" type="line"/>
    </contour>
  </outline>
</glyph>
<glyph name="afii10029" format="2">
  <advance width="1343"/>
  <unicode hex="041B"/>
  <outline>
    <contour>
      <point x="1214" y="0" type="line"/>
      <point x="938" y="0" type="line"/>
      <point x="791" y="1001" type="line"/>
      <point x="178" y="0" type="line"/>
      <point x="-104" y="0" type="line"/>
      <point x="784" y="1413" type="line"/>
      <point x="975" y="1413" type="line"/>
    </contour>
  </outline>
</glyph>
<glyph name="afii10036" format="2">
  <advance width="1180"/>
  <unicode hex="0422"/>
  <outline>
    <contour>
      <point x="602" y="0" type="line"/>
      <point x="348" y="0" type="line"/>
      <point x="621" y="1184" type="line"/>
      <point x="178" y="1184" type="line"/>
      <point x="231" y="1411" type="line"/>
      <point x="1370" y="1411" type="line"/>
      <point x="1317" y="1184" type="line"/>
      <point x="874" y="1184" type="line"/>
    </contour>
  </outline>
</glyph>
<glyph name="afii10037" format="2">
  <advance width="1110"/>
  <unicode hex="0423"/>
  <outline>
    <contour>
      <point x="373" y="0" type="line"/>
      <point x="102" y="0" type="line"/>
      <point x="401" y="457" type="line"/>
      <point x="225" y="1411" type="line"/>
      <point x="489" y="1411" type="line"/>
      <point x="598" y="735" type="line"/>
      <point x="1038" y="1411" type="line"/>
      <point x="1311" y="1411" type="line"/>
    </contour>
  </outline>
</glyph>
<glyph name="afii10038" format="2">
  <advance width="1782"/>
  <unicode hex="0424"/>
  <outline>
    <contour>
      <point x="903" y="0" type="line"/>
      <point x="647" y="0" type="line"/>
      <point x="678" y="102" type="line"/>
      <point x="490" y="102"/>
      <point x="239" y="218"/>
      <point x="115" y="424"/>
      <point x="115" y="561" type="qcurve" smooth="yes"/>
      <point x="115" y="691"/>
      <point x="160" y="813" type="qcurve" smooth="yes"/>
      <point x="246" y="1047"/>
      <point x="445" y="1177" type="qcurve" smooth="yes"/>
      <point x="649" y="1311"/>
      <point x="944" y="1311" type="qcurve"/>
      <point x="975" y="1411" type="line"/>
      <point x="1229" y="1411" type="line"/>
      <point x="1198" y="1311" type="line"/>
      <point x="1386" y="1311"/>
      <point x="1636" y="1194"/>
      <point x="1762" y="984"/>
      <point x="1762" y="845" type="qcurve" smooth="yes"/>
      <point x="1762" y="725"/>
      <point x="1679" y="483"/>
      <point x="1597" y="381" type="qcurve" smooth="yes"/>
      <point x="1529" y="297"/>
      <point x="1336" y="172"/>
      <point x="1085" y="102"/>
      <point x="932" y="102" type="qcurve"/>
    </contour>
    <contour>
      <point x="717" y="328" type="qcurve"/>
      <point x="905" y="1085" type="line"/>
      <point x="768" y="1085"/>
      <point x="557" y="981"/>
      <point x="420" y="800"/>
      <point x="393" y="682" type="qcurve" smooth="yes"/>
      <point x="381" y="631"/>
      <point x="381" y="586" type="qcurve" smooth="yes"/>
      <point x="381" y="509"/>
      <point x="453" y="393"/>
      <point x="602" y="328"/>
    </contour>
    <contour>
      <point x="971" y="328" type="line"/>
      <point x="1106" y="328"/>
      <point x="1317" y="430"/>
      <point x="1457" y="609"/>
      <point x="1485" y="727" type="qcurve" smooth="yes"/>
      <point x="1496" y="772"/>
      <point x="1496" y="821" type="qcurve" smooth="yes"/>
      <point x="1496" y="900"/>
      <point x="1424" y="1018"/>
      <point x="1274" y="1085"/>
      <point x="1159" y="1085" type="qcurve"/>
    </contour>
  </outline>
</glyph>
<glyph name="afii10040" format="2">
  <advance width="1528"/>
  <unicode hex="0426"/>
  <outline>
    <contour>
      <point x="1274" y="-307" type="line"/>
      <point x="1020" y="-307" type="line"/>
      <point x="1092" y="0" type="line"/>
      <point x="68" y="0" type="line"/>
      <point x="393" y="1411" type="line"/>
      <point x="647" y="1411" type="line"/>
      <point x="375" y="233" type="line"/>
      <point x="993" y="233" type="line"/>
      <point x="1266" y="1411" type="line"/>
      <point x="1520" y="1411" type="line"/>
      <point x="1247" y="233" type="line"/>
      <point x="1399" y="233" type="line"/>
    </contour>
  </outline>
</glyph>
<glyph name="afii10043" format="2">
  <advance width="1839"/>
  <unicode hex="0429"/>
  <outline>
    <contour>
      <point x="1585" y="-307" type="line"/>
      <point x="1331" y="-307" type="line"/>
      <point x="1403" y="0" type="line"/>
      <point x="68" y="0" type="line"/>
      <point x="393" y="1411" type="line"/>
      <point x="647" y="1411" type="line"/>
      <point x="375" y="233" type="line"/>
      <point x="713" y="233" type="line"/>
      <point x="985" y="1411" type="line"/>
      <point x="1239" y="1411" type="line"/>
      <point x="967" y="233" type="line"/>
      <point x="1305" y="233" type="line"/>
      <point x="1577" y="1411" type="line"/>
      <point x="1831" y="1411" type="line"/>
      <point x="1559" y="233" type="line"/>
      <point x="1710" y="233" type="line"/>
    </contour>
  </outline>
</glyph>
<glyph name="afii10044" format="2">
  <advance width="1405"/>
  <unicode hex="042A"/>
  <outline>
    <contour>
      <point x="754" y="0" type="qcurve" smooth="yes"/>
      <point x="305" y="0" type="line"/>
      <point x="578" y="1184" type="line"/>
      <point x="178" y="1184" type="line"/>
      <point x="231" y="1411" type="line"/>
      <point x="883" y="1411" type="line"/>
      <point x="748" y="825" type="line"/>
      <point x="932" y="825" type="line" smooth="yes"/>
      <point x="1127" y="825"/>
      <point x="1350" y="651"/>
      <point x="1350" y="499" type="qcurve" smooth="yes"/>
      <point x="1350" y="418"/>
      <point x="1288" y="249"/>
      <point x="1226" y="181" type="qcurve"/>
      <point x="1138" y="89"/>
      <point x="893" y="0"/>
    </contour>
    <contour>
      <point x="795" y="238" type="line" smooth="yes"/>
      <point x="927" y="238"/>
      <point x="1075" y="345"/>
      <point x="1096" y="438" type="qcurve" smooth="yes"/>
      <point x="1101" y="461"/>
      <point x="1101" y="477" type="qcurve" smooth="yes"/>
      <point x="1101" y="536"/>
      <point x="995" y="588"/>
      <point x="889" y="588" type="qcurve" smooth="yes"/>
      <point x="692" y="588" type="line"/>
      <point x="610" y="238" type="line"/>
    </contour>
  </outline>
</glyph>
<glyph name="afii10046" format="2">
  <advance width="1167"/>
  <unicode hex="042C"/>
  <outline>
    <contour>
      <point x="516" y="0" type="qcurve" smooth="yes"/>
      <point x="68" y="0" type="line"/>
      <point x="393" y="1411" type="line"/>
      <point x="645" y="1411" type="line"/>
      <point x="510" y="825" type="line"/>
      <point x="694" y="825" type="line" smooth="yes"/>
      <point x="813" y="825"/>
      <point x="1003" y="753"/>
      <point x="1113" y="608"/>
      <point x="1113" y="498" type="qcurve" smooth="yes"/>
      <point x="1113" y="453"/>
      <point x="1100" y="393" type="qcurve"/>
      <point x="1052" y="201"/>
      <point x="730" y="0"/>
    </contour>
    <contour>
      <point x="557" y="238" type="line" smooth="yes"/>
      <point x="689" y="238"/>
      <point x="837" y="345"/>
      <point x="858" y="438" type="qcurve" smooth="yes"/>
      <point x="863" y="461"/>
      <point x="863" y="478" type="qcurve" smooth="yes"/>
      <point x="863" y="536"/>
      <point x="758" y="588"/>
      <point x="651" y="588" type="qcurve" smooth="yes"/>
      <point x="455" y="588" type="line"/>
      <point x="373" y="238" type="line"/>
    </contour>
  </outline>
</glyph>
<glyph name="afii10067" format="2">
  <advance width="1206"/>
  <unicode hex="0432"/>
  <outline>
    <contour>
      <point x="537" y="-20" type="qcurve" smooth="yes"/>
      <point x="420" y="-20"/>
      <point x="217" y="54"/>
      <point x="92" y="205"/>
      <point x="92" y="321" type="qcurve" smooth="yes"/>
      <point x="92" y="368"/>
      <point x="104" y="420" type="qcurve" smooth="yes"/>
      <point x="233" y="977" type="line" smooth="yes"/>
      <point x="276" y="1164"/>
      <point x="473" y="1366"/>
      <point x="711" y="1434"/>
      <point x="848" y="1434" type="qcurve" smooth="yes"/>
      <point x="948" y="1434"/>
      <point x="1111" y="1364"/>
      <point x="1208" y="1226"/>
      <point x="1208" y="1125" type="qcurve" smooth="yes"/>
      <point x="1208" y="993"/>
      <point x="1128" y="878" type="qcurve" smooth="yes"/>
      <point x="1077" y="806"/>
      <point x="999" y="752" type="qcurve"/>
      <point x="1117" y="676"/>
      <point x="1117" y="517" type="qcurve" smooth="yes"/>
      <point x="1117" y="458"/>
      <point x="1100" y="387" type="qcurve" smooth="yes"/>
      <point x="1067" y="248"/>
      <point x="904" y="68"/>
      <point x="672" y="-20"/>
    </contour>
    <contour>
      <point x="563" y="207" type="qcurve" smooth="yes"/>
      <point x="675" y="207"/>
      <point x="834" y="327"/>
      <point x="862" y="449" type="qcurve"/>
      <point x="870" y="480"/>
      <point x="870" y="512" type="qcurve" smooth="yes"/>
      <point x="870" y="643"/>
      <point x="690" y="643" type="qcurve" smooth="yes"/>
      <point x="636" y="643"/>
      <point x="559" y="619"/>
      <point x="504" y="592" type="qcurve"/>
      <point x="547" y="823" type="line"/>
      <point x="579" y="843"/>
      <point x="663" y="858"/>
      <point x="719" y="858" type="qcurve" smooth="yes"/>
      <point x="815" y="858"/>
      <point x="941" y="963"/>
      <point x="961" y="1051" type="qcurve" smooth="yes"/>
      <point x="966" y="1076"/>
      <point x="966" y="1094" type="qcurve" smooth="yes"/>
      <point x="966" y="1148"/>
      <point x="891" y="1202"/>
      <point x="823" y="1202" type="qcurve" smooth="yes"/>
      <point x="746" y="1202"/>
      <point x="613" y="1162"/>
      <point x="492" y="1023"/>
      <point x="461" y="887" type="qcurve"/>
      <point x="350" y="416" type="line" smooth="yes"/>
      <point x="344" y="389"/>
      <point x="344" y="366" type="qcurve" smooth="yes"/>
      <point x="344" y="312"/>
      <point x="402" y="241"/>
      <point x="501" y="207"/>
    </contour>
  </outline>
</glyph>
<glyph name="afii10068" format="2">
  <advance width="911"/>
  <unicode hex="0433"/>
  <outline>
    <contour>
      <point x="350" y="-20" type="qcurve" smooth="yes"/>
      <point x="267" y="-20"/>
      <point x="115" y="37"/>
      <point x="19" y="157"/>
      <point x="19" y="251" type="qcurve" smooth="yes"/>
      <point x="19" y="319"/>
      <point x="43" y="384" type="qcurve" smooth="yes"/>
      <point x="93" y="515"/>
      <point x="243" y="581" type="qcurve" smooth="yes"/>
      <point x="315" y="613"/>
      <point x="426" y="643" type="qcurve" smooth="yes"/>
      <point x="529" y="671"/>
      <point x="578" y="696" type="qcurve" smooth="yes"/>
      <point x="633" y="724"/>
      <point x="638" y="773" type="qcurve"/>
      <point x="638" y="820"/>
      <point x="535" y="821" type="qcurve"/>
      <point x="396" y="821"/>
      <point x="297" y="690" type="qcurve"/>
      <point x="141" y="805" type="line"/>
      <point x="212" y="896"/>
      <point x="422" y="1014"/>
      <point x="555" y="1014" type="qcurve" smooth="yes"/>
      <point x="634" y="1014"/>
      <point x="774" y="961"/>
      <point x="861" y="850"/>
      <point x="861" y="765" type="qcurve" smooth="yes"/>
      <point x="861" y="705"/>
      <point x="818" y="585"/>
      <point x="774" y="541" type="qcurve" smooth="yes"/>
      <point x="721" y="490"/>
      <point x="583" y="432"/>
      <point x="478" y="407" type="qcurve" smooth="yes"/>
      <point x="406" y="389"/>
      <point x="322" y="359"/>
      <point x="264" y="315"/>
      <point x="256" y="279" type="qcurve"/>
      <point x="254" y="264" type="line"/>
      <point x="254" y="233"/>
      <point x="315" y="182"/>
      <point x="383" y="182" type="qcurve" smooth="yes"/>
      <point x="545" y="182"/>
      <point x="645" y="356" type="qcurve"/>
      <point x="821" y="250" type="line"/>
      <point x="751" y="127"/>
      <point x="497" y="-20"/>
    </contour>
  </outline>
</glyph>
<glyph name="afii10072" format="2">
  <advance width="1522"/>
  <unicode hex="0436"/>
  <outline>
    <contour>
      <point x="1401" y="0" type="line"/>
      <point x="1116" y="0" type="line"/>
      <point x="1079" y="362" type="line"/>
      <point x="1072" y="414"/>
      <point x="1025" y="463"/>
      <point x="975" y="463" type="qcurve" smooth="yes"/>
      <point x="877" y="463" type="line"/>
      <point x="770" y="0" type="line"/>
      <point x="526" y="0" type="line"/>
      <point x="633" y="463" type="line"/>
      <point x="547" y="463" type="line" smooth="yes"/>
      <point x="451" y="463"/>
      <point x="385" y="342" type="qcurve"/>
      <point x="184" y="0" type="line"/>
      <point x="-109" y="0" type="line"/>
      <point x="174" y="465" type="line"/>
      <point x="211" y="519"/>
      <point x="323" y="612"/>
      <point x="375" y="612" type="qcurve"/>
      <point x="178" y="999" type="line"/>
      <point x="455" y="999" type="line"/>
      <point x="606" y="643" type="line"/>
      <point x="674" y="643" type="line"/>
      <point x="852" y="1411" type="line"/>
      <point x="1096" y="1411" type="line"/>
      <point x="918" y="643" type="line"/>
      <point x="981" y="643" type="line"/>
      <point x="1296" y="999" type="line"/>
      <point x="1585" y="999" type="line"/>
      <point x="1194" y="612" type="line"/>
      <point x="1245" y="612"/>
      <point x="1313" y="503"/>
      <point x="1325" y="444" type="qcurve"/>
    </contour>
  </outline>
</glyph>
<glyph name="afii10075" format="2">
  <advance width="1198"/>
  <unicode hex="0439"/>
  <outline>
    <contour>
      <point x="768" y="1143" type="qcurve" smooth="yes"/>
      <point x="626" y="1143"/>
      <point x="494" y="1248"/>
      <point x="494" y="1338" type="qcurve" smooth="yes"/>
      <point x="494" y="1368"/>
      <point x="504" y="1413" type="qcurve"/>
      <point x="672" y="1413" type="line"/>
      <point x="667" y="1388"/>
      <point x="667" y="1372" type="qcurve" smooth="yes"/>
      <point x="667" y="1286"/>
      <point x="774" y="1286" type="qcurve" smooth="yes"/>
      <point x="842" y="1286"/>
      <point x="947" y="1357"/>
      <point x="963" y="1413" type="qcurve"/>
      <point x="1130" y="1413" type="line"/>
      <point x="1100" y="1277"/>
      <point x="928" y="1143"/>
    </contour>
    <contour>
      <point x="408" y="-23" type="qcurve" smooth="yes"/>
      <point x="257" y="-23"/>
      <point x="112" y="152"/>
      <point x="112" y="290" type="qcurve" smooth="yes"/>
      <point x="112" y="356"/>
      <point x="127" y="422" type="qcurve" smooth="yes"/>
      <point x="260" y="999" type="line"/>
      <point x="508" y="999" type="line"/>
      <point x="370" y="400" type="line" smooth="yes"/>
      <point x="359" y="351"/>
      <point x="359" y="316" type="qcurve" smooth="yes"/>
      <point x="359" y="209"/>
      <point x="465" y="209" type="qcurve" smooth="yes"/>
      <point x="547" y="209"/>
      <point x="684" y="283"/>
      <point x="780" y="396"/>
      <point x="795" y="457" type="qcurve"/>
      <point x="920" y="999" type="line"/>
      <point x="1167" y="999" type="line"/>
      <point x="938" y="0" type="line"/>
      <point x="690" y="0" type="line"/>
      <point x="719" y="109" type="line"/>
      <point x="649" y="39"/>
      <point x="487" y="-23"/>
    </contour>
  </outline>
</glyph>
<glyph name="afii10077" format="2">
  <advance width="999"/>
  <unicode hex="043B"/>
  <outline>
    <contour>
      <point x="893" y="0" type="line"/>
      <point x="631" y="0" type="line"/>
      <point x="549" y="684" type="line"/>
      <point x="145" y="0" type="line"/>
      <point x="-123" y="0" type="line"/>
      <point x="514" y="999" type="line"/>
      <point x="715" y="999" type="line"/>
    </contour>
  </outline>
</glyph>
<glyph name="afii10078" format="2">
  <advance width="1470"/>
  <unicode hex="043C"/>
  <outline>
    <contour>
      <point x="1210" y="0" type="line"/>
      <point x="987" y="0" type="line"/>
      <point x="1147" y="686" type="line"/>
      <point x="713" y="0" type="line"/>
      <point x="535" y="0" type="line"/>
      <point x="414" y="684" type="line"/>
      <point x="254" y="0" type="line"/>
      <point x="31" y="0" type="line"/>
      <point x="260" y="999" type="line"/>
      <point x="563" y="999" type="line"/>
      <point x="684" y="291" type="line"/>
      <point x="1133" y="1001" type="line"/>
      <point x="1442" y="1001" type="line"/>
    </contour>
  </outline>
</glyph>
<glyph name="afii10079" format="2">
  <advance width="1198"/>
  <unicode hex="043D"/>
  <outline>
    <contour>
      <point x="938" y="0" type="line"/>
      <point x="690" y="0" type="line"/>
      <point x="797" y="463" type="line"/>
      <point x="385" y="463" type="line"/>
      <point x="279" y="0" type="line"/>
      <point x="31" y="0" type="line"/>
      <point x="260" y="999" type="line"/>
      <point x="508" y="999" type="line"/>
      <point x="426" y="645" type="line"/>
      <point x="838" y="645" type="line"/>
      <point x="920" y="999" type="line"/>
      <point x="1167" y="999" type="line"/>
    </contour>
  </outline>
</glyph>
<glyph name="afii10085" format="2">
  <advance width="1032"/>
  <unicode hex="0443"/>
  <outline>
    <contour>
      <point x="254" y="-430" type="line"/>
      <point x="-16" y="-430" type="line"/>
      <point x="276" y="27" type="line"/>
      <point x="111" y="999" type="line"/>
      <point x="375" y="999" type="line"/>
      <point x="465" y="305" type="line"/>
      <point x="883" y="999" type="line"/>
      <point x="1155" y="999" type="line"/>
    </contour>
  </outline>
</glyph>
<glyph name="afii10086" format="2">
  <advance width="1493"/>
  <unicode hex="0444"/>
  <outline>
    <contour>
      <point x="653" y="-430" type="line"/>
      <point x="410" y="-430" type="line"/>
      <point x="512" y="-18" type="line"/>
      <point x="497" y="-20"/>
      <point x="465" y="-20" type="qcurve" smooth="yes"/>
      <point x="335" y="-20"/>
      <point x="141" y="86"/>
      <point x="38" y="272"/>
      <point x="38" y="390" type="qcurve" smooth="yes"/>
      <point x="38" y="452"/>
      <point x="53" y="518" type="qcurve" smooth="yes"/>
      <point x="85" y="653"/>
      <point x="268" y="879"/>
      <point x="526" y="1010"/>
      <point x="670" y="1010" type="qcurve"/>
      <point x="735" y="1006" type="line"/>
      <point x="836" y="1411" type="line"/>
      <point x="1079" y="1411" type="line"/>
      <point x="979" y="1010" type="line"/>
      <point x="995" y="1012"/>
      <point x="1026" y="1012" type="qcurve" smooth="yes"/>
      <point x="1157" y="1012"/>
      <point x="1351" y="906"/>
      <point x="1453" y="721"/>
      <point x="1453" y="602" type="qcurve" smooth="yes"/>
      <point x="1453" y="539"/>
      <point x="1438" y="473" type="qcurve" smooth="yes"/>
      <point x="1406" y="338"/>
      <point x="1225" y="112"/>
      <point x="964" y="-20"/>
      <point x="815" y="-20" type="qcurve" smooth="yes"/>
      <point x="797" y="-20"/>
      <point x="780" y="-17" type="qcurve"/>
      <point x="756" y="-14" type="line"/>
    </contour>
    <contour>
      <point x="487" y="190" type="qcurve" smooth="yes"/>
      <point x="516" y="190"/>
      <point x="549" y="197" type="qcurve"/>
      <point x="700" y="799" type="line"/>
      <point x="684" y="801"/>
      <point x="653" y="801" type="qcurve" smooth="yes"/>
      <point x="560" y="801"/>
      <point x="420" y="713"/>
      <point x="328" y="565"/>
      <point x="307" y="473" type="qcurve" smooth="yes"/>
      <point x="295" y="424"/>
      <point x="295" y="377" type="qcurve" smooth="yes"/>
      <point x="295" y="294"/>
      <point x="385" y="190"/>
    </contour>
    <contour>
      <point x="838" y="190" type="line" smooth="yes"/>
      <point x="930" y="190"/>
      <point x="1071" y="278"/>
      <point x="1163" y="426"/>
      <point x="1184" y="518" type="qcurve" smooth="yes"/>
      <point x="1196" y="568"/>
      <point x="1196" y="614" type="qcurve" smooth="yes"/>
      <point x="1196" y="700"/>
      <point x="1103" y="801"/>
      <point x="1004" y="801" type="qcurve" smooth="yes"/>
      <point x="982" y="801"/>
      <point x="944" y="795" type="qcurve"/>
      <point x="791" y="193" type="line"/>
      <point x="801" y="190"/>
      <point x="812" y="190" type="qcurve" smooth="yes"/>
    </contour>
  </outline>
</glyph>
<glyph name="afii10088" format="2">
  <advance width="1194"/>
  <unicode hex="0446"/>
  <outline>
    <contour>
      <point x="944" y="-307" type="line"/>
      <point x="737" y="-307" type="line"/>
      <point x="809" y="-23" type="line"/>
      <point x="779" y="-23"/>
      <point x="723" y="16"/>
      <point x="690" y="79"/>
      <point x="690" y="114" type="qcurve" smooth="yes"/>
      <point x="690" y="119" type="line"/>
      <point x="557" y="-23"/>
      <point x="375" y="-23" type="qcurve" smooth="yes"/>
      <point x="224" y="-23"/>
      <point x="79" y="152"/>
      <point x="79" y="290" type="qcurve" smooth="yes"/>
      <point x="79" y="356"/>
      <point x="94" y="422" type="qcurve" smooth="yes"/>
      <point x="227" y="999" type="line"/>
      <point x="475" y="999" type="line"/>
      <point x="340" y="414" type="line"/>
      <point x="326" y="357"/>
      <point x="326" y="316" type="qcurve" smooth="yes"/>
      <point x="326" y="264"/>
      <point x="379" y="209"/>
      <point x="440" y="209" type="qcurve" smooth="yes"/>
      <point x="509" y="209"/>
      <point x="648" y="280"/>
      <point x="748" y="395"/>
      <point x="762" y="457" type="qcurve" smooth="yes"/>
      <point x="887" y="999" type="line"/>
      <point x="1135" y="999" type="line"/>
      <point x="958" y="233" type="line"/>
      <point x="953" y="208"/>
      <point x="953" y="193" type="qcurve" smooth="yes"/>
      <point x="953" y="145"/>
      <point x="1018" y="98"/>
      <point x="1073" y="98" type="qcurve"/>
    </contour>
  </outline>
</glyph>
<glyph name="afii10089" format="2">
  <advance width="1112"/>
  <unicode hex="0447"/>
  <outline>
    <contour>
      <point x="852" y="0" type="line"/>
      <point x="604" y="0" type="line"/>
      <point x="694" y="373" type="line"/>
      <point x="623" y="304"/>
      <point x="461" y="242"/>
      <point x="383" y="242" type="qcurve" smooth="yes"/>
      <point x="232" y="242"/>
      <point x="87" y="417"/>
      <point x="87" y="555" type="qcurve" smooth="yes"/>
      <point x="87" y="620"/>
      <point x="102" y="686" type="qcurve" smooth="yes"/>
      <point x="174" y="999" type="line"/>
      <point x="422" y="999" type="line"/>
      <point x="348" y="678" type="line"/>
      <point x="334" y="622"/>
      <point x="334" y="581" type="qcurve" smooth="yes"/>
      <point x="334" y="473"/>
      <point x="445" y="473" type="qcurve" smooth="yes"/>
      <point x="523" y="473"/>
      <point x="660" y="547"/>
      <point x="755" y="660"/>
      <point x="770" y="721" type="qcurve"/>
      <point x="834" y="999" type="line"/>
      <point x="1081" y="999" type="line"/>
    </contour>
  </outline>
</glyph>
<glyph name="afii10090" format="2">
  <advance width="1772"/>
  <unicode hex="0448"/>
  <outline>
    <contour>
      <point x="1026" y="-18" type="qcurve" smooth="yes"/>
      <point x="838" y="-18"/>
      <point x="770" y="135" type="qcurve"/>
      <point x="689" y="55"/>
      <point x="503" y="-16"/>
      <point x="410" y="-16" type="qcurve" smooth="yes"/>
      <point x="306" y="-16"/>
      <point x="173" y="65"/>
      <point x="110" y="202"/>
      <point x="110" y="287" type="qcurve" smooth="yes"/>
      <point x="110" y="348"/>
      <point x="125" y="410" type="qcurve"/>
      <point x="260" y="999" type="line"/>
      <point x="508" y="999" type="line"/>
      <point x="375" y="420" type="line" smooth="yes"/>
      <point x="361" y="362"/>
      <point x="361" y="320" type="qcurve" smooth="yes"/>
      <point x="361" y="209"/>
      <point x="473" y="209" type="qcurve" smooth="yes"/>
      <point x="546" y="209"/>
      <point x="662" y="281"/>
      <point x="740" y="395"/>
      <point x="756" y="461" type="qcurve"/>
      <point x="879" y="999" type="line"/>
      <point x="1126" y="999" type="line"/>
      <point x="991" y="416" type="line" smooth="yes"/>
      <point x="978" y="358"/>
      <point x="978" y="320" type="qcurve" smooth="yes"/>
      <point x="978" y="209"/>
      <point x="1090" y="209" type="qcurve" smooth="yes"/>
      <point x="1162" y="209"/>
      <point x="1278" y="281"/>
      <point x="1356" y="395"/>
      <point x="1372" y="461" type="qcurve"/>
      <point x="1495" y="999" type="line"/>
      <point x="1741" y="999" type="line"/>
      <point x="1511" y="0" type="line"/>
      <point x="1266" y="0" type="line"/>
      <point x="1290" y="96" type="line"/>
      <point x="1181" y="-18"/>
    </contour>
  </outline>
</glyph>
<glyph name="afii10092" format="2">
  <advance width="1223"/>
  <unicode hex="044A"/>
  <outline>
    <contour>
      <point x="582" y="-20" type="qcurve" smooth="yes"/>
      <point x="455" y="-20"/>
      <point x="294" y="63"/>
      <point x="218" y="210"/>
      <point x="218" y="308" type="qcurve" smooth="yes"/>
      <point x="218" y="377"/>
      <point x="236" y="457" type="qcurve" smooth="yes"/>
      <point x="319" y="815" type="line"/>
      <point x="70" y="815" type="line"/>
      <point x="111" y="999" type="line"/>
      <point x="586" y="999" type="line"/>
      <point x="522" y="745" type="line"/>
      <point x="648" y="827"/>
      <point x="784" y="827" type="qcurve" smooth="yes"/>
      <point x="916" y="827"/>
      <point x="1081" y="746"/>
      <point x="1158" y="602"/>
      <point x="1158" y="508" type="qcurve" smooth="yes"/>
      <point x="1158" y="426"/>
      <point x="1103" y="251"/>
      <point x="1041" y="174" type="qcurve"/>
      <point x="968" y="86"/>
      <point x="737" y="-20"/>
    </contour>
    <contour>
      <point x="604" y="190" type="qcurve" smooth="yes"/>
      <point x="718" y="190"/>
      <point x="865" y="323"/>
      <point x="889" y="426" type="qcurve" smooth="yes"/>
      <point x="894" y="448"/>
      <point x="894" y="467" type="qcurve" smooth="yes"/>
      <point x="894" y="527"/>
      <point x="814" y="616"/>
      <point x="729" y="616" type="qcurve" smooth="yes"/>
      <point x="656" y="616"/>
      <point x="538" y="558"/>
      <point x="462" y="463"/>
      <point x="449" y="406" type="qcurve" smooth="yes"/>
      <point x="438" y="359"/>
      <point x="438" y="331" type="qcurve" smooth="yes"/>
      <point x="438" y="267"/>
      <point x="518" y="190"/>
    </contour>
  </outline>
</glyph>
<glyph name="afii10094" format="2">
  <advance width="1124"/>
  <unicode hex="044C"/>
  <outline>
    <contour>
      <point x="475" y="-20" type="qcurve" smooth="yes"/>
      <point x="348" y="-20"/>
      <point x="187" y="63"/>
      <point x="111" y="211"/>
      <point x="111" y="309" type="qcurve" smooth="yes"/>
      <point x="111" y="379"/>
      <point x="129" y="457" type="qcurve" smooth="yes"/>
      <point x="254" y="999" type="line"/>
      <point x="479" y="999" type="line"/>
      <point x="416" y="745" type="line"/>
      <point x="542" y="827"/>
      <point x="678" y="827" type="qcurve" smooth="yes"/>
      <point x="810" y="827"/>
      <point x="975" y="746"/>
      <point x="1052" y="602"/>
      <point x="1052" y="509" type="qcurve" smooth="yes"/>
      <point x="1052" y="453"/>
      <point x="1036" y="381" type="qcurve" smooth="yes"/>
      <point x="1010" y="268"/>
      <point x="864" y="88"/>
      <point x="631" y="-20"/>
    </contour>
    <contour>
      <point x="498" y="190" type="qcurve" smooth="yes"/>
      <point x="611" y="190"/>
      <point x="759" y="323"/>
      <point x="782" y="426" type="qcurve" smooth="yes"/>
      <point x="787" y="449"/>
      <point x="787" y="468" type="qcurve" smooth="yes"/>
      <point x="787" y="528"/>
      <point x="708" y="616"/>
      <point x="623" y="616" type="qcurve" smooth="yes"/>
      <point x="548" y="616"/>
      <point x="431" y="557"/>
      <point x="356" y="462"/>
      <point x="342" y="406" type="qcurve"/>
      <point x="338" y="381" type="line"/>
      <point x="332" y="357"/>
      <point x="332" y="330" type="qcurve" smooth="yes"/>
      <point x="332" y="266"/>
      <point x="412" y="190"/>
    </contour>
  </outline>
</glyph>
<glyph name="afii10097" format="2">
  <advance width="1077"/>
  <unicode hex="044F"/>
  <outline>
    <contour>
      <point x="817" y="0" type="line"/>
      <point x="573" y="0" type="line"/>
      <point x="666" y="401" type="line"/>
      <point x="580" y="401" type="line" smooth="yes"/>
      <point x="484" y="401"/>
      <point x="418" y="281" type="qcurve"/>
      <point x="231" y="0" type="line"/>
      <point x="-61" y="0" type="line"/>
      <point x="113" y="301" type="line"/>
      <point x="154" y="357"/>
      <point x="263" y="450"/>
      <point x="317" y="453" type="qcurve"/>
      <point x="241" y="476"/>
      <point x="142" y="561"/>
      <point x="142" y="651" type="qcurve" smooth="yes"/>
      <point x="142" y="814"/>
      <point x="285" y="920" type="qcurve" smooth="yes"/>
      <point x="392" y="999"/>
      <point x="616" y="999" type="qcurve" smooth="yes"/>
      <point x="1047" y="999" type="line"/>
    </contour>
    <contour>
      <point x="707" y="582" type="line"/>
      <point x="754" y="784" type="line"/>
      <point x="535" y="784" type="line" smooth="yes"/>
      <point x="491" y="784"/>
      <point x="425" y="739"/>
      <point x="388" y="673"/>
      <point x="388" y="642" type="qcurve" smooth="yes"/>
      <point x="388" y="582"/>
      <point x="479" y="582" type="qcurve" smooth="yes"/>
    </contour>
  </outline>
</glyph>
<glyph name="afii10099" format="2">
  <advance width="1159"/>
  <unicode hex="0452"/>
  <outline>
    <contour>
      <point x="406" y="-438" type="qcurve" smooth="yes"/>
      <point x="336" y="-438"/>
      <point x="219" y="-399"/>
      <point x="162" y="-365" type="qcurve"/>
      <point x="303" y="-178" type="line"/>
      <point x="347" y="-207"/>
      <point x="428" y="-207" type="qcurve" smooth="yes"/>
      <point x="498" y="-207"/>
      <point x="607" y="-135"/>
      <point x="681" y="-14"/>
      <point x="698" y="61" type="qcurve" smooth="yes"/>
      <point x="819" y="584" type="line" smooth="yes"/>
      <point x="832" y="641"/>
      <point x="832" y="678" type="qcurve" smooth="yes"/>
      <point x="832" y="782"/>
      <point x="723" y="782" type="qcurve" smooth="yes"/>
      <point x="618" y="782"/>
      <point x="432" y="644"/>
      <point x="397" y="510" type="qcurve"/>
      <point x="281" y="0" type="line"/>
      <point x="31" y="0" type="line"/>
      <point x="291" y="1128" type="line"/>
      <point x="143" y="1128" type="line"/>
      <point x="180" y="1292" type="line"/>
      <point x="328" y="1292" type="line"/>
      <point x="356" y="1413" type="line"/>
      <point x="606" y="1413" type="line"/>
      <point x="578" y="1292" type="line"/>
      <point x="815" y="1292" type="line"/>
      <point x="778" y="1128" type="line"/>
      <point x="541" y="1128" type="line"/>
      <point x="483" y="901" type="line"/>
      <point x="608" y="1022"/>
      <point x="766" y="1022" type="qcurve" smooth="yes"/>
      <point x="928" y="1022"/>
      <point x="1080" y="849"/>
      <point x="1080" y="712" type="qcurve" smooth="yes"/>
      <point x="1080" y="646"/>
      <point x="1063" y="575" type="qcurve"/>
      <point x="961" y="125" type="line"/>
      <point x="891" y="-173"/>
      <point x="625" y="-438"/>
    </contour>
  </outline>
</glyph>
<glyph name="afii10100" format="2">
  <advance width="795"/>
  <unicode hex="0453"/>
  <outline>
    <contour>
      <point x="645" y="1124" type="line"/>
      <point x="461" y="1124" type="line"/>
      <point x="754" y="1413" type="line"/>
      <point x="1018" y="1413" type="line"/>
    </contour>
    <contour>
      <point x="272" y="0" type="line"/>
      <point x="25" y="0" type="line"/>
      <point x="254" y="999" type="line"/>
      <point x="913" y="999" type="line"/>
      <point x="872" y="817" type="line"/>
      <point x="461" y="817" type="line"/>
    </contour>
  </outline>
</glyph>
<glyph name="afii10101" format="2">
  <advance width="997"/>
  <unicode hex="0454"/>
  <outline>
    <contour>
      <point x="428" y="-20" type="qcurve" smooth="yes"/>
      <point x="298" y="-20"/>
      <point x="122" y="83"/>
      <point x="38" y="260"/>
      <point x="38" y="372" type="qcurve" smooth="yes"/>
      <point x="38" y="443"/>
      <point x="55" y="520" type="qcurve"/>
      <point x="86" y="651"/>
      <point x="243" y="877"/>
      <point x="486" y="1016"/>
      <point x="639" y="1016" type="qcurve" smooth="yes"/>
      <point x="740" y="1016"/>
      <point x="895" y="941"/>
      <point x="994" y="805"/>
      <point x="1012" y="715" type="qcurve"/>
      <point x="768" y="645" type="line"/>
      <point x="765" y="715"/>
      <point x="683" y="786"/>
      <point x="612" y="786" type="qcurve" smooth="yes"/>
      <point x="512" y="786"/>
      <point x="365" y="666"/>
      <point x="326" y="573" type="qcurve"/>
      <point x="676" y="584" type="line"/>
      <point x="635" y="401" type="line"/>
      <point x="283" y="391" type="line"/>
      <point x="283" y="385" type="line" smooth="yes"/>
      <point x="283" y="209"/>
      <point x="453" y="209" type="qcurve" smooth="yes"/>
      <point x="530" y="209"/>
      <point x="664" y="299"/>
      <point x="700" y="371" type="qcurve"/>
      <point x="903" y="266" type="line"/>
      <point x="824" y="128"/>
      <point x="574" y="-20"/>
    </contour>
  </outline>
</glyph>
<glyph name="afii10102" format="2">
  <advance width="901"/>
  <unicode hex="0455"/>
  <outline>
    <contour>
      <point x="346" y="-20" type="qcurve" smooth="yes"/>
      <point x="237" y="-20"/>
      <point x="79" y="61"/>
      <point x="-11" y="192"/>
      <point x="-18" y="270" type="qcurve"/>
      <point x="186" y="336" type="line"/>
      <point x="196" y="268"/>
      <point x="268" y="182"/>
      <point x="354" y="182" type="qcurve" smooth="yes"/>
      <point x="411" y="182"/>
      <point x="499" y="224"/>
      <point x="554" y="289"/>
      <point x="561" y="324" type="qcurve"/>
      <point x="563" y="339" type="line"/>
      <point x="563" y="363"/>
      <point x="524" y="395"/>
      <point x="466" y="415"/>
      <point x="412" y="429" type="qcurve" smooth="yes"/>
      <point x="327" y="451"/>
      <point x="220" y="499"/>
      <point x="184" y="541" type="qcurve" smooth="yes"/>
      <point x="145" y="585"/>
      <point x="145" y="658" type="qcurve" smooth="yes"/>
      <point x="145" y="715"/>
      <point x="192" y="840"/>
      <point x="240" y="890" type="qcurve"/>
      <point x="308" y="955"/>
      <point x="480" y="1014"/>
      <point x="567" y="1014" type="qcurve" smooth="yes"/>
      <point x="700" y="1014"/>
      <point x="866" y="883"/>
      <point x="899" y="784" type="qcurve"/>
      <point x="713" y="711" type="line"/>
      <point x="695" y="765"/>
      <point x="618" y="821"/>
      <point x="551" y="821" type="qcurve" smooth="yes"/>
      <point x="485" y="821"/>
      <point x="440" y="793" type="qcurve" smooth="yes"/>
      <point x="388" y="760"/>
      <point x="384" y="707" type="qcurve"/>
      <point x="384" y="679"/>
      <point x="449" y="644"/>
      <point x="524" y="622" type="qcurve"/>
      <point x="612" y="598"/>
      <point x="668" y="571" type="qcurve" smooth="yes"/>
      <point x="803" y="506"/>
      <point x="803" y="370" type="qcurve" smooth="yes"/>
      <point x="803" y="303"/>
      <point x="748" y="167"/>
      <point x="699" y="117" type="qcurve"/>
      <point x="624" y="44"/>
      <point x="438" y="-20"/>
    </contour>
  </outline>
</glyph>
<glyph name="afii10103" format="2">
  <advance width="532"/>
  <unicode hex="0456"/>
  <outline>
    <contour>
      <point x="553" y="1186" type="line"/>
      <point x="297" y="1186" type="line"/>
      <point x="350" y="1411" type="line"/>
      <point x="606" y="1411" type="line"/>
    </contour>
    <contour>
      <point x="272" y="0" type="line"/>
      <point x="31" y="0" type="line"/>
      <point x="260" y="999" type="line"/>
      <point x="502" y="999" type="line"/>
    </contour>
  </outline>
</glyph>
<glyph name="afii10193" format="2">
  <advance width="1198"/>
  <unicode hex="045F"/>
  <outline>
    <contour>
      <point x="537" y="-307" type="line"/>
      <point x="289" y="-307" type="line"/>
      <point x="360" y="0" type="line"/>
      <point x="31" y="0" type="line"/>
      <point x="260" y="999" type="line"/>
      <point x="508" y="999" type="line"/>
      <point x="319" y="182" type="line"/>
      <point x="731" y="182" type="line"/>
      <point x="920" y="999" type="line"/>
      <point x="1167" y="999" type="line"/>
      <point x="938" y="0" type="line"/>
      <point x="608" y="0" type="line"/>
    </contour>
  </outline>
</glyph>
<glyph name="afii10194" format="2">
  <advance width="1055"/>
  <unicode hex="0463"/>
  <outline>
    <contour>
      <point x="434" y="0" type="qcurve" smooth="yes"/>
      <point x="31" y="0" type="line"/>
      <point x="291" y="1128" type="line"/>
      <point x="106" y="1128" type="line"/>
      <point x="143" y="1292" type="line"/>
      <point x="328" y="1292" type="line"/>
      <point x="356" y="1411" type="line"/>
      <point x="604" y="1411" type="line"/>
      <point x="575" y="1292" type="line"/>
      <point x="858" y="1292" type="line"/>
      <point x="821" y="1128" type="line"/>
      <point x="539" y="1128" type="line"/>
      <point x="440" y="705" type="line"/>
      <point x="582" y="705" type="line" smooth="yes"/>
      <point x="786" y="705"/>
      <point x="971" y="576"/>
      <point x="971" y="452" type="qcurve" smooth="yes"/>
      <point x="971" y="402"/>
      <point x="956" y="340" type="qcurve" smooth="yes"/>
      <point x="914" y="160"/>
      <point x="653" y="0"/>
    </contour>
    <contour>
      <point x="467" y="211" type="line" smooth="yes"/>
      <point x="659" y="211"/>
      <point x="698" y="385" type="qcurve"/>
      <point x="702" y="407"/>
      <point x="702" y="414" type="qcurve" smooth="yes"/>
      <point x="702" y="459"/>
      <point x="620" y="494"/>
      <point x="545" y="494" type="qcurve" smooth="yes"/>
      <point x="391" y="494" type="line"/>
      <point x="326" y="211" type="line"/>
    </contour>
  </outline>
</glyph>
<glyph name="eiotifiedcyrillic" format="2">
  <advance width="1495"/>
  <unicode hex="0465"/>
  <outline>
    <contour>
      <point x="926" y="-20" type="qcurve" smooth="yes"/>
      <point x="796" y="-20"/>
      <point x="620" y="82"/>
      <point x="535" y="256"/>
      <point x="535" y="364" type="qcurve"/>
      <point x="537" y="412" type="line"/>
      <point x="371" y="401" type="line"/>
      <point x="279" y="0" type="line"/>
      <point x="31" y="0" type="line"/>
      <point x="260" y="999" type="line"/>
      <point x="508" y="999" type="line"/>
      <point x="412" y="584" type="line"/>
      <point x="575" y="594" type="line"/>
      <point x="619" y="713"/>
      <point x="776" y="904"/>
      <point x="1001" y="1016"/>
      <point x="1137" y="1016" type="qcurve" smooth="yes"/>
      <point x="1238" y="1016"/>
      <point x="1393" y="941"/>
      <point x="1493" y="805"/>
      <point x="1509" y="715" type="qcurve"/>
      <point x="1266" y="645" type="line"/>
      <point x="1263" y="715"/>
      <point x="1181" y="786"/>
      <point x="1110" y="786" type="qcurve" smooth="yes"/>
      <point x="1010" y="786"/>
      <point x="862" y="666"/>
      <point x="823" y="573" type="qcurve"/>
      <point x="1174" y="584" type="line"/>
      <point x="1133" y="401" type="line"/>
      <point x="780" y="391" type="line"/>
      <point x="780" y="385" type="line" smooth="yes"/>
      <point x="780" y="209"/>
      <point x="950" y="209" type="qcurve" smooth="yes"/>
      <point x="1028" y="209"/>
      <point x="1162" y="299"/>
      <point x="1198" y="371" type="qcurve"/>
      <point x="1401" y="266" type="line"/>
      <point x="1320" y="128"/>
      <point x="1072" y="-20"/>
    </contour>
  </outline>
</glyph>
<glyph name="yuslittlecyrillic" format="2">
  <advance width="975"/>
  <unicode hex="0467"/>
  <outline>
    <contour>
      <point x="846" y="0" type="line"/>
      <point x="614" y="0" type="line"/>
      <point x="606" y="162" type="line"/>
      <point x="498" y="162" type="line"/>
      <point x="461" y="0" type="line"/>
      <point x="289" y="0" type="line"/>
      <point x="326" y="162" type="line"/>
      <point x="221" y="162" type="line"/>
      <point x="135" y="0" type="line"/>
      <point x="-104" y="0" type="line"/>
      <point x="506" y="999" type="line"/>
      <point x="696" y="999" type="line"/>
    </contour>
    <contour>
      <point x="592" y="338" type="line"/>
      <point x="541" y="709" type="line"/>
      <point x="317" y="338" type="line"/>
    </contour>
  </outline>
</glyph>
<glyph name="yusbigiotifiedcyrillic" format="2">
  <advance width="1722"/>
  <unicode hex="046D"/>
  <outline>
    <contour>
      <point x="1593" y="0" type="line"/>
      <point x="1309" y="0" type="line"/>
      <point x="1272" y="362" type="line"/>
      <point x="1265" y="413"/>
      <point x="1227" y="446"/>
      <point x="1189" y="446" type="qcurve" smooth="yes"/>
      <point x="1182" y="446" type="line"/>
      <point x="1073" y="0" type="line"/>
      <point x="860" y="0" type="line"/>
      <point x="969" y="446" type="line"/>
      <point x="926" y="446"/>
      <point x="847" y="378"/>
      <point x="829" y="342" type="qcurve"/>
      <point x="629" y="0" type="line"/>
      <point x="336" y="0" type="line"/>
      <point x="539" y="336" type="line"/>
      <point x="550" y="350"/>
      <point x="583" y="407" type="qcurve" smooth="yes"/>
      <point x="586" y="412" type="line"/>
      <point x="371" y="401" type="line"/>
      <point x="279" y="0" type="line"/>
      <point x="31" y="0" type="line"/>
      <point x="260" y="999" type="line"/>
      <point x="508" y="999" type="line"/>
      <point x="412" y="584" type="line"/>
      <point x="821" y="584" type="line"/>
      <point x="686" y="817" type="line"/>
      <point x="725" y="999" type="line"/>
      <point x="1665" y="999" type="line"/>
      <point x="1626" y="817" type="line"/>
      <point x="1407" y="612" type="line"/>
      <point x="1442" y="612"/>
      <point x="1487" y="557"/>
      <point x="1508" y="491"/>
      <point x="1518" y="444" type="qcurve"/>
    </contour>
    <contour>
      <point x="1106" y="624" type="line"/>
      <point x="1317" y="817" type="line"/>
      <point x="997" y="817" type="line"/>
    </contour>
  </outline>
</glyph>
<glyph name="afii10148" format="2">
  <advance width="1358"/>
  <unicode hex="0474"/>
  <outline>
    <contour>
      <point x="653" y="0" type="line"/>
      <point x="463" y="0" type="line"/>
      <point x="223" y="1413" type="line"/>
      <point x="500" y="1413" type="line"/>
      <point x="647" y="412" type="line"/>
      <point x="831" y="714"/>
      <point x="1014" y="1017" type="qcurve" smooth="yes"/>
      <point x="1196" y="1319"/>
      <point x="1359" y="1382" type="qcurve" smooth="yes"/>
      <point x="1438" y="1413"/>
      <point x="1534" y="1413" type="qcurve"/>
      <point x="1491" y="1178" type="line"/>
      <point x="1384" y="1156"/>
      <point x="1235" y="920" type="qcurve" smooth="yes"/>
    </contour>
  </outline>
</glyph>
<glyph name="titlocyrilliccmb" format="2">
  <unicode hex="0483"/>
  <outline>
    <contour>
      <point x="-484" y="1577" type="line"/>
      <point x="-727" y="1577" type="line"/>
      <point x="-645" y="1931" type="line"/>
      <point x="-41" y="1931" type="line"/>
      <point x="-13" y="2056" type="line"/>
      <point x="237" y="2056" type="line"/>
      <point x="155" y="1700" type="line"/>
      <point x="-455" y="1700" type="line"/>
    </contour>
  </outline>
</glyph>
<glyph name="afii10098" format="2">
  <advance width="797"/>
  <unicode hex="0491"/>
  <outline>
    <contour>
      <point x="272" y="0" type="line"/>
      <point x="25" y="0" type="line"/>
      <point x="254" y="999" type="line"/>
      <point x="666" y="999" type="line"/>
      <point x="737" y="1307" type="line"/>
      <point x="985" y="1307" type="line"/>
      <point x="872" y="817" type="line"/>
      <point x="461" y="817" type="line"/>
    </contour>
  </outline>
</glyph>
<glyph name="Kadescendercyrillic" format="2">
  <advance width="1350"/>
  <unicode hex="049A"/>
  <outline>
    <contour>
      <point x="1261" y="-238" type="line"/>
      <point x="1019" y="-238" type="line"/>
      <point x="1075" y="0" type="line"/>
      <point x="903" y="0" type="line"/>
      <point x="848" y="483" type="line" smooth="yes"/>
      <point x="840" y="555"/>
      <point x="776" y="664"/>
      <point x="707" y="664" type="qcurve" smooth="yes"/>
      <point x="473" y="664" type="line"/>
      <point x="322" y="0" type="line"/>
      <point x="68" y="0" type="line"/>
      <point x="393" y="1411" type="line"/>
      <point x="647" y="1411" type="line"/>
      <point x="528" y="901" type="line"/>
      <point x="676" y="901" type="line"/>
      <point x="1128" y="1411" type="line"/>
      <point x="1473" y="1411" type="line"/>
      <point x="907" y="834" type="line"/>
      <point x="979" y="834"/>
      <point x="1063" y="672"/>
      <point x="1081" y="578" type="qcurve"/>
      <point x="1175" y="168" type="line"/>
      <point x="1355" y="168" type="line"/>
    </contour>
  </outline>
</glyph>
<glyph name="kadescendercyrillic" format="2">
  <advance width="1036"/>
  <unicode hex="049B"/>
  <outline>
    <contour>
      <point x="972" y="-238" type="line"/>
      <point x="730" y="-238" type="line"/>
      <point x="786" y="0" type="line"/>
      <point x="621" y="0" type="line"/>
      <point x="584" y="362" type="line"/>
      <point x="577" y="414"/>
      <point x="529" y="463"/>
      <point x="479" y="463" type="qcurve" smooth="yes"/>
      <point x="381" y="463" type="line"/>
      <point x="274" y="0" type="line"/>
      <point x="31" y="0" type="line"/>
      <point x="356" y="1411" type="line"/>
      <point x="600" y="1411" type="line"/>
      <point x="422" y="643" type="line"/>
      <point x="485" y="643" type="line"/>
      <point x="801" y="999" type="line"/>
      <point x="1090" y="999" type="line"/>
      <point x="698" y="612" type="line"/>
      <point x="749" y="612"/>
      <point x="817" y="503"/>
      <point x="829" y="444" type="qcurve"/>
      <point x="876" y="168" type="line"/>
      <point x="1066" y="168" type="line"/>
    </contour>
  </outline>
</glyph>
<glyph name="Endescendercyrillic" format="2">
  <advance width="1491"/>
  <unicode hex="04A2"/>
  <outline>
    <contour>
      <point x="1365" y="-238" type="line"/>
      <point x="1123" y="-238" type="line"/>
      <point x="1179" y="0" type="line"/>
      <point x="940" y="0" type="line"/>
      <point x="1075" y="590" type="line"/>
      <point x="457" y="590" type="line"/>
      <point x="322" y="0" type="line"/>
      <point x="68" y="0" type="line"/>
      <point x="393" y="1413" type="line"/>
      <point x="647" y="1413" type="line"/>
      <point x="510" y="823" type="line"/>
      <point x="1128" y="823" type="line"/>
      <point x="1266" y="1413" type="line"/>
      <point x="1520" y="1413" type="line"/>
      <point x="1233" y="168" type="line"/>
      <point x="1459" y="168" type="line"/>
    </contour>
  </outline>
</glyph>
<glyph name="endescendercyrillic" format="2">
  <advance width="1198"/>
  <unicode hex="04A3"/>
  <outline>
    <contour>
      <point x="1107" y="-238" type="line"/>
      <point x="865" y="-238" type="line"/>
      <point x="921" y="0" type="line"/>
      <point x="690" y="0" type="line"/>
      <point x="797" y="463" type="line"/>
      <point x="385" y="463" type="line"/>
      <point x="279" y="0" type="line"/>
      <point x="31" y="0" type="line"/>
      <point x="260" y="999" type="line"/>
      <point x="508" y="999" type="line"/>
      <point x="426" y="645" type="line"/>
      <point x="838" y="645" type="line"/>
      <point x="920" y="999" type="line"/>
      <point x="1167" y="999" type="line"/>
      <point x="977" y="168" type="line"/>
      <point x="1201" y="168" type="line"/>
    </contour>
  </outline>
</glyph>
<glyph name="Ustraightstrokecyrillic" format="2">
  <advance width="1395"/>
  <unicode hex="04B0"/>
  <outline>
    <contour>
      <point x="709" y="0" type="line"/>
      <point x="455" y="0" type="line"/>
      <point x="517" y="264" type="line"/>
      <point x="275" y="264" type="line"/>
      <point x="324" y="477" type="line"/>
      <point x="567" y="477" type="line"/>
      <point x="584" y="551" type="line"/>
      <point x="207" y="1413" type="line"/>
      <point x="502" y="1413" type="line"/>
      <point x="756" y="778" type="line"/>
      <point x="1307" y="1413" type="line"/>
      <point x="1610" y="1413" type="line"/>
      <point x="838" y="551" type="line"/>
      <point x="821" y="477" type="line"/>
      <point x="1082" y="477" type="line"/>
      <point x="1032" y="264" type="line"/>
      <point x="771" y="264" type="line"/>
    </contour>
  </outline>
</glyph>
<glyph name="Hadescendercyrillic" format="2">
  <advance width="1343"/>
  <unicode hex="04B2"/>
  <outline>
    <contour>
      <point x="1253" y="-238" type="line"/>
      <point x="1011" y="-238" type="line"/>
      <point x="1067" y="0" type="line"/>
      <point x="903" y="0" type="line"/>
      <point x="684" y="537" type="line"/>
      <point x="215" y="0" type="line"/>
      <point x="-94" y="0" type="line"/>
      <point x="545" y="707" type="line"/>
      <point x="240" y="1413" type="line"/>
      <point x="539" y="1413" type="line"/>
      <point x="752" y="868" type="line"/>
      <point x="1223" y="1413" type="line"/>
      <point x="1530" y="1413" type="line"/>
      <point x="893" y="707" type="line"/>
      <point x="1127" y="168" type="line"/>
      <point x="1347" y="168" type="line"/>
    </contour>
  </outline>
</glyph>
<glyph name="Chedescendercyrillic" format="2">
  <advance width="1350"/>
  <unicode hex="04B6"/>
  <outline>
    <contour>
      <point x="1198" y="-238" type="line"/>
      <point x="956" y="-238" type="line"/>
      <point x="1012" y="0" type="line"/>
      <point x="799" y="0" type="line"/>
      <point x="913" y="477" type="line"/>
      <point x="765" y="410"/>
      <point x="618" y="410" type="qcurve" smooth="yes"/>
      <point x="394" y="410"/>
      <point x="176" y="613"/>
      <point x="176" y="796" type="qcurve" smooth="yes"/>
      <point x="176" y="888"/>
      <point x="201" y="991" type="qcurve"/>
      <point x="297" y="1411" type="line"/>
      <point x="551" y="1411" type="line"/>
      <point x="455" y="999" type="line"/>
      <point x="432" y="896"/>
      <point x="432" y="835" type="qcurve" smooth="yes"/>
      <point x="432" y="739"/>
      <point x="537" y="655"/>
      <point x="649" y="655" type="qcurve" smooth="yes"/>
      <point x="833" y="655"/>
      <point x="975" y="782" type="qcurve"/>
      <point x="1124" y="1411" type="line"/>
      <point x="1378" y="1411" type="line"/>
      <point x="1092" y="168" type="line"/>
      <point x="1292" y="168" type="line"/>
    </contour>
  </outline>
</glyph>
<glyph name="Shhacyrillic" format="2">
  <advance width="1350"/>
  <unicode hex="04BA"/>
  <outline>
    <contour>
      <point x="1149" y="2" type="line"/>
      <point x="895" y="2" type="line"/>
      <point x="991" y="414" type="line"/>
      <point x="1014" y="518"/>
      <point x="1014" y="578" type="qcurve" smooth="yes"/>
      <point x="1014" y="674"/>
      <point x="909" y="758"/>
      <point x="797" y="758" type="qcurve" smooth="yes"/>
      <point x="613" y="758"/>
      <point x="471" y="631" type="qcurve"/>
      <point x="322" y="2" type="line"/>
      <point x="68" y="2" type="line"/>
      <point x="393" y="1413" type="line"/>
      <point x="647" y="1413" type="line"/>
      <point x="533" y="936" type="line"/>
      <point x="681" y="1003"/>
      <point x="828" y="1003" type="qcurve" smooth="yes"/>
      <point x="1052" y="1003"/>
      <point x="1270" y="800"/>
      <point x="1270" y="617" type="qcurve" smooth="yes"/>
      <point x="1270" y="525"/>
      <point x="1245" y="422" type="qcurve"/>
    </contour>
  </outline>
</glyph>
<glyph name="afii10846" format="2">
  <advance width="1067"/>
  <unicode hex="04D9"/>
  <outline>
    <contour>
      <point x="426" y="-13" type="qcurve" smooth="yes"/>
      <point x="224" y="-13"/>
      <point x="42" y="185"/>
      <point x="42" y="345" type="qcurve" smooth="yes"/>
      <point x="42" y="408"/>
      <point x="68" y="545"/>
      <point x="86" y="589" type="qcurve"/>
      <point x="776" y="589" type="line"/>
      <point x="778" y="620" type="line"/>
      <point x="778" y="784"/>
      <point x="592" y="784" type="qcurve" smooth="yes"/>
      <point x="506" y="784"/>
      <point x="376" y="738"/>
      <point x="313" y="684" type="qcurve"/>
      <point x="172" y="847" type="line"/>
      <point x="355" y="1011"/>
      <point x="616" y="1011" type="qcurve" smooth="yes"/>
      <point x="755" y="1011"/>
      <point x="936" y="910"/>
      <point x="1025" y="735"/>
      <point x="1025" y="625" type="qcurve" smooth="yes"/>
      <point x="1025" y="471"/>
      <point x="862" y="154"/>
      <point x="699" y="57" type="qcurve"/>
      <point x="577" y="-13"/>
    </contour>
    <contour>
      <point x="446" y="192" type="qcurve" smooth="yes"/>
      <point x="517" y="192"/>
      <point x="627" y="251"/>
      <point x="708" y="350"/>
      <point x="733" y="413" type="qcurve"/>
      <point x="274" y="413" type="line"/>
      <point x="271" y="385"/>
      <point x="271" y="361" type="qcurve" smooth="yes"/>
      <point x="271" y="270"/>
      <point x="357" y="192"/>
    </contour>
  </outline>
</glyph>
<glyph name="emdash" format="2">
  <advance width="1706"/>
  <unicode hex="2014"/>
  <outline>
    <contour>
      <point x="1567" y="508" type="line"/>
      <point x="143" y="508" type="line"/>
      <point x="186" y="692" type="line"/>
      <point x="1610" y="692" type="line"/>
    </contour>
  </outline>
</glyph>
<glyph name="quotedblleft" format="2">
  <advance width="963"/>
  <unicode hex="201C"/>
  <outline>
    <contour>
      <point x="549" y="856" type="line"/>
      <point x="391" y="856" type="line"/>
      <point x="268" y="1413" type="line"/>
      <point x="541" y="1413" type="line"/>
    </contour>
    <contour>
      <point x="938" y="856" type="line"/>
      <point x="780" y="856" type="line"/>
      <point x="657" y="1413" type="line"/>
      <point x="930" y="1413" type="line"/>
    </contour>
  </outline>
</glyph>
<glyph name="quotedblright" format="2">
  <advance width="963"/>
  <unicode hex="201D"/>
  <outline>
    <contour>
      <point x="350" y="856" type="line"/>
      <point x="184" y="856" type="line"/>
      <point x="451" y="1413" type="line"/>
      <point x="731" y="1413" type="line"/>
    </contour>
    <contour>
      <point x="739" y="856" type="line"/>
      <point x="573" y="856" type="line"/>
      <point x="840" y="1413" type="line"/>
      <point x="1120" y="1413" type="line"/>
    </contour>
  </outline>
</glyph>
<glyph name="daggerdbl" format="2">
  <advance width="893"/>
  <unicode hex="2021"/>
  <outline>
    <contour>
      <point x="395" y="-205" type="line"/>
      <point x="174" y="-205" type="line"/>
      <point x="262" y="178" type="line"/>
      <point x="41" y="178" type="line"/>
      <point x="92" y="399" type="line"/>
      <point x="313" y="399" type="line"/>
      <point x="408" y="809" type="line"/>
      <point x="186" y="809" type="line"/>
      <point x="238" y="1030" type="line"/>
      <point x="459" y="1030" type="line"/>
      <point x="547" y="1413" type="line"/>
      <point x="768" y="1413" type="line"/>
      <point x="680" y="1030" type="line"/>
      <point x="901" y="1030" type="line"/>
      <point x="850" y="809" type="line"/>
      <point x="629" y="809" type="line"/>
      <point x="535" y="399" type="line"/>
      <point x="756" y="399" type="line"/>
      <point x="705" y="178" type="line"/>
      <point x="483" y="178" type="line"/>
    </contour>
  </outline>
</glyph>
<glyph name="uni2023" format="2">
  <advance width="915"/>
  <unicode hex="2023"/>
  <outline>
    <contour>
      <point x="125" y="143" type="line"/>
      <point x="301" y="922" type="line"/>
      <point x="879" y="532" type="line"/>
    </contour>
  </outline>
</glyph>
<glyph name="ellipsis" format="2">
  <advance width="1475"/>
  <unicode hex="2026"/>
  <outline>
    <contour>
      <point x="332" y="0" type="line"/>
      <point x="86" y="0" type="line"/>
      <point x="145" y="264" type="line"/>
      <point x="391" y="264" type="line"/>
    </contour>
    <contour>
      <point x="745" y="0" type="line"/>
      <point x="500" y="0" type="line"/>
      <point x="559" y="264" type="line"/>
      <point x="805" y="264" type="line"/>
    </contour>
    <contour>
      <point x="1159" y="0" type="line"/>
      <point x="913" y="0" type="line"/>
      <point x="973" y="264" type="line"/>
      <point x="1219" y="264" type="line"/>
    </contour>
  </outline>
</glyph>
<glyph name="guilsinglleft" format="2">
  <advance width="592"/>
  <unicode hex="2039"/>
  <outline>
    <contour>
      <point x="367" y="156" type="line"/>
      <point x="18" y="510" type="line"/>
      <point x="526" y="866" type="line"/>
      <point x="481" y="655" type="line"/>
      <point x="266" y="510" type="line"/>
      <point x="412" y="367" type="line"/>
    </contour>
  </outline>
</glyph>
<glyph name="fraction" format="2">
  <advance width="860"/>
  <unicode hex="2044"/>
  <outline>
    <contour>
      <point x="152" y="0" type="line"/>
      <point x="-82" y="0" type="line"/>
      <point x="709" y="1413" type="line"/>
      <point x="942" y="1413" type="line"/>
    </contour>
  </outline>
</glyph>
<glyph name="foursuperior" format="2">
  <advance width="801"/>
  <unicode hex="2074"/>
  <outline>
    <contour>
      <point x="554" y="486" type="line"/>
      <point x="366" y="486" type="line"/>
      <point x="415" y="699" type="line"/>
      <point x="-8" y="699" type="line"/>
      <point x="13" y="810" type="line"/>
      <point x="617" y="1428" type="line"/>
      <point x="772" y="1428" type="line"/>
      <point x="644" y="874" type="line"/>
      <point x="788" y="874" type="line"/>
      <point x="753" y="699" type="line"/>
      <point x="603" y="699" type="line"/>
    </contour>
    <contour>
      <point x="456" y="874" type="line"/>
      <point x="525" y="1171" type="line"/>
      <point x="239" y="874" type="line"/>
    </contour>
  </outline>
</glyph>
<glyph name="fivesuperior" format="2">
  <advance width="833"/>
  <unicode hex="2075"/>
  <outline>
    <contour>
      <point x="335" y="473" type="qcurve" smooth="yes"/>
      <point x="247" y="473"/>
      <point x="111" y="554"/>
      <point x="73" y="623" type="qcurve" smooth="yes"/>
      <point x="38" y="687"/>
      <point x="38" y="761" type="qcurve" smooth="yes"/>
      <point x="38" y="773" type="line"/>
      <point x="220" y="800" type="line"/>
      <point x="220" y="794" type="line" smooth="yes"/>
      <point x="220" y="731"/>
      <point x="281" y="645"/>
      <point x="357" y="645" type="qcurve" smooth="yes"/>
      <point x="408" y="645"/>
      <point x="505" y="697"/>
      <point x="573" y="780"/>
      <point x="585" y="825" type="qcurve"/>
      <point x="589" y="843"/>
      <point x="589" y="855" type="qcurve" smooth="yes"/>
      <point x="589" y="860" type="line" smooth="yes"/>
      <point x="589" y="908"/>
      <point x="521" y="969"/>
      <point x="456" y="969" type="qcurve" smooth="yes"/>
      <point x="407" y="969"/>
      <point x="304" y="921"/>
      <point x="270" y="883" type="qcurve"/>
      <point x="111" y="925" type="line"/>
      <point x="328" y="1428" type="line"/>
      <point x="874" y="1428" type="line"/>
      <point x="839" y="1253" type="line"/>
      <point x="427" y="1253" type="line"/>
      <point x="350" y="1103" type="line"/>
      <point x="421" y="1140"/>
      <point x="507" y="1140" type="qcurve" smooth="yes"/>
      <point x="587" y="1140"/>
      <point x="711" y="1071"/>
      <point x="779" y="950"/>
      <point x="779" y="875" type="qcurve" smooth="yes"/>
      <point x="779" y="744"/>
      <point x="682" y="636" type="qcurve" smooth="yes"/>
      <point x="616" y="562"/>
      <point x="431" y="473"/>
    </contour>
  </outline>
</glyph>
<glyph name="sixsuperior" format="2">
  <advance width="833"/>
  <unicode hex="2076"/>
  <outline>
    <contour>
      <point x="341" y="473" type="qcurve" smooth="yes"/>
      <point x="206" y="473"/>
      <point x="43" y="626"/>
      <point x="43" y="738" type="qcurve" smooth="yes"/>
      <point x="43" y="796"/>
      <point x="93" y="920"/>
      <point x="140" y="971" type="qcurve"/>
      <point x="546" y="1428" type="line"/>
      <point x="761" y="1428" type="line"/>
      <point x="462" y="1132" type="line"/>
      <point x="514" y="1132"/>
      <point x="595" y="1118"/>
      <point x="637" y="1099" type="qcurve"/>
      <point x="704" y="1066"/>
      <point x="783" y="949"/>
      <point x="783" y="869" type="qcurve" smooth="yes"/>
      <point x="783" y="762"/>
      <point x="654" y="582"/>
      <point x="451" y="473"/>
    </contour>
    <contour>
      <point x="366" y="651" type="qcurve" smooth="yes"/>
      <point x="454" y="651"/>
      <point x="598" y="780"/>
      <point x="598" y="855" type="qcurve" smooth="yes"/>
      <point x="598" y="905"/>
      <point x="520" y="968"/>
      <point x="463" y="968" type="qcurve" smooth="yes"/>
      <point x="400" y="968"/>
      <point x="296" y="908"/>
      <point x="232" y="816"/>
      <point x="228" y="766" type="qcurve"/>
      <point x="228" y="714"/>
      <point x="308" y="651"/>
    </contour>
  </outline>
</glyph>
<glyph name="sevensuperior" format="2">
  <advance width="791"/>
  <unicode hex="2077"/>
  <outline>
    <contour>
      <point x="245" y="486" type="line"/>
      <point x="55" y="486" type="line"/>
      <point x="636" y="1255" type="line"/>
      <point x="163" y="1255" type="line"/>
      <point x="198" y="1428" type="line"/>
      <point x="878" y="1428" type="line"/>
      <point x="858" y="1331" type="line"/>
    </contour>
  </outline>
</glyph>
<glyph name="eightsuperior" format="2">
  <advance width="894"/>
  <unicode hex="2078"/>
  <outline>
    <contour>
      <point x="363" y="462" type="qcurve" smooth="yes"/>
      <point x="275" y="462"/>
      <point x="122" y="512"/>
      <point x="28" y="617"/>
      <point x="28" y="699" type="qcurve" smooth="yes"/>
      <point x="28" y="790"/>
      <point x="145" y="952"/>
      <point x="252" y="1005" type="qcurve"/>
      <point x="195" y="1056"/>
      <point x="195" y="1142" type="qcurve" smooth="yes"/>
      <point x="195" y="1196"/>
      <point x="239" y="1297"/>
      <point x="284" y="1339" type="qcurve"/>
      <point x="348" y="1396"/>
      <point x="515" y="1452"/>
      <point x="599" y="1452" type="qcurve" smooth="yes"/>
      <point x="679" y="1452"/>
      <point x="809" y="1401"/>
      <point x="886" y="1305"/>
      <point x="886" y="1237" type="qcurve" smooth="yes"/>
      <point x="886" y="1163"/>
      <point x="804" y="1034"/>
      <point x="730" y="987" type="qcurve"/>
      <point x="781" y="958"/>
      <point x="831" y="867"/>
      <point x="831" y="812" type="qcurve" smooth="yes"/>
      <point x="831" y="753"/>
      <point x="779" y="632"/>
      <point x="729" y="586" type="qcurve"/>
      <point x="655" y="521"/>
      <point x="464" y="462"/>
    </contour>
    <contour>
      <point x="500" y="1067" type="qcurve"/>
      <point x="576" y="1067"/>
      <point x="685" y="1133"/>
      <point x="701" y="1185" type="qcurve" smooth="yes"/>
      <point x="704" y="1195"/>
      <point x="704" y="1206" type="qcurve" smooth="yes"/>
      <point x="704" y="1242"/>
      <point x="635" y="1277"/>
      <point x="580" y="1277" type="qcurve" smooth="yes"/>
      <point x="514" y="1277"/>
      <point x="399" y="1217"/>
      <point x="381" y="1165" type="qcurve"/>
      <point x="377" y="1151"/>
      <point x="377" y="1141" type="qcurve" smooth="yes"/>
      <point x="377" y="1069"/>
    </contour>
    <contour>
      <point x="384" y="633" type="qcurve" smooth="yes"/>
      <point x="472" y="633"/>
      <point x="620" y="711"/>
      <point x="643" y="784" type="qcurve"/>
      <point x="647" y="799"/>
      <point x="647" y="813" type="qcurve" smooth="yes"/>
      <point x="647" y="859"/>
      <point x="553" y="905"/>
      <point x="480" y="905" type="qcurve" smooth="yes"/>
      <point x="386" y="905"/>
      <point x="242" y="829"/>
      <point x="220" y="755" type="qcurve" smooth="yes"/>
      <point x="216" y="743"/>
      <point x="216" y="728" type="qcurve" smooth="yes"/>
      <point x="216" y="680"/>
      <point x="313" y="633"/>
    </contour>
  </outline>
</glyph>
<glyph name="ninesuperior" format="2">
  <advance width="833"/>
  <unicode hex="2079"/>
  <outline>
    <contour>
      <point x="351" y="486" type="line"/>
      <point x="135" y="486" type="line"/>
      <point x="435" y="782" type="line"/>
      <point x="382" y="782"/>
      <point x="301" y="795"/>
      <point x="260" y="815" type="qcurve" smooth="yes"/>
      <point x="193" y="847"/>
      <point x="114" y="964"/>
      <point x="114" y="1045" type="qcurve" smooth="yes"/>
      <point x="114" y="1145"/>
      <point x="246" y="1339"/>
      <point x="364" y="1398" type="qcurve"/>
      <point x="456" y="1442"/>
      <point x="556" y="1442" type="qcurve" smooth="yes"/>
      <point x="648" y="1442"/>
      <point x="782" y="1370"/>
      <point x="854" y="1250"/>
      <point x="854" y="1177" type="qcurve" smooth="yes"/>
      <point x="854" y="1051"/>
      <point x="757" y="943" type="qcurve" smooth="yes"/>
    </contour>
    <contour>
      <point x="434" y="946" type="qcurve" smooth="yes"/>
      <point x="496" y="946"/>
      <point x="603" y="1009"/>
      <point x="669" y="1102"/>
      <point x="669" y="1149" type="qcurve" smooth="yes"/>
      <point x="669" y="1200"/>
      <point x="589" y="1263"/>
      <point x="531" y="1263" type="qcurve" smooth="yes"/>
      <point x="447" y="1263"/>
      <point x="307" y="1145"/>
      <point x="298" y="1060" type="qcurve"/>
      <point x="298" y="1009"/>
      <point x="377" y="946"/>
    </contour>
  </outline>
</glyph>
<glyph name="Euro" format="2">
  <advance width="1245"/>
  <unicode hex="20AC"/>
  <outline>
    <contour>
      <point x="662" y="-20" type="qcurve" smooth="yes"/>
      <point x="520" y="-20"/>
      <point x="331" y="106"/>
      <point x="287" y="215" type="qcurve" smooth="yes"/>
      <point x="244" y="320"/>
      <point x="244" y="454" type="qcurve" smooth="yes"/>
      <point x="244" y="463" type="line"/>
      <point x="63" y="453" type="line"/>
      <point x="182" y="633" type="line"/>
      <point x="258" y="643" type="line"/>
      <point x="266" y="692"/>
      <point x="277" y="732" type="qcurve" smooth="yes"/>
      <point x="295" y="803" type="line"/>
      <point x="141" y="793" type="line"/>
      <point x="262" y="979" type="line"/>
      <point x="362" y="989" type="line"/>
      <point x="462" y="1198"/>
      <point x="768" y="1436"/>
      <point x="969" y="1436" type="qcurve" smooth="yes"/>
      <point x="1094" y="1436"/>
      <point x="1276" y="1324"/>
      <point x="1325" y="1223" type="qcurve"/>
      <point x="1151" y="1116" type="line"/>
      <point x="1099" y="1217"/>
      <point x="944" y="1217" type="qcurve" smooth="yes"/>
      <point x="826" y="1217"/>
      <point x="635" y="1083"/>
      <point x="567" y="969" type="qcurve"/>
      <point x="1100" y="979" type="line"/>
      <point x="981" y="797" type="line"/>
      <point x="489" y="786" type="line"/>
      <point x="476" y="744"/>
      <point x="467" y="700" type="qcurve"/>
      <point x="461" y="679"/>
      <point x="453" y="631" type="qcurve"/>
      <point x="1022" y="641" type="line"/>
      <point x="903" y="461" type="line"/>
      <point x="442" y="451" type="line"/>
      <point x="454" y="326"/>
      <point x="572" y="199"/>
      <point x="686" y="199" type="qcurve" smooth="yes"/>
      <point x="841" y="199"/>
      <point x="954" y="319" type="qcurve"/>
      <point x="1073" y="158" type="line"/>
      <point x="982" y="69"/>
      <point x="773" y="-20"/>
    </contour>
  </outline>
</glyph>
<glyph name="uni20B8" format="2">
  <advance width="1376"/>
  <unicode hex="20B8"/>
  <outline>
    <contour>
      <point x="1415" y="1186" type="line"/>
      <point x="276" y="1186" type="line"/>
      <point x="330" y="1413" type="line"/>
      <point x="1468" y="1413" type="line"/>
    </contour>
    <contour>
      <point x="700" y="0" type="line"/>
      <point x="446" y="0" type="line"/>
      <point x="643" y="854" type="line"/>
      <point x="201" y="854" type="line"/>
      <point x="254" y="1081" type="line"/>
      <point x="1393" y="1081" type="line"/>
      <point x="1339" y="854" type="line"/>
      <point x="897" y="854" type="line"/>
    </contour>
  </outline>
</glyph>
<glyph name="afii61352" format="2">
  <advance width="2476"/>
  <unicode hex="2116"/>
  <anchor x="1778" y="348" name="b.uni0326"/>
  <anchor x="1967" y="1170" name="t.ringcmb_1"/>
  <anchor x="1906" y="348" name="b.ogonekcmb_2"/>
  <anchor x="2414" y="1170" name="m.horncmb_3"/>
  <outline>
    <contour>
      <point x="1157" y="0" type="line"/>
      <point x="905" y="0" type="line"/>
      <point x="543" y="991" type="line"/>
      <point x="311" y="0" type="line"/>
      <point x="68" y="0" type="line"/>
      <point x="393" y="1413" type="line"/>
      <point x="643" y="1413" type="line"/>
      <point x="1008" y="424" type="line"/>
      <point x="1239" y="1413" type="line"/>
      <point x="1483" y="1413" type="line"/>
    </contour>
    <contour>
      <point x="1785" y="332" type="qcurve" smooth="yes"/>
      <point x="1674" y="332"/>
      <point x="1520" y="420"/>
      <point x="1441" y="571"/>
      <point x="1441" y="665" type="qcurve" smooth="yes"/>
      <point x="1441" y="800"/>
      <point x="1595" y="1053"/>
      <point x="1733" y="1127" type="qcurve"/>
      <point x="1838" y="1181"/>
      <point x="1959" y="1181" type="qcurve" smooth="yes"/>
      <point x="2069" y="1181"/>
      <point x="2222" y="1094"/>
      <point x="2301" y="943"/>
      <point x="2301" y="848" type="qcurve" smooth="yes"/>
      <point x="2301" y="701"/>
      <point x="2142" y="455"/>
      <point x="2012" y="387" type="qcurve" smooth="yes"/>
      <point x="1906" y="332"/>
    </contour>
    <contour>
      <point x="1803" y="504" type="qcurve" smooth="yes"/>
      <point x="1914" y="504"/>
      <point x="1987" y="580" type="qcurve" smooth="yes"/>
      <point x="2041" y="638"/>
      <point x="2098" y="790"/>
      <point x="2098" y="853" type="qcurve" smooth="yes"/>
      <point x="2098" y="922"/>
      <point x="2024" y="1007"/>
      <point x="1940" y="1007" type="qcurve" smooth="yes"/>
      <point x="1829" y="1007"/>
      <point x="1756" y="931" type="qcurve" smooth="yes"/>
      <point x="1702" y="873"/>
      <point x="1645" y="721"/>
      <point x="1645" y="658" type="qcurve" smooth="yes"/>
      <point x="1645" y="589"/>
      <point x="1719" y="504"/>
    </contour>
    <contour>
      <point x="2279" y="0" type="line"/>
      <point x="1452" y="0" type="line"/>
      <point x="1452" y="184" type="line"/>
      <point x="2279" y="184" type="line"/>
    </contour>
  </outline>
</glyph>
<glyph name="Ohm" format="2">
  <advance width="1673"/>
  <unicode hex="2126"/>
  <outline>
    <contour>
      <point x="1413" y="0" type="line"/>
      <point x="834" y="0" type="line"/>
      <point x="870" y="190" type="line"/>
      <point x="1050" y="219"/>
      <point x="1312" y="513"/>
      <point x="1366" y="735" type="qcurve" smooth="yes"/>
      <point x="1380" y="795"/>
      <point x="1380" y="863" type="qcurve" smooth="yes"/>
      <point x="1380" y="974"/>
      <point x="1335" y="1059" type="qcurve"/>
      <point x="1276" y="1129"/>
      <point x="1100" y="1202"/>
      <point x="1012" y="1202" type="qcurve" smooth="yes"/>
      <point x="905" y="1202"/>
      <point x="688" y="1103"/>
      <point x="604" y="1026" type="qcurve"/>
      <point x="463" y="920"/>
      <point x="406" y="690" type="qcurve"/>
      <point x="385" y="600"/>
      <point x="385" y="523" type="qcurve" smooth="yes"/>
      <point x="385" y="388"/>
      <point x="514" y="207"/>
      <point x="645" y="186" type="qcurve"/>
      <point x="608" y="0" type="line"/>
      <point x="29" y="0" type="line"/>
      <point x="76" y="203" type="line"/>
      <point x="354" y="209" type="line"/>
      <point x="277" y="285"/>
      <point x="189" y="496"/>
      <point x="189" y="614" type="qcurve" smooth="yes"/>
      <point x="189" y="718"/>
      <point x="255" y="902"/>
      <point x="308" y="990" type="qcurve" smooth="yes"/>
      <point x="382" y="1115"/>
      <point x="481" y="1206" type="qcurve"/>
      <point x="606" y="1301"/>
      <point x="899" y="1407"/>
      <point x="1032" y="1407" type="qcurve" smooth="yes"/>
      <point x="1176" y="1407"/>
      <point x="1420" y="1278"/>
      <point x="1489" y="1171" type="qcurve"/>
      <point x="1588" y="1055"/>
      <point x="1588" y="858" type="qcurve" smooth="yes"/>
      <point x="1588" y="626"/>
      <point x="1440" y="419" type="qcurve" smooth="yes"/>
      <point x="1343" y="282"/>
      <point x="1208" y="188" type="qcurve"/>
      <point x="1458" y="195" type="line"/>
    </contour>
  </outline>
</glyph>
<glyph name="arrowright" format="2">
  <advance width="2228"/>
  <unicode hex="2192"/>
  <outline>
    <contour>
      <point x="1176" y="72" type="line"/>
      <point x="1063" y="268" type="line"/>
      <point x="1628" y="532" type="line"/>
      <point x="80" y="532" type="line"/>
      <point x="80" y="737" type="line"/>
      <point x="1638" y="737" type="line"/>
      <point x="1063" y="999" type="line"/>
      <point x="1176" y="1196" type="line"/>
      <point x="2185" y="639" type="line"/>
    </contour>
  </outline>
</glyph>
<glyph name="Delta" format="2">
  <advance width="1288"/>
  <unicode hex="2206"/>
  <outline>
    <contour>
      <point x="1126" y="0" type="line"/>
      <point x="-72" y="0" type="line"/>
      <point x="868" y="1491" type="line"/>
    </contour>
    <contour>
      <point x="879" y="205" type="line"/>
      <point x="762" y="993" type="line"/>
      <point x="279" y="205" type="line"/>
    </contour>
  </outline>
</glyph>
<glyph name="integral" format="2">
  <advance width="899"/>
  <unicode hex="222B"/>
  <outline>
    <contour>
      <point x="-174" y="-457" type="qcurve"/>
      <point x="-139" y="-252" type="line"/>
      <point x="36" y="-252"/>
      <point x="209" y="-113"/>
      <point x="240" y="31" type="qcurve"/>
      <point x="498" y="1147" type="line"/>
      <point x="533" y="1288"/>
      <point x="739" y="1448"/>
      <point x="856" y="1448" type="qcurve" smooth="yes"/>
      <point x="982" y="1448"/>
      <point x="1067" y="1356" type="qcurve"/>
      <point x="911" y="1212" type="line"/>
      <point x="893" y="1230"/>
      <point x="856" y="1243"/>
      <point x="834" y="1243" type="qcurve" smooth="yes"/>
      <point x="791" y="1243"/>
      <point x="711" y="1181"/>
      <point x="696" y="1118" type="qcurve" smooth="yes"/>
      <point x="438" y="4" type="line"/>
      <point x="382" y="-226"/>
      <point x="58" y="-457"/>
    </contour>
  </outline>
</glyph>
<glyph name="apple" format="2">
  <advance width="1753"/>
  <unicode hex="F8FF"/>
  <outline>
    <contour>
      <point x="926" y="-61" type="qcurve" smooth="yes"/>
      <point x="779" y="-61"/>
      <point x="523" y="38"/>
      <point x="323" y="211"/>
      <point x="256" y="325" type="qcurve" smooth="yes"/>
      <point x="152" y="502"/>
      <point x="152" y="713" type="qcurve" smooth="yes"/>
      <point x="152" y="860"/>
      <point x="251" y="1116"/>
      <point x="424" y="1316"/>
      <point x="538" y="1383" type="qcurve" smooth="yes"/>
      <point x="715" y="1487"/>
      <point x="926" y="1487" type="qcurve" smooth="yes"/>
      <point x="1073" y="1487"/>
      <point x="1329" y="1388"/>
      <point x="1529" y="1215"/>
      <point x="1596" y="1102" type="qcurve" smooth="yes"/>
      <point x="1700" y="924"/>
      <point x="1700" y="713" type="qcurve" smooth="yes"/>
      <point x="1700" y="566"/>
      <point x="1601" y="310"/>
      <point x="1428" y="110"/>
      <point x="1315" y="43" type="qcurve" smooth="yes"/>
      <point x="1137" y="-61"/>
    </contour>
    <contour>
      <point x="926" y="10" type="qcurve" smooth="yes"/>
      <point x="1059" y="10"/>
      <point x="1291" y="100"/>
      <point x="1474" y="257"/>
      <point x="1534" y="361" type="qcurve" smooth="yes"/>
      <point x="1628" y="522"/>
      <point x="1628" y="713" type="qcurve" smooth="yes"/>
      <point x="1628" y="846"/>
      <point x="1539" y="1078"/>
      <point x="1382" y="1261"/>
      <point x="1279" y="1321" type="qcurve" smooth="yes"/>
      <point x="1117" y="1415"/>
      <point x="926" y="1415" type="qcurve" smooth="yes"/>
      <point x="793" y="1415"/>
      <point x="561" y="1326"/>
      <point x="378" y="1169"/>
      <point x="318" y="1066" type="qcurve" smooth="yes"/>
      <point x="223" y="904"/>
      <point x="223" y="713" type="qcurve" smooth="yes"/>
      <point x="223" y="580"/>
      <point x="313" y="348"/>
      <point x="470" y="165"/>
      <point x="574" y="105" type="qcurve"/>
      <point x="735" y="10"/>
    </contour>
    <contour>
      <point x="522" y="410" type="qcurve" smooth="yes"/>
      <point x="508" y="410"/>
      <point x="487" y="429"/>
      <point x="487" y="444" type="qcurve" smooth="yes"/>
      <point x="487" y="981" type="line" smooth="yes"/>
      <point x="487" y="996"/>
      <point x="508" y="1018"/>
      <point x="522" y="1018" type="qcurve" smooth="yes"/>
      <point x="538" y="1018"/>
      <point x="559" y="996"/>
      <point x="559" y="981" type="qcurve" smooth="yes"/>
      <point x="559" y="444" type="line" smooth="yes"/>
      <point x="559" y="429"/>
      <point x="538" y="410"/>
    </contour>
    <contour>
      <point x="926" y="410" type="qcurve" smooth="yes"/>
      <point x="893" y="410"/>
      <point x="891" y="444" type="qcurve"/>
      <point x="891" y="981" type="line" smooth="yes"/>
      <point x="891" y="996"/>
      <point x="911" y="1018"/>
      <point x="926" y="1018" type="qcurve" smooth="yes"/>
      <point x="941" y="1018"/>
      <point x="961" y="996"/>
      <point x="961" y="981" type="qcurve" smooth="yes"/>
      <point x="961" y="444" type="line" smooth="yes"/>
      <point x="961" y="429"/>
      <point x="941" y="410"/>
    </contour>
    <contour>
      <point x="1327" y="410" type="qcurve" smooth="yes"/>
      <point x="1313" y="410"/>
      <point x="1305" y="420" type="qcurve"/>
      <point x="1034" y="688" type="line"/>
      <point x="1026" y="699"/>
      <point x="1026" y="713" type="qcurve" smooth="yes"/>
      <point x="1026" y="729"/>
      <point x="1034" y="737" type="qcurve" smooth="yes"/>
      <point x="1305" y="1006" type="line"/>
      <point x="1314" y="1018"/>
      <point x="1327" y="1018" type="qcurve" smooth="yes"/>
      <point x="1341" y="1018"/>
      <point x="1364" y="995"/>
      <point x="1364" y="981" type="qcurve" smooth="yes"/>
      <point x="1364" y="967"/>
      <point x="1354" y="956" type="qcurve"/>
      <point x="1110" y="713" type="line"/>
      <point x="1354" y="469" type="line" smooth="yes"/>
      <point x="1364" y="459"/>
      <point x="1364" y="444" type="qcurve" smooth="yes"/>
      <point x="1364" y="431"/>
      <point x="1341" y="410"/>
    </contour>
    <contour>
      <point x="791" y="678" type="qcurve" smooth="yes"/>
      <point x="657" y="678" type="line" smooth="yes"/>
      <point x="628" y="678"/>
      <point x="623" y="713" type="qcurve"/>
      <point x="623" y="728"/>
      <point x="642" y="748"/>
      <point x="657" y="748" type="qcurve" smooth="yes"/>
      <point x="791" y="748" type="line" smooth="yes"/>
      <point x="806" y="748"/>
      <point x="827" y="728"/>
      <point x="827" y="713" type="qcurve" smooth="yes"/>
      <point x="827" y="698"/>
      <point x="806" y="678"/>
    </contour>
  </outline>
</glyph>
<glyph name="fi" format="2">
  <advance width="1106"/>
  <unicode hex="FB01"/>
  <outline>
    <contour>
      <point x="244" y="795" type="line"/>
      <point x="88" y="795" type="line"/>
      <point x="135" y="999" type="line"/>
      <point x="295" y="1010" type="line"/>
      <point x="340" y="1208"/>
      <point x="592" y="1434"/>
      <point x="807" y="1434" type="qcurve" smooth="yes"/>
      <point x="893" y="1434"/>
      <point x="1009" y="1399"/>
      <point x="1073" y="1353"/>
      <point x="1104" y="1321" type="qcurve" smooth="yes"/>
      <point x="1120" y="1305" type="line"/>
      <point x="961" y="1133" type="line"/>
      <point x="931" y="1170"/>
      <point x="854" y="1212"/>
      <point x="780" y="1212" type="qcurve" smooth="yes"/>
      <point x="581" y="1212"/>
      <point x="530" y="989" type="qcurve"/>
      <point x="1083" y="999" type="line"/>
      <point x="854" y="0" type="line"/>
      <point x="618" y="0" type="line"/>
      <point x="801" y="795" type="line"/>
      <point x="485" y="795" type="line"/>
      <point x="303" y="0" type="line"/>
      <point x="61" y="0" type="line"/>
    </contour>
  </outline>
</glyph>
<glyph name="f_f" format="2">
  <advance width="1278"/>
  <outline>
    <contour>
      <point x="1066" y="1355" type="qcurve"/>
      <point x="1068" y="1357"/>
      <point x="1070" y="1358" type="qcurve" smooth="yes"/>
      <point x="1162" y="1434"/>
      <point x="1319" y="1434" type="qcurve" smooth="yes"/>
      <point x="1403" y="1434"/>
      <point x="1495" y="1389" type="qcurve"/>
      <point x="1374" y="1202" type="line"/>
      <point x="1339" y="1225"/>
      <point x="1299" y="1225" type="qcurve" smooth="yes"/>
      <point x="1260" y="1225"/>
      <point x="1201" y="1170"/>
      <point x="1188" y="1118" type="qcurve" smooth="yes"/>
      <point x="1159" y="999" type="line"/>
      <point x="1393" y="999" type="line"/>
      <point x="1346" y="795" type="line"/>
      <point x="1112" y="795" type="line"/>
      <point x="930" y="0" type="line"/>
      <point x="678" y="0" type="line"/>
      <point x="860" y="795" type="line"/>
      <point x="496" y="795" type="line"/>
      <point x="313" y="0" type="line"/>
      <point x="68" y="0" type="line"/>
      <point x="250" y="795" type="line"/>
      <point x="88" y="795" type="line"/>
      <point x="135" y="999" type="line"/>
      <point x="299" y="999" type="line"/>
      <point x="324" y="1102" type="line"/>
      <point x="363" y="1274"/>
      <point x="628" y="1434"/>
      <point x="807" y="1434" type="qcurve" smooth="yes"/>
      <point x="891" y="1434"/>
      <point x="965" y="1409" type="qcurve" smooth="yes"/>
      <point x="1023" y="1389"/>
    </contour>
    <contour>
      <point x="949" y="1162" type="qcurve"/>
      <point x="943" y="1166"/>
      <point x="932" y="1176" type="qcurve"/>
      <point x="913" y="1190"/>
      <point x="837" y="1212"/>
      <point x="786" y="1212" type="qcurve" smooth="yes"/>
      <point x="689" y="1212"/>
      <point x="572" y="1126"/>
      <point x="557" y="1061" type="qcurve" smooth="yes"/>
      <point x="543" y="999" type="line"/>
      <point x="910" y="1002" type="line"/>
      <point x="944" y="1143" type="line" smooth="yes"/>
      <point x="946" y="1153"/>
    </contour>
  </outline>
</glyph>
